<svg version="1.1" id="el_AxvvWZn2N" xmlns="http://www.w3.org/2000/svg" xmlns:xlink="http://www.w3.org/1999/xlink" x="0px" y="0px" viewBox="0 0 70 69" style="enable-background:new 0 0 70 69;" xml:space="preserve"><style>@-webkit-keyframes kf_el_abbwGp345qU_an_a0DIg8PaV{0%{-webkit-transform: translate(32.099998474121094px, 21.299999237060547px) translate(-32.099998474121094px, -21.299999237060547px) translate(0px, 0px);transform: translate(32.099998474121094px, 21.299999237060547px) translate(-32.099998474121094px, -21.299999237060547px) translate(0px, 0px);}20%{-webkit-transform: translate(32.099998474121094px, 21.299999237060547px) translate(-32.099998474121094px, -21.299999237060547px) translate(0px, 3px);transform: translate(32.099998474121094px, 21.299999237060547px) translate(-32.099998474121094px, -21.299999237060547px) translate(0px, 3px);}40%{-webkit-transform: translate(32.099998474121094px, 21.299999237060547px) translate(-32.099998474121094px, -21.299999237060547px) translate(0px, 0px);transform: translate(32.099998474121094px, 21.299999237060547px) translate(-32.099998474121094px, -21.299999237060547px) translate(0px, 0px);}100%{-webkit-transform: translate(32.099998474121094px, 21.299999237060547px) translate(-32.099998474121094px, -21.299999237060547px) translate(0px, 0px);transform: translate(32.099998474121094px, 21.299999237060547px) translate(-32.099998474121094px, -21.299999237060547px) translate(0px, 0px);}}@keyframes kf_el_abbwGp345qU_an_a0DIg8PaV{0%{-webkit-transform: translate(32.099998474121094px, 21.299999237060547px) translate(-32.099998474121094px, -21.299999237060547px) translate(0px, 0px);transform: translate(32.099998474121094px, 21.299999237060547px) translate(-32.099998474121094px, -21.299999237060547px) translate(0px, 0px);}20%{-webkit-transform: translate(32.099998474121094px, 21.299999237060547px) translate(-32.099998474121094px, -21.299999237060547px) translate(0px, 3px);transform: translate(32.099998474121094px, 21.299999237060547px) translate(-32.099998474121094px, -21.299999237060547px) translate(0px, 3px);}40%{-webkit-transform: translate(32.099998474121094px, 21.299999237060547px) translate(-32.099998474121094px, -21.299999237060547px) translate(0px, 0px);transform: translate(32.099998474121094px, 21.299999237060547px) translate(-32.099998474121094px, -21.299999237060547px) translate(0px, 0px);}100%{-webkit-transform: translate(32.099998474121094px, 21.299999237060547px) translate(-32.099998474121094px, -21.299999237060547px) translate(0px, 0px);transform: translate(32.099998474121094px, 21.299999237060547px) translate(-32.099998474121094px, -21.299999237060547px) translate(0px, 0px);}}@-webkit-keyframes kf_el_9P9GejczEOB_an__TIwnAEZ8{0%{-webkit-transform: translate(14.286155700683594px, 23.490985870361328px) scale(1, 1) translate(-14.286155700683594px, -23.490985870361328px);transform: translate(14.286155700683594px, 23.490985870361328px) scale(1, 1) translate(-14.286155700683594px, -23.490985870361328px);}20%{-webkit-transform: translate(14.286155700683594px, 23.490985870361328px) scale(0.95, 0.95) translate(-14.286155700683594px, -23.490985870361328px);transform: translate(14.286155700683594px, 23.490985870361328px) scale(0.95, 0.95) translate(-14.286155700683594px, -23.490985870361328px);}40%{-webkit-transform: translate(14.286155700683594px, 23.490985870361328px) scale(1, 1) translate(-14.286155700683594px, -23.490985870361328px);transform: translate(14.286155700683594px, 23.490985870361328px) scale(1, 1) translate(-14.286155700683594px, -23.490985870361328px);}100%{-webkit-transform: translate(14.286155700683594px, 23.490985870361328px) scale(1, 1) translate(-14.286155700683594px, -23.490985870361328px);transform: translate(14.286155700683594px, 23.490985870361328px) scale(1, 1) translate(-14.286155700683594px, -23.490985870361328px);}}@keyframes kf_el_9P9GejczEOB_an__TIwnAEZ8{0%{-webkit-transform: translate(14.286155700683594px, 23.490985870361328px) scale(1, 1) translate(-14.286155700683594px, -23.490985870361328px);transform: translate(14.286155700683594px, 23.490985870361328px) scale(1, 1) translate(-14.286155700683594px, -23.490985870361328px);}20%{-webkit-transform: translate(14.286155700683594px, 23.490985870361328px) scale(0.95, 0.95) translate(-14.286155700683594px, -23.490985870361328px);transform: translate(14.286155700683594px, 23.490985870361328px) scale(0.95, 0.95) translate(-14.286155700683594px, -23.490985870361328px);}40%{-webkit-transform: translate(14.286155700683594px, 23.490985870361328px) scale(1, 1) translate(-14.286155700683594px, -23.490985870361328px);transform: translate(14.286155700683594px, 23.490985870361328px) scale(1, 1) translate(-14.286155700683594px, -23.490985870361328px);}100%{-webkit-transform: translate(14.286155700683594px, 23.490985870361328px) scale(1, 1) translate(-14.286155700683594px, -23.490985870361328px);transform: translate(14.286155700683594px, 23.490985870361328px) scale(1, 1) translate(-14.286155700683594px, -23.490985870361328px);}}@-webkit-keyframes kf_el_U78gGlhAtH3_an_QU4w2fYB5{0%{-webkit-transform: translate(14.286155700683594px, 11.490983963012695px) translate(-14.286155700683594px, -11.490983963012695px) translate(0px, 0px);transform: translate(14.286155700683594px, 11.490983963012695px) translate(-14.286155700683594px, -11.490983963012695px) translate(0px, 0px);}20%{-webkit-transform: translate(14.286155700683594px, 11.490983963012695px) translate(-14.286155700683594px, -11.490983963012695px) translate(0px, 3px);transform: translate(14.286155700683594px, 11.490983963012695px) translate(-14.286155700683594px, -11.490983963012695px) translate(0px, 3px);}40%{-webkit-transform: translate(14.286155700683594px, 11.490983963012695px) translate(-14.286155700683594px, -11.490983963012695px) translate(0px, 0px);transform: translate(14.286155700683594px, 11.490983963012695px) translate(-14.286155700683594px, -11.490983963012695px) translate(0px, 0px);}100%{-webkit-transform: translate(14.286155700683594px, 11.490983963012695px) translate(-14.286155700683594px, -11.490983963012695px) translate(0px, 0px);transform: translate(14.286155700683594px, 11.490983963012695px) translate(-14.286155700683594px, -11.490983963012695px) translate(0px, 0px);}}@keyframes kf_el_U78gGlhAtH3_an_QU4w2fYB5{0%{-webkit-transform: translate(14.286155700683594px, 11.490983963012695px) translate(-14.286155700683594px, -11.490983963012695px) translate(0px, 0px);transform: translate(14.286155700683594px, 11.490983963012695px) translate(-14.286155700683594px, -11.490983963012695px) translate(0px, 0px);}20%{-webkit-transform: translate(14.286155700683594px, 11.490983963012695px) translate(-14.286155700683594px, -11.490983963012695px) translate(0px, 3px);transform: translate(14.286155700683594px, 11.490983963012695px) translate(-14.286155700683594px, -11.490983963012695px) translate(0px, 3px);}40%{-webkit-transform: translate(14.286155700683594px, 11.490983963012695px) translate(-14.286155700683594px, -11.490983963012695px) translate(0px, 0px);transform: translate(14.286155700683594px, 11.490983963012695px) translate(-14.286155700683594px, -11.490983963012695px) translate(0px, 0px);}100%{-webkit-transform: translate(14.286155700683594px, 11.490983963012695px) translate(-14.286155700683594px, -11.490983963012695px) translate(0px, 0px);transform: translate(14.286155700683594px, 11.490983963012695px) translate(-14.286155700683594px, -11.490983963012695px) translate(0px, 0px);}}#el_AxvvWZn2N *{-webkit-animation-duration: 5s;animation-duration: 5s;-webkit-animation-iteration-count: infinite;animation-iteration-count: infinite;-webkit-animation-timing-function: cubic-bezier(0, 0, 1, 1);animation-timing-function: cubic-bezier(0, 0, 1, 1);}#el_JiT_GOc_96{opacity: 0.5;fill: #242993;}#el_QE5zPYm-DF{fill: #42FFFF;}#el_t88MXVq6Mw{fill: url(#SVGID_1_);}#el_Yc8cEPH5wT{fill: url(#SVGID_2_);}#el__Dv9Jsnt4b{fill: url(#SVGID_3_);}#el_iJC_xlhpSx{fill: #242993;}#el_IChIC5XlIJ{fill: #4553C7;}#el_vFlMITAvpQ{fill: #42FFFF;}#el_ceIX3voQ-s{fill: #42FFFF;}#el_NrpYAY0lEJ{fill: #42FFFF;}#el_Ccs-MKNjtK{fill: #42FFFF;}#el_vJX1orAB0No{opacity: 0.4;fill: #42FFFF;}#el_5FzqkMqbUPa{fill: url(#SVGID_4_);}#el_pIyWpZFP50e{fill: url(#SVGID_5_);}#el_NGVAXNc0ijK{fill: #242993;}#el_39jemEUp7y4{fill: #4553C7;}#el_Ek7r-OGGNLi{fill: #42FFFF;}#el_DUgIIbvBNmD{fill: #42FFFF;}#el_aU41RXUZ-Z5{fill: #42FFFF;}#el_nhrmLPJd0K0{fill: #42FFFF;}#el_IxjiZbLi7jy{opacity: 0.5;fill: #242993;}#el_wxGKOvGLAmV{fill: #42FFFF;}#el_QFKbNtTDcBe{fill: url(#SVGID_6_);}#el_d5qzdlH9XNB{fill: url(#SVGID_7_);}#el_U7-RzjsLM5w{fill: url(#SVGID_8_);}#el_vHKNQq_2vP4{fill: #242993;}#el_Xfpre5nAF7K{fill: #4553C7;}#el_KJx5mD8iQ-L{fill: #42FFFF;}#el_s5MbNqJ6-rK{fill: #42FFFF;}#el_8ezPn-btyGO{fill: #42FFFF;}#el_BW-Sj8xVEOv{fill: #42FFFF;}#el_fwSKmPVPfep{opacity: 0.4;fill: #42FFFF;}#el_8GkHjU3tdkh{fill: url(#SVGID_9_);}#el_AXHTO-aiQ9-{fill: url(#SVGID_10_);}#el_QmiNsKGYddY{fill: #242993;}#el_5GwgS1htnC4{fill: #4553C7;}#el_LeNpkD05ys4{fill: #42FFFF;}#el_RaBRwK0hMk1{fill: #42FFFF;}#el_drGp7C_xc-N{fill: #42FFFF;}#el_eHeOAJeAzxs{fill: #42FFFF;}#el_9P9GejczEOB{opacity: 0.5;fill: #242993;}#el_warao9yBzjW{fill: #42FFFF;}#el_AiWGA9VAkct{fill: url(#SVGID_11_);}#el_izLwpPKD73c{fill: url(#SVGID_12_);}#el_8bv7hFZ7iT4{fill: #242993;}#el_1lq6gEqRaxg{fill: #4553C7;}#el_PH8kwBPWNIW{fill: #42FFFF;}#el_Fuf5C8U8hz1{fill: #42FFFF;}#el_RQBIZ93aUIK{fill: #42FFFF;}#el_BYwugJAxnho{fill: #42FFFF;}#el_U78gGlhAtH3_an_QU4w2fYB5{-webkit-animation-fill-mode: backwards;animation-fill-mode: backwards;-webkit-transform: translate(14.286155700683594px, 11.490983963012695px) translate(-14.286155700683594px, -11.490983963012695px) translate(0px, 0px);transform: translate(14.286155700683594px, 11.490983963012695px) translate(-14.286155700683594px, -11.490983963012695px) translate(0px, 0px);-webkit-animation-name: kf_el_U78gGlhAtH3_an_QU4w2fYB5;animation-name: kf_el_U78gGlhAtH3_an_QU4w2fYB5;-webkit-animation-timing-function: cubic-bezier(0, 0, 1, 1);animation-timing-function: cubic-bezier(0, 0, 1, 1);}#el_9P9GejczEOB_an__TIwnAEZ8{-webkit-animation-fill-mode: backwards;animation-fill-mode: backwards;-webkit-transform: translate(14.286155700683594px, 23.490985870361328px) scale(1, 1) translate(-14.286155700683594px, -23.490985870361328px);transform: translate(14.286155700683594px, 23.490985870361328px) scale(1, 1) translate(-14.286155700683594px, -23.490985870361328px);-webkit-animation-name: kf_el_9P9GejczEOB_an__TIwnAEZ8;animation-name: kf_el_9P9GejczEOB_an__TIwnAEZ8;-webkit-animation-timing-function: cubic-bezier(0, 0, 1, 1);animation-timing-function: cubic-bezier(0, 0, 1, 1);}#el_abbwGp345qU_an_RmWpPbIV2{-webkit-transform: translate(32.099998474121094px, 21.299999237060547px) translate(-32.099998474121094px, -21.299999237060547px) translate(0px, 0px);transform: translate(32.099998474121094px, 21.299999237060547px) translate(-32.099998474121094px, -21.299999237060547px) translate(0px, 0px);}#el_abbwGp345qU_an_DUMccYbMw{-webkit-transform: translate(32.099998474121094px, 21.299999237060547px) translate(-32.099998474121094px, -21.299999237060547px) translate(0px, 0px);transform: translate(32.099998474121094px, 21.299999237060547px) translate(-32.099998474121094px, -21.299999237060547px) translate(0px, 0px);}#el_abbwGp345qU_an_a0DIg8PaV{-webkit-animation-fill-mode: backwards;animation-fill-mode: backwards;-webkit-transform: translate(32.099998474121094px, 21.299999237060547px) translate(-32.099998474121094px, -21.299999237060547px) translate(0px, 0px);transform: translate(32.099998474121094px, 21.299999237060547px) translate(-32.099998474121094px, -21.299999237060547px) translate(0px, 0px);-webkit-animation-name: kf_el_abbwGp345qU_an_a0DIg8PaV;animation-name: kf_el_abbwGp345qU_an_a0DIg8PaV;-webkit-animation-timing-function: cubic-bezier(0, 0, 1, 1);animation-timing-function: cubic-bezier(0, 0, 1, 1);}</style>

<g id="el_5McgcueWB7">
	<path d="M146,56.8l-20.8-12c-0.4-0.2-0.3-0.6,0.1-0.8l20.6-11.9c0.4-0.2,1-0.3,1.4-0.1l20.8,12&#10;&#9;&#9;c0.4,0.2,0.3,0.6-0.1,0.8l-20.6,11.9C147,57,146.4,57,146,56.8z" id="el_JiT_GOc_96"/>
	<path d="M146.6,62.2c-0.4,0-0.7-0.1-1-0.2l-29.2-16.9c-0.3-0.2-0.5-0.4-0.5-0.7c0-0.3,0.2-0.6,0.6-0.8l28.9-16.7&#10;&#9;&#9;c0.6-0.4,1.6-0.4,2.2-0.1l29.2,16.9c0.3,0.2,0.5,0.4,0.5,0.7c0,0.3-0.2,0.6-0.6,0.8l-28.9,16.7C147.5,62.1,147,62.2,146.6,62.2z&#10;&#9;&#9; M146.7,27.1c-0.3,0-0.7,0.1-1,0.2L116.8,44c-0.2,0.1-0.4,0.3-0.4,0.4c0,0.1,0.1,0.2,0.2,0.3l29.2,16.9c0.4,0.2,1.2,0.2,1.7-0.1&#10;&#9;&#9;l28.9-16.7c0.2-0.1,0.4-0.3,0.4-0.4c0-0.1-0.1-0.2-0.2-0.3l-29.2-16.9C147.3,27.1,147,27.1,146.7,27.1z" id="el_QE5zPYm-DF"/>
	<g id="el_ofPxjpM9wO">
		<g id="el_Jv7dV1Z6xG">
			<linearGradient id="SVGID_1_" gradientUnits="userSpaceOnUse" x1="159.1035" y1="26.3503" x2="125.2387" y2="53.506">
				<stop offset="0" style="stop-color:#BCD5FF"/>
				<stop offset="0.151" style="stop-color:#A3BEFF"/>
				<stop offset="0.3866" style="stop-color:#82A0FF"/>
				<stop offset="0.6124" style="stop-color:#6A8AFF"/>
				<stop offset="0.8221" style="stop-color:#5C7DFF"/>
				<stop offset="1" style="stop-color:#5778FF"/>
			</linearGradient>
			<path d="M168.4,38.2v-4l-6.5,0l-14.5-8.4c-0.4-0.2-1-0.2-1.4,0.1l-14.5,8.4l-6.5,0l0,4h0c0,0.1,0.1,0.2,0.2,0.3&#10;&#9;&#9;&#9;&#9;l20.8,12c0.4,0.2,1,0.2,1.4-0.1l20.6-11.9C168.3,38.5,168.4,38.4,168.4,38.2z" id="el_t88MXVq6Mw"/>
			
				<linearGradient id="SVGID_2_" gradientUnits="userSpaceOnUse" x1="78.1806" y1="710.2326" x2="47.3967" y2="734.9178" gradientTransform="matrix(0.866 0.5 -1 0.5774 808.032 -414.544)">
				<stop offset="0" style="stop-color:#C0D6FF"/>
				<stop offset="0.2978" style="stop-color:#C5DBFF"/>
				<stop offset="0.6488" style="stop-color:#D3E9FF"/>
				<stop offset="1" style="stop-color:#E9FFFF"/>
			</linearGradient>
			<path d="M146,46.6l-20.8-12c-0.4-0.2-0.3-0.6,0.1-0.8l20.6-11.9c0.4-0.2,1-0.3,1.4-0.1l20.8,12&#10;&#9;&#9;&#9;&#9;c0.4,0.2,0.3,0.6-0.1,0.8l-20.6,11.9C147,46.8,146.4,46.8,146,46.6z" id="el_Yc8cEPH5wT"/>
			
				<linearGradient id="SVGID_3_" gradientUnits="userSpaceOnUse" x1="78.1806" y1="710.2326" x2="47.3967" y2="734.9178" gradientTransform="matrix(0.866 0.5 -1 0.5774 808.032 -414.544)">
				<stop offset="0" style="stop-color:#C0D6FF"/>
				<stop offset="0.2978" style="stop-color:#C5DBFF"/>
				<stop offset="0.6488" style="stop-color:#D3E9FF"/>
				<stop offset="1" style="stop-color:#E9FFFF"/>
			</linearGradient>
			<path d="M146,46.6l-20.8-12c-0.4-0.2-0.3-0.6,0.1-0.8l20.6-11.9c0.4-0.2,1-0.3,1.4-0.1l20.8,12&#10;&#9;&#9;&#9;&#9;c0.4,0.2,0.3,0.6-0.1,0.8l-20.6,11.9C147,46.8,146.4,46.8,146,46.6z" id="el__Dv9Jsnt4b"/>
			<path d="M146.1,45.2l-18.5-10.7c-0.3-0.2-0.3-0.5,0.1-0.7L146,23.3c0.4-0.2,0.9-0.2,1.2-0.1l18.5,10.7&#10;&#9;&#9;&#9;&#9;c0.3,0.2,0.3,0.5-0.1,0.7l-18.3,10.6C147,45.4,146.4,45.4,146.1,45.2z" id="el_iJC_xlhpSx"/>
			<path d="M146.1,44.3l-17-9.8c-0.3-0.2-0.3-0.5,0.1-0.7l16.8-9.7c0.3-0.2,0.8-0.2,1.1,0l17,9.8&#10;&#9;&#9;&#9;&#9;c0.3,0.2,0.3,0.5-0.1,0.7l-16.8,9.7C146.9,44.5,146.4,44.5,146.1,44.3z" id="el_IChIC5XlIJ"/>
			<g id="el_FllUxWwHbn">
				<polygon points="146.3,33.6 144.3,32.4 145.4,31.8 147.4,33 &#9;&#9;&#9;&#9;" id="el_vFlMITAvpQ"/>
				<polygon points="150,33.4 148,34.6 146.9,33.9 148.9,32.8 &#9;&#9;&#9;&#9;" id="el_ceIX3voQ-s"/>
				<polygon points="145.8,33.8 144.7,34.5 143.7,33.8 144.7,33.2 &#9;&#9;&#9;&#9;" id="el_NrpYAY0lEJ"/>
				<polygon points="149.6,36 148.5,36.6 145.4,34.8 146.4,34.2 &#9;&#9;&#9;&#9;" id="el_Ccs-MKNjtK"/>
			</g>
		</g>
		<path d="M168.4,28.8l-8.9,0.1l-12.2-7.1c-0.4-0.2-1-0.2-1.4,0.1L133.5,29l-8.6,0.1v5.2l0,0c0,0.1,0.1,0.2,0.2,0.3&#10;&#9;&#9;&#9;l20.8,12c0.4,0.2,1,0.2,1.4-0.1L168,34.6c0.2-0.1,0.3-0.2,0.3-0.4l0,0V28.8z" id="el_vJX1orAB0No"/>
		<g id="el_F4k22yX6qvH">
			<linearGradient id="SVGID_4_" gradientUnits="userSpaceOnUse" x1="159.1036" y1="17.4406" x2="125.2388" y2="44.5964">
				<stop offset="0" style="stop-color:#BCD5FF"/>
				<stop offset="0.151" style="stop-color:#A3BEFF"/>
				<stop offset="0.3866" style="stop-color:#82A0FF"/>
				<stop offset="0.6124" style="stop-color:#6A8AFF"/>
				<stop offset="0.8221" style="stop-color:#5C7DFF"/>
				<stop offset="1" style="stop-color:#5778FF"/>
			</linearGradient>
			<path d="M168.4,29.3v-4l-6.5,0l-14.5-8.4c-0.4-0.2-1-0.2-1.4,0.1l-14.5,8.4l-6.5,0l0,4h0c0,0.1,0.1,0.2,0.2,0.3&#10;&#9;&#9;&#9;&#9;l20.8,12c0.4,0.2,1,0.2,1.4-0.1l20.6-11.9C168.3,29.6,168.4,29.5,168.4,29.3z" id="el_5FzqkMqbUPa"/>
			
				<linearGradient id="SVGID_5_" gradientUnits="userSpaceOnUse" x1="69.2712" y1="702.5171" x2="38.4873" y2="727.2023" gradientTransform="matrix(0.866 0.5 -1 0.5774 808.032 -414.544)">
				<stop offset="0" style="stop-color:#C0D6FF"/>
				<stop offset="0.2978" style="stop-color:#C5DBFF"/>
				<stop offset="0.6488" style="stop-color:#D3E9FF"/>
				<stop offset="1" style="stop-color:#E9FFFF"/>
			</linearGradient>
			<path d="M146,37.7l-20.8-12c-0.4-0.2-0.3-0.6,0.1-0.8L145.9,13c0.4-0.2,1-0.3,1.4-0.1l20.8,12&#10;&#9;&#9;&#9;&#9;c0.4,0.2,0.3,0.6-0.1,0.8l-20.6,11.9C147,37.9,146.4,37.9,146,37.7z" id="el_pIyWpZFP50e"/>
			<path d="M146.1,36.3l-18.5-10.7c-0.3-0.2-0.3-0.5,0.1-0.7L146,14.4c0.4-0.2,0.9-0.2,1.2-0.1L165.7,25&#10;&#9;&#9;&#9;&#9;c0.3,0.2,0.3,0.5-0.1,0.7l-18.3,10.6C147,36.5,146.4,36.5,146.1,36.3z" id="el_NGVAXNc0ijK"/>
			<path d="M146.1,35.4l-17-9.8c-0.3-0.2-0.3-0.5,0.1-0.7l16.8-9.7c0.3-0.2,0.8-0.2,1.1,0l17,9.8&#10;&#9;&#9;&#9;&#9;c0.3,0.2,0.3,0.5-0.1,0.7l-16.8,9.7C146.9,35.6,146.4,35.6,146.1,35.4z" id="el_39jemEUp7y4"/>
			<g id="el_9Nu8n8z4v7Z">
				<polygon points="146.3,24.7 144.3,23.5 145.4,22.9 147.4,24 &#9;&#9;&#9;&#9;" id="el_Ek7r-OGGNLi"/>
				<polygon points="150,24.5 148,25.7 146.9,25 148.9,23.9 &#9;&#9;&#9;&#9;" id="el_DUgIIbvBNmD"/>
				<polygon points="145.8,24.9 144.7,25.6 143.7,24.9 144.7,24.3 &#9;&#9;&#9;&#9;" id="el_aU41RXUZ-Z5"/>
				<polygon points="149.6,27.1 148.5,27.7 145.4,25.9 146.4,25.3 &#9;&#9;&#9;&#9;" id="el_nhrmLPJd0K0"/>
			</g>
		</g>
	</g>
</g>
<g id="el_31TAT9txqRO">
	<path d="M43.3-23.7l-20.8-12c-0.4-0.2-0.3-0.6,0.1-0.8l20.6-11.9c0.4-0.2,1-0.3,1.4-0.1l20.8,12&#10;&#9;&#9;c0.4,0.2,0.3,0.6-0.1,0.8L44.7-23.7C44.3-23.5,43.6-23.4,43.3-23.7z" id="el_IxjiZbLi7jy"/>
	<path d="M43.9-18.2c-0.4,0-0.7-0.1-1-0.2L13.7-35.3c-0.3-0.2-0.5-0.4-0.5-0.7c0-0.3,0.2-0.6,0.6-0.8l28.9-16.7&#10;&#9;&#9;c0.6-0.4,1.6-0.4,2.2-0.1l29.2,16.9c0.3,0.2,0.5,0.4,0.5,0.7c0,0.3-0.2,0.6-0.6,0.8L45.1-18.6C44.7-18.4,44.3-18.2,43.9-18.2z&#10;&#9;&#9; M44-53.4c-0.3,0-0.7,0.1-1,0.2L14.1-36.5c-0.2,0.1-0.4,0.3-0.4,0.4c0,0.1,0.1,0.2,0.2,0.3l29.2,16.9c0.4,0.2,1.2,0.2,1.7-0.1&#10;&#9;&#9;l28.9-16.7c0.2-0.1,0.4-0.3,0.4-0.4c0-0.1-0.1-0.2-0.2-0.3L44.7-53.3C44.5-53.4,44.3-53.4,44-53.4z" id="el_wxGKOvGLAmV"/>
	<g id="el_85z_GFN4gV-">
		<g id="el_EP_JK186vwI">
			<linearGradient id="SVGID_6_" gradientUnits="userSpaceOnUse" x1="56.3773" y1="-54.1442" x2="22.5125" y2="-26.9884">
				<stop offset="0" style="stop-color:#BCD5FF"/>
				<stop offset="0.151" style="stop-color:#A3BEFF"/>
				<stop offset="0.3866" style="stop-color:#82A0FF"/>
				<stop offset="0.6124" style="stop-color:#6A8AFF"/>
				<stop offset="0.8221" style="stop-color:#5C7DFF"/>
				<stop offset="1" style="stop-color:#5778FF"/>
			</linearGradient>
			<path d="M65.7-42.3v-4l-6.5,0l-14.5-8.4c-0.4-0.2-1-0.2-1.4,0.1l-14.5,8.4l-6.5,0l0,4h0c0,0.1,0.1,0.2,0.2,0.3&#10;&#9;&#9;&#9;&#9;l20.8,12c0.4,0.2,1,0.2,1.4-0.1l20.6-11.9C65.5-41.9,65.7-42.1,65.7-42.3z" id="el_QFKbNtTDcBe"/>
			
				<linearGradient id="SVGID_7_" gradientUnits="userSpaceOnUse" x1="-61.6241" y1="691.8881" x2="-92.408" y2="716.5733" gradientTransform="matrix(0.866 0.5 -1 0.5774 808.032 -414.544)">
				<stop offset="0" style="stop-color:#C0D6FF"/>
				<stop offset="0.2978" style="stop-color:#C5DBFF"/>
				<stop offset="0.6488" style="stop-color:#D3E9FF"/>
				<stop offset="1" style="stop-color:#E9FFFF"/>
			</linearGradient>
			<path d="M43.3-33.9l-20.8-12c-0.4-0.2-0.3-0.6,0.1-0.8l20.6-11.9c0.4-0.2,1-0.3,1.4-0.1l20.8,12&#10;&#9;&#9;&#9;&#9;c0.4,0.2,0.3,0.6-0.1,0.8L44.7-33.9C44.3-33.7,43.6-33.7,43.3-33.9z" id="el_d5qzdlH9XNB"/>
			
				<linearGradient id="SVGID_8_" gradientUnits="userSpaceOnUse" x1="-61.6241" y1="691.8881" x2="-92.408" y2="716.5733" gradientTransform="matrix(0.866 0.5 -1 0.5774 808.032 -414.544)">
				<stop offset="0" style="stop-color:#C0D6FF"/>
				<stop offset="0.2978" style="stop-color:#C5DBFF"/>
				<stop offset="0.6488" style="stop-color:#D3E9FF"/>
				<stop offset="1" style="stop-color:#E9FFFF"/>
			</linearGradient>
			<path d="M43.3-33.9l-20.8-12c-0.4-0.2-0.3-0.6,0.1-0.8l20.6-11.9c0.4-0.2,1-0.3,1.4-0.1l20.8,12&#10;&#9;&#9;&#9;&#9;c0.4,0.2,0.3,0.6-0.1,0.8L44.7-33.9C44.3-33.7,43.6-33.7,43.3-33.9z" id="el_U7-RzjsLM5w"/>
			<path d="M43.4-35.3L24.9-45.9c-0.3-0.2-0.3-0.5,0.1-0.7l18.3-10.6c0.4-0.2,0.9-0.2,1.2-0.1L63-46.6&#10;&#9;&#9;&#9;&#9;c0.3,0.2,0.3,0.5-0.1,0.7L44.6-35.3C44.2-35.1,43.7-35.1,43.4-35.3z" id="el_vHKNQq_2vP4"/>
			<path d="M43.4-36.2l-17-9.8c-0.3-0.2-0.3-0.5,0.1-0.7l16.8-9.7c0.3-0.2,0.8-0.2,1.1,0l17,9.8&#10;&#9;&#9;&#9;&#9;c0.3,0.2,0.3,0.5-0.1,0.7l-16.8,9.7C44.2-36,43.7-36,43.4-36.2z" id="el_Xfpre5nAF7K"/>
			<g id="el_W0L93vjBZ3o">
				<polygon points="43.5,-46.9 41.6,-48.1 42.6,-48.7 44.6,-47.5 &#9;&#9;&#9;&#9;" id="el_KJx5mD8iQ-L"/>
				<polygon points="47.2,-47.1 45.2,-45.9 44.2,-46.6 46.1,-47.7 &#9;&#9;&#9;&#9;" id="el_s5MbNqJ6-rK"/>
				<polygon points="43.1,-46.7 42,-46 40.9,-46.7 42,-47.3 &#9;&#9;&#9;&#9;" id="el_8ezPn-btyGO"/>
				<polygon points="46.8,-44.5 45.8,-43.9 42.6,-45.7 43.7,-46.3 &#9;&#9;&#9;&#9;" id="el_BW-Sj8xVEOv"/>
			</g>
		</g>
		<path d="M65.7-51.7l-8.9,0.1l-12.2-7.1c-0.4-0.2-1-0.2-1.4,0.1l-12.4,7.2l-8.6,0.1v5.2l0,0c0,0.1,0.1,0.2,0.2,0.3&#10;&#9;&#9;&#9;l20.8,12c0.4,0.2,1,0.2,1.4-0.1l20.6-11.9c0.2-0.1,0.3-0.2,0.3-0.4l0,0V-51.7z" id="el_fwSKmPVPfep"/>
		<g id="el_aD7czhKcYeH">
			<linearGradient id="SVGID_9_" gradientUnits="userSpaceOnUse" x1="56.3773" y1="-63.0538" x2="22.5125" y2="-35.8981">
				<stop offset="0" style="stop-color:#BCD5FF"/>
				<stop offset="0.151" style="stop-color:#A3BEFF"/>
				<stop offset="0.3866" style="stop-color:#82A0FF"/>
				<stop offset="0.6124" style="stop-color:#6A8AFF"/>
				<stop offset="0.8221" style="stop-color:#5C7DFF"/>
				<stop offset="1" style="stop-color:#5778FF"/>
			</linearGradient>
			<path d="M65.7-51.2v-4l-6.5,0l-14.5-8.4c-0.4-0.2-1-0.2-1.4,0.1l-14.5,8.4l-6.5,0l0,4h0c0,0.1,0.1,0.2,0.2,0.3&#10;&#9;&#9;&#9;&#9;l20.8,12c0.4,0.2,1,0.2,1.4-0.1l20.6-11.9C65.5-50.9,65.7-51,65.7-51.2z" id="el_8GkHjU3tdkh"/>
			
				<linearGradient id="SVGID_10_" gradientUnits="userSpaceOnUse" x1="-70.5334" y1="684.1725" x2="-101.3174" y2="708.8578" gradientTransform="matrix(0.866 0.5 -1 0.5774 808.032 -414.544)">
				<stop offset="0" style="stop-color:#C0D6FF"/>
				<stop offset="0.2978" style="stop-color:#C5DBFF"/>
				<stop offset="0.6488" style="stop-color:#D3E9FF"/>
				<stop offset="1" style="stop-color:#E9FFFF"/>
			</linearGradient>
			<path d="M43.3-42.8l-20.8-12c-0.4-0.2-0.3-0.6,0.1-0.8l20.6-11.9c0.4-0.2,1-0.3,1.4-0.1l20.8,12&#10;&#9;&#9;&#9;&#9;c0.4,0.2,0.3,0.6-0.1,0.8L44.7-42.8C44.3-42.6,43.6-42.6,43.3-42.8z" id="el_AXHTO-aiQ9-"/>
			<path d="M43.4-44.2L24.9-54.9c-0.3-0.2-0.3-0.5,0.1-0.7l18.3-10.6c0.4-0.2,0.9-0.2,1.2-0.1L63-55.5&#10;&#9;&#9;&#9;&#9;c0.3,0.2,0.3,0.5-0.1,0.7L44.6-44.2C44.2-44,43.7-44,43.4-44.2z" id="el_QmiNsKGYddY"/>
			<path d="M43.4-45.1l-17-9.8c-0.3-0.2-0.3-0.5,0.1-0.7l16.8-9.7c0.3-0.2,0.8-0.2,1.1,0l17,9.8&#10;&#9;&#9;&#9;&#9;c0.3,0.2,0.3,0.5-0.1,0.7l-16.8,9.7C44.2-44.9,43.7-44.9,43.4-45.1z" id="el_5GwgS1htnC4"/>
			<g id="el_paLdBPJ41cT">
				<polygon points="43.5,-55.8 41.6,-57 42.6,-57.6 44.6,-56.5 &#9;&#9;&#9;&#9;" id="el_LeNpkD05ys4"/>
				<polygon points="47.2,-56 45.2,-54.8 44.2,-55.5 46.1,-56.6 &#9;&#9;&#9;&#9;" id="el_RaBRwK0hMk1"/>
				<polygon points="43.1,-55.6 42,-54.9 40.9,-55.6 42,-56.2 &#9;&#9;&#9;&#9;" id="el_drGp7C_xc-N"/>
				<polygon points="46.8,-53.4 45.8,-52.8 42.6,-54.6 43.7,-55.2 &#9;&#9;&#9;&#9;" id="el_eHeOAJeAzxs"/>
			</g>
		</g>
	</g>
</g>
<g id="el_9P9GejczEOB_an__TIwnAEZ8" data-animator-group="true" data-animator-type="2"><path d="M34.4,47.4L14.5,35.9c-0.3-0.2-0.3-0.5,0.1-0.8l19.7-11.4c0.4-0.2,1-0.3,1.3-0.1l19.9,11.5&#10;&#9;c0.3,0.2,0.3,0.5-0.1,0.8L35.7,47.3C35.3,47.5,34.7,47.6,34.4,47.4z" id="el_9P9GejczEOB"/></g>
<path d="M34.9,53.3c-0.4,0-0.7-0.1-1-0.2L4.9,36.2c-0.3-0.2-0.4-0.4-0.4-0.7c0-0.3,0.2-0.6,0.6-0.8l28.8-16.6&#10;&#9;c0.6-0.4,1.6-0.4,2.2-0.1l29.1,16.8c0.3,0.2,0.4,0.4,0.4,0.7c0,0.3-0.2,0.6-0.6,0.8L36.1,53C35.8,53.2,35.4,53.3,34.9,53.3z&#10;&#9; M34.2,52.7c0.4,0.2,1.2,0.2,1.7-0.1l28.8-16.6c0.2-0.1,0.4-0.3,0.4-0.4c0-0.1-0.1-0.2-0.2-0.3L35.8,18.4c-0.4-0.2-1.2-0.2-1.7,0.1&#10;&#9;L5.3,35.1c-0.2,0.1-0.4,0.3-0.4,0.4c0,0.1,0.1,0.2,0.2,0.3L34.2,52.7z" id="el_warao9yBzjW"/>
<g id="el_U78gGlhAtH3_an_QU4w2fYB5" data-animator-group="true" data-animator-type="0"><g id="el_U78gGlhAtH3">
	<linearGradient id="SVGID_11_" gradientUnits="userSpaceOnUse" x1="46.8724" y1="16.0537" x2="14.5614" y2="41.9635">
		<stop offset="0" style="stop-color:#BCD5FF"/>
		<stop offset="0.151" style="stop-color:#A3BEFF"/>
		<stop offset="0.3866" style="stop-color:#82A0FF"/>
		<stop offset="0.6124" style="stop-color:#6A8AFF"/>
		<stop offset="0.8221" style="stop-color:#5C7DFF"/>
		<stop offset="1" style="stop-color:#5778FF"/>
	</linearGradient>
	<path d="M55.7,27.4v-3.8l-6.2,0l-13.9-8c-0.3-0.2-0.9-0.2-1.3,0.1l-13.8,8l-6.2,0l0,3.8h0c0,0.1,0.1,0.2,0.2,0.3&#10;&#9;&#9;l19.9,11.5c0.3,0.2,0.9,0.2,1.3-0.1l19.7-11.4C55.6,27.7,55.7,27.5,55.7,27.4z" id="el_AiWGA9VAkct"/>
	
		<linearGradient id="SVGID_12_" gradientUnits="userSpaceOnUse" x1="2.5342" y1="757.2477" x2="-26.8372" y2="780.8004" gradientTransform="matrix(0.866 0.5 -1 0.5774 808.032 -414.544)">
		<stop offset="0" style="stop-color:#C0D6FF"/>
		<stop offset="0.2978" style="stop-color:#C5DBFF"/>
		<stop offset="0.6488" style="stop-color:#D3E9FF"/>
		<stop offset="1" style="stop-color:#E9FFFF"/>
	</linearGradient>
	<path d="M34.4,35.4L14.5,23.9c-0.3-0.2-0.3-0.5,0.1-0.8l19.7-11.4c0.4-0.2,1-0.3,1.3-0.1l19.9,11.5&#10;&#9;&#9;c0.3,0.2,0.3,0.5-0.1,0.8L35.7,35.3C35.3,35.6,34.7,35.6,34.4,35.4z" id="el_izLwpPKD73c"/>
	<path d="M34.5,34.1L16.8,23.9c-0.3-0.2-0.3-0.5,0.1-0.7l17.5-10.1c0.3-0.2,0.9-0.2,1.2,0l17.6,10.2&#10;&#9;&#9;c0.3,0.2,0.3,0.5-0.1,0.7L35.6,34C35.3,34.2,34.8,34.2,34.5,34.1z" id="el_8bv7hFZ7iT4"/>
	<path d="M34.5,33.2l-16.2-9.4c-0.3-0.2-0.2-0.4,0.1-0.6l16-9.3c0.3-0.2,0.8-0.2,1.1,0l16.2,9.4&#10;&#9;&#9;c0.3,0.2,0.2,0.4-0.1,0.6l-16,9.3C35.3,33.3,34.8,33.4,34.5,33.2z" id="el_1lq6gEqRaxg"/>
</g></g>
<g id="el_abbwGp345qU_an_a0DIg8PaV" data-animator-group="true" data-animator-type="0"><g id="el_abbwGp345qU">
	<polygon points="34.6,23 32.7,21.9 33.8,21.3 35.7,22.4 &#9;" id="el_PH8kwBPWNIW"/>
	<polygon points="38.1,22.8 36.3,23.9 35.2,23.3 37.1,22.2 &#9;" id="el_Fuf5C8U8hz1"/>
	<polygon points="34.2,23.2 33.2,23.8 32.1,23.2 33.2,22.6 &#9;" id="el_RQBIZ93aUIK"/>
	<polygon points="37.8,25.3 36.7,25.9 33.8,24.1 34.8,23.5 &#9;" id="el_BYwugJAxnho"/>
</g></g>
</svg>