<svg version="1.1" id="el_gQKXJYlqi" xmlns="http://www.w3.org/2000/svg" xmlns:xlink="http://www.w3.org/1999/xlink" x="0px" y="0px" viewBox="0 0 113 94" style="enable-background:new 0 0 113.7 94.7;" xml:space="preserve"><style>@-webkit-keyframes kf_el_KU1YyDc6OjS_an_k6rZM-b4o{0%{-webkit-transform: translate(19.799999237060547px, 4.086155891418457px) translate(-19.799999237060547px, -4.086155891418457px) translate(0px, 0px);transform: translate(19.799999237060547px, 4.086155891418457px) translate(-19.799999237060547px, -4.086155891418457px) translate(0px, 0px);}33.33%{-webkit-transform: translate(19.799999237060547px, 4.086155891418457px) translate(-19.799999237060547px, -4.086155891418457px) translate(0px, 5px);transform: translate(19.799999237060547px, 4.086155891418457px) translate(-19.799999237060547px, -4.086155891418457px) translate(0px, 5px);}66.67%{-webkit-transform: translate(19.799999237060547px, 4.086155891418457px) translate(-19.799999237060547px, -4.086155891418457px) translate(0px, 0px);transform: translate(19.799999237060547px, 4.086155891418457px) translate(-19.799999237060547px, -4.086155891418457px) translate(0px, 0px);}100%{-webkit-transform: translate(19.799999237060547px, 4.086155891418457px) translate(-19.799999237060547px, -4.086155891418457px) translate(0px, 0px);transform: translate(19.799999237060547px, 4.086155891418457px) translate(-19.799999237060547px, -4.086155891418457px) translate(0px, 0px);}}@keyframes kf_el_KU1YyDc6OjS_an_k6rZM-b4o{0%{-webkit-transform: translate(19.799999237060547px, 4.086155891418457px) translate(-19.799999237060547px, -4.086155891418457px) translate(0px, 0px);transform: translate(19.799999237060547px, 4.086155891418457px) translate(-19.799999237060547px, -4.086155891418457px) translate(0px, 0px);}33.33%{-webkit-transform: translate(19.799999237060547px, 4.086155891418457px) translate(-19.799999237060547px, -4.086155891418457px) translate(0px, 5px);transform: translate(19.799999237060547px, 4.086155891418457px) translate(-19.799999237060547px, -4.086155891418457px) translate(0px, 5px);}66.67%{-webkit-transform: translate(19.799999237060547px, 4.086155891418457px) translate(-19.799999237060547px, -4.086155891418457px) translate(0px, 0px);transform: translate(19.799999237060547px, 4.086155891418457px) translate(-19.799999237060547px, -4.086155891418457px) translate(0px, 0px);}100%{-webkit-transform: translate(19.799999237060547px, 4.086155891418457px) translate(-19.799999237060547px, -4.086155891418457px) translate(0px, 0px);transform: translate(19.799999237060547px, 4.086155891418457px) translate(-19.799999237060547px, -4.086155891418457px) translate(0px, 0px);}}#el_gQKXJYlqi *{-webkit-animation-duration: 3s;animation-duration: 3s;-webkit-animation-iteration-count: infinite;animation-iteration-count: infinite;-webkit-animation-timing-function: cubic-bezier(0, 0, 1, 1);animation-timing-function: cubic-bezier(0, 0, 1, 1);}#el_dMkrbRCwvy{opacity: 0.5;fill: #242993;}#el_Ab5c2TMf06{fill: #42FFFF;}#el_onzmFtocWz{fill: url(#SVGID_1_);}#el_PclINS1C5y{fill: url(#SVGID_2_);}#el_9hV-I7dSKq{fill: url(#SVGID_3_);}#el_MV8OHZhcRF{fill: #242993;}#el_mVkNhkLPM7{fill: #4553C7;}#el_MVfTdu5oyb{fill: #42FFFF;}#el_9A7ZDFSyba{fill: #42FFFF;}#el_I9C32i3qX4{fill: #42FFFF;}#el_tAZuf5zXZP{fill: #42FFFF;}#el_JzmPMRxpAC{opacity: 0.4;fill: #42FFFF;}#el_LkWP1J6uwX4{fill: url(#SVGID_4_);}#el_s64WI-YlTnM{fill: url(#SVGID_5_);}#el_jryqLVl6oOn{fill: #242993;}#el_4g-r0RZfu-V{fill: #4553C7;}#el_BQf1uyMb9YR{fill: #42FFFF;}#el_cFmhST7K1lG{fill: #42FFFF;}#el_vNIwqaOzGWl{fill: #42FFFF;}#el_UFXOfSMPpit{fill: #42FFFF;}#el_I5JOOmdkjd_an_9NvLsnfxV{-webkit-transform: translate(4.2999982833862305px, 4.086155891418457px) translate(-4.2999982833862305px, -4.086155891418457px) translate(0px, 0px);transform: translate(4.2999982833862305px, 4.086155891418457px) translate(-4.2999982833862305px, -4.086155891418457px) translate(0px, 0px);}#el_QF1ISyO99u_an_uHU4hxDpd{-webkit-transform: translate(19.799999237060547px, 19.34535789489746px) translate(-19.799999237060547px, -19.34535789489746px) translate(0px, 0px);transform: translate(19.799999237060547px, 19.34535789489746px) translate(-19.799999237060547px, -19.34535789489746px) translate(0px, 0px);}#el_KU1YyDc6OjS_an_k6rZM-b4o{-webkit-animation-fill-mode: backwards;animation-fill-mode: backwards;-webkit-transform: translate(19.799999237060547px, 4.086155891418457px) translate(-19.799999237060547px, -4.086155891418457px) translate(0px, 0px);transform: translate(19.799999237060547px, 4.086155891418457px) translate(-19.799999237060547px, -4.086155891418457px) translate(0px, 0px);-webkit-animation-name: kf_el_KU1YyDc6OjS_an_k6rZM-b4o;animation-name: kf_el_KU1YyDc6OjS_an_k6rZM-b4o;-webkit-animation-timing-function: cubic-bezier(0, 0, 1, 1);animation-timing-function: cubic-bezier(0, 0, 1, 1);}</style>

<g id="el_I5JOOmdkjd">
	<path d="M56.1,83L20.2,62.3c-0.6-0.4-0.5-1,0.2-1.4l35.5-20.5c0.7-0.4,1.8-0.5,2.4-0.1L94.2,61c0.6,0.4,0.5,1-0.2,1.4&#10;&#9;&#9;L58.5,82.9C57.8,83.3,56.7,83.3,56.1,83z" id="el_dMkrbRCwvy"/>
	<path d="M57.1,92.3c-0.6,0-1.2-0.1-1.7-0.4l-50.3-29c-0.5-0.3-0.8-0.7-0.8-1.2c0-0.5,0.4-1.1,1-1.4l49.8-28.7&#10;&#9;&#9;c1.1-0.6,2.8-0.7,3.7-0.1l50.3,29c0.5,0.3,0.8,0.7,0.8,1.2c0,0.5-0.4,1.1-1,1.4L59.2,91.8C58.6,92.1,57.8,92.3,57.1,92.3z&#10;&#9;&#9; M57.3,31.8c-0.6,0-1.2,0.1-1.7,0.4L5.8,60.9c-0.4,0.2-0.6,0.5-0.6,0.8c0,0.2,0.2,0.4,0.4,0.5l50.3,29c0.7,0.4,2.1,0.4,3-0.1&#10;&#9;&#9;l49.8-28.7c0.4-0.2,0.6-0.5,0.6-0.8c0-0.2-0.2-0.4-0.4-0.5l-50.3-29C58.2,31.9,57.8,31.8,57.3,31.8z" id="el_Ab5c2TMf06"/>
	<g id="el_QF1ISyO99u">
		<linearGradient id="SVGID_1_" gradientUnits="userSpaceOnUse" x1="78.615" y1="27.4565" x2="20.3498" y2="74.1786">
			<stop offset="0" style="stop-color:#BCD5FF"/>
			<stop offset="0.151" style="stop-color:#A3BEFF"/>
			<stop offset="0.3866" style="stop-color:#82A0FF"/>
			<stop offset="0.6124" style="stop-color:#6A8AFF"/>
			<stop offset="0.8221" style="stop-color:#5C7DFF"/>
			<stop offset="1" style="stop-color:#5778FF"/>
		</linearGradient>
		<path d="M94.6,47.9V41l-11.3,0l-25-14.4c-0.6-0.4-1.7-0.3-2.4,0.1L31,41l-11.2,0l0,6.9h0c0,0.2,0.1,0.4,0.4,0.6&#10;&#9;&#9;&#9;l35.9,20.7c0.6,0.4,1.7,0.3,2.4-0.1L94,48.7C94.4,48.4,94.6,48.2,94.6,47.9z" id="el_onzmFtocWz"/>
		
			<linearGradient id="SVGID_2_" gradientUnits="userSpaceOnUse" x1="-20.406" y1="701.5369" x2="-73.3704" y2="744.0084" gradientTransform="matrix(0.866 0.5 -1 0.5774 808.8351 -353.1545)">
			<stop offset="0" style="stop-color:#C0D6FF"/>
			<stop offset="0.2978" style="stop-color:#C5DBFF"/>
			<stop offset="0.6488" style="stop-color:#D3E9FF"/>
			<stop offset="1" style="stop-color:#E9FFFF"/>
		</linearGradient>
		<path d="M56.1,62.3L20.2,41.6c-0.6-0.4-0.5-1,0.2-1.4l35.5-20.5c0.7-0.4,1.8-0.5,2.4-0.1l35.9,20.7&#10;&#9;&#9;&#9;c0.6,0.4,0.5,1-0.2,1.4L58.5,62.2C57.8,62.6,56.7,62.7,56.1,62.3z" id="el_PclINS1C5y"/>
		
			<linearGradient id="SVGID_3_" gradientUnits="userSpaceOnUse" x1="-20.406" y1="701.5369" x2="-73.3704" y2="744.0084" gradientTransform="matrix(0.866 0.5 -1 0.5774 808.8351 -353.1545)">
			<stop offset="0" style="stop-color:#C0D6FF"/>
			<stop offset="0.2978" style="stop-color:#C5DBFF"/>
			<stop offset="0.6488" style="stop-color:#D3E9FF"/>
			<stop offset="1" style="stop-color:#E9FFFF"/>
		</linearGradient>
		<path d="M56.1,62.3L20.2,41.6c-0.6-0.4-0.5-1,0.2-1.4l35.5-20.5c0.7-0.4,1.8-0.5,2.4-0.1l35.9,20.7&#10;&#9;&#9;&#9;c0.6,0.4,0.5,1-0.2,1.4L58.5,62.2C57.8,62.6,56.7,62.7,56.1,62.3z" id="el_9hV-I7dSKq"/>
		<path d="M56.2,59.9L24.4,41.6c-0.5-0.3-0.5-0.9,0.2-1.2l31.5-18.2c0.6-0.4,1.6-0.4,2.1-0.1L90,40.4&#10;&#9;&#9;&#9;c0.5,0.3,0.5,0.9-0.2,1.2L58.3,59.8C57.7,60.2,56.8,60.2,56.2,59.9z" id="el_MV8OHZhcRF"/>
		<path d="M56.3,58.4L27.1,41.5c-0.5-0.3-0.4-0.8,0.1-1.1l28.9-16.7c0.6-0.3,1.4-0.4,1.9-0.1l29.2,16.9&#10;&#9;&#9;&#9;c0.5,0.3,0.4,0.8-0.1,1.1L58.3,58.3C57.7,58.6,56.8,58.7,56.3,58.4z" id="el_mVkNhkLPM7"/>
		<g id="el_aPBTJJoMcN">
			<polygon points="56.5,39.9 53.1,37.9 55,36.8 58.4,38.8 &#9;&#9;&#9;" id="el_MVfTdu5oyb"/>
			<polygon points="62.9,39.6 59.5,41.6 57.6,40.5 61,38.5 &#9;&#9;&#9;" id="el_9A7ZDFSyba"/>
			<polygon points="55.8,40.3 53.9,41.4 52,40.3 53.9,39.3 &#9;&#9;&#9;" id="el_I9C32i3qX4"/>
			<polygon points="62.2,44.1 60.3,45.1 55,42 56.8,41 &#9;&#9;&#9;" id="el_tAZuf5zXZP"/>
		</g>
	</g>
	<path d="M94.6,31.7l-15.3,0.1l-21-12.1c-0.6-0.4-1.7-0.3-2.4,0.1L34.6,32l-14.8,0.1v9l0,0c0,0.2,0.2,0.4,0.4,0.5&#10;&#9;&#9;l35.9,20.7c0.6,0.4,1.7,0.3,2.4-0.1L94,41.7c0.3-0.2,0.5-0.4,0.6-0.6l0,0V31.7z" id="el_JzmPMRxpAC"/>
	<g id="el_KU1YyDc6OjS_an_k6rZM-b4o" data-animator-group="true" data-animator-type="0"><g id="el_KU1YyDc6OjS">
		<linearGradient id="SVGID_4_" gradientUnits="userSpaceOnUse" x1="78.615" y1="12.1273" x2="20.3498" y2="58.8494">
			<stop offset="0" style="stop-color:#BCD5FF"/>
			<stop offset="0.151" style="stop-color:#A3BEFF"/>
			<stop offset="0.3866" style="stop-color:#82A0FF"/>
			<stop offset="0.6124" style="stop-color:#6A8AFF"/>
			<stop offset="0.8221" style="stop-color:#5C7DFF"/>
			<stop offset="1" style="stop-color:#5778FF"/>
		</linearGradient>
		<path d="M94.6,32.6v-6.9l-11.3,0l-25-14.4c-0.6-0.4-1.7-0.3-2.4,0.1L31,25.7l-11.2,0l0,6.9h0c0,0.2,0.1,0.4,0.4,0.6&#10;&#9;&#9;&#9;l35.9,20.7c0.6,0.4,1.7,0.3,2.4-0.1L94,33.3C94.4,33.1,94.6,32.8,94.6,32.6z" id="el_LkWP1J6uwX4"/>
		
			<linearGradient id="SVGID_5_" gradientUnits="userSpaceOnUse" x1="-35.7347" y1="688.2621" x2="-88.6992" y2="730.7336" gradientTransform="matrix(0.866 0.5 -1 0.5774 808.8351 -353.1545)">
			<stop offset="0" style="stop-color:#C0D6FF"/>
			<stop offset="0.2978" style="stop-color:#C5DBFF"/>
			<stop offset="0.6488" style="stop-color:#D3E9FF"/>
			<stop offset="1" style="stop-color:#E9FFFF"/>
		</linearGradient>
		<path d="M56.1,47L20.2,26.3c-0.6-0.4-0.5-1,0.2-1.4L55.9,4.4C56.6,4,57.7,4,58.3,4.3L94.2,25c0.6,0.4,0.5,1-0.2,1.4&#10;&#9;&#9;&#9;L58.5,46.9C57.8,47.3,56.7,47.4,56.1,47z" id="el_s64WI-YlTnM"/>
		<path d="M56.2,44.6L24.4,26.2c-0.5-0.3-0.5-0.9,0.2-1.2L56.1,6.8c0.6-0.4,1.6-0.4,2.1-0.1L90,25.1&#10;&#9;&#9;&#9;c0.5,0.3,0.5,0.9-0.2,1.2L58.3,44.5C57.7,44.9,56.8,44.9,56.2,44.6z" id="el_jryqLVl6oOn"/>
		<path d="M56.3,43L27.1,26.2c-0.5-0.3-0.4-0.8,0.1-1.1L56.2,8.4C56.7,8,57.6,8,58.1,8.3l29.2,16.9&#10;&#9;&#9;&#9;c0.5,0.3,0.4,0.8-0.1,1.1L58.3,43C57.7,43.3,56.8,43.3,56.3,43z" id="el_4g-r0RZfu-V"/>
		<g id="el_6sMKsP-pfXi">
			<polygon points="56.5,24.6 53.1,22.6 55,21.5 58.4,23.5 &#9;&#9;&#9;" id="el_BQf1uyMb9YR"/>
			<polygon points="62.9,24.3 59.5,26.3 57.6,25.2 61,23.2 &#9;&#9;&#9;" id="el_cFmhST7K1lG"/>
			<polygon points="55.8,25 53.9,26.1 52,25 53.9,23.9 &#9;&#9;&#9;" id="el_vNIwqaOzGWl"/>
			<polygon points="62.2,28.7 60.3,29.8 55,26.7 56.8,25.6 &#9;&#9;&#9;" id="el_UFXOfSMPpit"/>
		</g>
	</g></g>
</g>
</svg>