<svg xmlns="http://www.w3.org/2000/svg" xmlns:xlink="http://www.w3.org/1999/xlink" viewBox="0 0 500 500" enable-background="new 0 0 500 500"><style type="text/css">.st0{fill:url(#SVGID_1_);} .st1{opacity:0.3;} .st2{fill:#FFFFFF;} .st3{opacity:0.2;fill:#33ADFF;} .st4{opacity:0.31;fill:url(#SVGID_2_);} .st5{fill:#4553C7;} .st6{opacity:0.5;fill:#242993;} .st7{fill:url(#SVGID_3_);} .st8{fill:url(#SVGID_4_);} .st9{fill:#242993;} .st10{fill:#42FFFF;} .st11{fill:url(#SVGID_5_);} .st12{fill:url(#SVGID_6_);} .st13{fill:url(#SVGID_7_);} .st14{opacity:0.51;} .st15{fill:#5778FF;} .st16{fill:#BCD5FF;} .st17{fill:#E9FFFF;} .st18{opacity:0.11;} .st19{opacity:0.6;fill:#242993;} .st20{fill:url(#SVGID_10_);} .st21{fill:url(#SVGID_11_);} .st22{opacity:0.96;fill:url(#SVGID_12_);} .st23{opacity:0.8;fill:#4553C7;} .st24{fill:url(#SVGID_13_);} .st25{fill:url(#SVGID_14_);} .st26{fill:url(#SVGID_15_);} .st27{fill:url(#SVGID_16_);} .st28{fill:#162184;} .st29{fill:#485DCE;} .st30{fill:#FCE8EE;} .st31{fill:#F0FFFF;} .st32{fill:#AA9AAC;} .st33{fill:#C4E3FF;} .st34{fill:#E2C8CF;} .st35{fill:#1B4263;} .st36{fill:#938496;} .st37{fill:url(#SVGID_17_);} .st38{opacity:0.32;} .st39{fill:#DD821F;} .st40{fill:#FFD85A;} .st41{fill:#F9BF30;} .st42{fill:#F2B42A;}</style><linearGradient id="SVGID_1_" x1="520.384" x2="-289.263" y1="10.975" y2="660.22" gradientUnits="userSpaceOnUse"><stop offset="0" stop-color="#4482CC"/><stop offset=".037" stop-color="#447ECC"/><stop offset=".468" stop-color="#4553C7"/><stop offset=".596" stop-color="#3B44BC"/><stop offset=".844" stop-color="#2B2DAB"/><stop offset="1" stop-color="#2525A5"/></linearGradient><path d="M-126.8-11.8h700v522.2h-700z" class="st0"/><g class="st1"><path d="M461.5 255c-.1 0-.2 0-.3-.1L339 184.3c-2.3-1.3-3.5-3.1-3.5-5s1.2-3.7 3.5-5l79.6-46c1.8-1.1 2.9-2.4 2.9-3.9s-1-2.8-2.9-3.9L283.8 42.8c-4.1-2.3-10.7-2.3-14.7 0l-45.2 26.1c-1.8 1.1-2.9 2.4-2.9 3.9 0 1.4 1 2.8 2.9 3.9l67.2 38.8c2.3 1.3 3.5 3.1 3.5 5s-1.2 3.7-3.5 5l-100.5 58c-4.4 2.5-11.6 2.5-16 0L107.8 145c-.3-.2-.4-.6-.2-.9.2-.3.6-.4.9-.2l66.7 38.5c4.1 2.3 10.7 2.3 14.7 0l100.5-58c1.8-1.1 2.9-2.4 2.9-3.9 0-1.4-1-2.8-2.9-3.9l-67.2-38.8c-2.3-1.3-3.5-3.1-3.5-5s1.2-3.7 3.5-5l45.2-26.1c4.4-2.5 11.6-2.5 16 0l134.8 77.8c2.3 1.3 3.5 3.1 3.5 5s-1.2 3.7-3.5 5l-79.6 46c-1.8 1.1-2.9 2.4-2.9 3.9s1 2.8 2.9 3.9l122.2 70.6c.3.2.4.6.2.9-.1.1-.3.2-.5.2zM432.4 202.1c-.2 0-.4-.1-.5-.3-.2-.3-.1-.7.2-.9l118.7-68.5c2.5-1.5 4-3.4 4-5.4s-1.4-3.9-4-5.4L436.9 55.9c-5.5-3.2-14.5-3.2-20 0l-25.4 14.7c-.3.2-.7.1-.9-.2-.2-.3-.1-.7.2-.9l25.4-14.7c5.8-3.4 15.4-3.4 21.2 0l113.8 65.7c3 1.7 4.6 4 4.6 6.5s-1.6 4.8-4.6 6.5L432.7 202c-.1.1-.2.1-.3.1zM149.8 391.6c-3.3 0-6.5-.7-9-2.1l-162.6-93.9c-2.5-1.5-3.9-3.4-3.9-5.6s1.4-4.1 3.9-5.6l55.5-32c5-2.9 13-2.9 18 0l102.6 59.2c4.6 2.7 12.1 2.7 16.7 0l138.4-79.9c2.1-1.2 3.3-2.8 3.3-4.5 0-1.7-1.2-3.3-3.3-4.5l-40.9-23.6c-4.6-2.7-12.1-2.7-16.7 0l-80.1 46.3c-5 2.9-13 2.9-18 0l-112-64.5c-4.6-2.7-12.1-2.7-16.7 0l-119.5 69c-.3.2-.7.1-.9-.2-.2-.3-.1-.7.2-.9l119.5-69c5-2.9 13-2.9 18 0l111.9 64.6c4.6 2.7 12.1 2.7 16.7 0l80.1-46.3c5-2.9 13-2.9 18 0l40.9 23.6c2.5 1.5 3.9 3.4 3.9 5.6 0 2.1-1.4 4.1-3.9 5.6l-138.4 79.9c-5 2.9-13 2.9-18 0L51.1 253.6c-4.6-2.7-12.1-2.7-16.7 0l-55.5 32c-2.1 1.2-3.3 2.8-3.3 4.5 0 1.7 1.2 3.3 3.3 4.5l162.6 93.9c4.6 2.7 12.1 2.7 16.7 0L368.6 267c.3-.2.7-.1.9.2.2.3.1.7-.2.9L158.8 389.5c-2.5 1.4-5.7 2.1-9 2.1zM305.4 345.2c-.1 0-.2 0-.3-.1l-35-20.2c-.3-.2-.4-.6-.2-.9.2-.3.6-.4.9-.2l35 20.2c.3.2.4.6.2.9-.2.1-.4.3-.6.3zM209.8 123.1c-.2 0-.4-.1-.5-.3-.2-.3-.1-.7.2-.9l46-26.6c.3-.2.7-.1.9.2.2.3.1.7-.2.9l-46 26.6c-.2.1-.3.1-.4.1zM554.2 201.5c-.1 0-.2 0-.3-.1l-60.4-34.9c-.3-.2-.4-.6-.2-.9.2-.3.6-.4.9-.2l60.4 34.9c.3.2.4.6.2.9-.2.2-.4.3-.6.3zM210.3 134.8h-20.7c-.3 0-.6-.3-.6-.6v-12c0-.2.1-.3.2-.4.1-.1.3-.2.4-.2h20.7c.3 0 .6.3.6.6v12c0 .2-.1.3-.2.4-.1.2-.3.2-.4.2zm-20.1-1.2h19.5v-10.7h-19.5v10.7zM458.1 108.6h-20.7c-.3 0-.6-.3-.6-.6V96c0-.3.3-.6.6-.6h20.7c.3 0 .6.3.6.6v12c.1.3-.2.6-.6.6zm-20.1-1.2h19.5V96.6H438v10.8zM154.8 363.9c-4 0-8-.9-11.1-2.6-3.1-1.8-4.8-4.2-4.8-6.8 0-2.6 1.7-5 4.8-6.8 6.1-3.5 16.1-3.5 22.2 0 3.1 1.8 4.8 4.2 4.8 6.8 0 2.6-1.7 5-4.8 6.8-3.1 1.7-7.1 2.6-11.1 2.6zm0-17.6c-3.8 0-7.6.8-10.5 2.5-2.7 1.5-4.2 3.6-4.2 5.7s1.5 4.1 4.2 5.7c5.8 3.3 15.2 3.3 20.9 0 2.7-1.5 4.2-3.6 4.2-5.7s-1.5-4.1-4.2-5.7c-2.8-1.7-6.6-2.5-10.4-2.5zM116 341.5c-4 0-8-.9-11.1-2.6-3.1-1.8-4.8-4.2-4.8-6.8 0-2.6 1.7-5 4.8-6.8 6.1-3.5 16.1-3.5 22.2 0 3.1 1.8 4.8 4.2 4.8 6.8 0 2.6-1.7 5-4.8 6.8-3 1.7-7 2.6-11.1 2.6zm0-17.6c-3.8 0-7.6.8-10.5 2.5-2.7 1.5-4.2 3.6-4.2 5.7s1.5 4.1 4.2 5.7c5.8 3.3 15.2 3.3 20.9 0 2.7-1.5 4.2-3.6 4.2-5.7s-1.5-4.1-4.2-5.7c-2.8-1.7-6.6-2.5-10.4-2.5zM77.3 319.1c-4 0-8-.9-11.1-2.6-3.1-1.8-4.8-4.2-4.8-6.8 0-2.6 1.7-5 4.8-6.8 6.1-3.5 16.1-3.5 22.2 0 3.1 1.8 4.8 4.2 4.8 6.8 0 2.6-1.7 5-4.8 6.8-3.1 1.7-7.1 2.6-11.1 2.6zm0-17.6c-3.8 0-7.6.8-10.5 2.5-2.7 1.5-4.2 3.6-4.2 5.7s1.5 4.1 4.2 5.7c5.8 3.3 15.2 3.3 20.9 0 2.7-1.5 4.2-3.6 4.2-5.7s-1.5-4.1-4.2-5.7c-2.8-1.6-6.6-2.5-10.4-2.5zM38.5 296.8c-4 0-8-.9-11.1-2.6-3.1-1.8-4.8-4.2-4.8-6.8 0-2.6 1.7-5 4.8-6.8 6.1-3.5 16.1-3.5 22.2 0 3.1 1.8 4.8 4.2 4.8 6.8 0 2.6-1.7 5-4.8 6.8-3 1.7-7 2.6-11.1 2.6zm0-17.6c-3.8 0-7.6.8-10.5 2.5-2.7 1.5-4.2 3.6-4.2 5.7s1.5 4.1 4.2 5.7c5.8 3.3 15.2 3.3 20.9 0 2.7-1.5 4.2-3.6 4.2-5.7s-1.5-4.1-4.2-5.7c-2.8-1.7-6.6-2.5-10.4-2.5zM49.3 281.7c-.2 0-.4-.1-.5-.3-.2-.3-.1-.7.2-.9l25.3-14.6c.3-.2.7-.1.9.2.2.3.1.7-.2.9l-25.3 14.6c-.2.1-.3.1-.4.1zM188.2 372.4c-.1 0-.2 0-.3-.1l-21-12.3c-.3-.2-.4-.6-.2-.9.2-.3.6-.4.9-.2l21 12.3c.3.2.4.6.2.9-.1.2-.3.3-.6.3zM326.1 357.1h-20.7c-.3 0-.6-.3-.6-.6v-12c0-.2.1-.3.2-.4.1-.1.3-.2.4-.2h20.7c.3 0 .6.3.6.6v12c0 .3-.2.6-.6.6zm-20.1-1.2h19.5v-10.7H306v10.7z" class="st2"/></g><path d="M-126.8 313.8L407.6.2h-534.4z" class="st3"/><linearGradient id="SVGID_2_" x1="-126.76" x2="419.023" y1="160.001" y2="160.001" gradientUnits="userSpaceOnUse"><stop offset="0" stop-color="#2525A5"/><stop offset="1" stop-color="#2525A5"/></linearGradient><path d="M-126.8 319.8L419 .2h-11.4l-534.4 313.6z" class="st4"/><path d="M57.6 49.2H25.5c-3.7 0-6.8-3-6.8-6.8 0-3.7 3-6.8 6.8-6.8h32.1c3.7 0 6.8 3 6.8 6.8s-3.1 6.8-6.8 6.8z" class="st5"/><path d="M232.4 390.9l-90.5-52.2c-1.7-1-1.5-2.7.5-3.8l220.4-127.2 63.5 74.9L239 390.7c-1.9 1.1-4.9 1.2-6.6.2zM501.2 75.9l-41.8-24.1c-.9-.5-.8-1.4.3-2l12.3-7.1 45.1 26-12.3 7.1c-1.1.6-2.7.6-3.6.1z" class="st6"/><linearGradient id="SVGID_3_" x1="541.437" x2="471.259" y1="18.411" y2="74.685" gradientUnits="userSpaceOnUse"><stop offset="0" stop-color="#BCD5FF"/><stop offset=".151" stop-color="#A3BEFF"/><stop offset=".387" stop-color="#82A0FF"/><stop offset=".612" stop-color="#6A8AFF"/><stop offset=".822" stop-color="#5C7DFF"/><stop offset="1" stop-color="#5778FF"/></linearGradient><path d="M560.7 43v-8.3h-13.6L517 17.3c-.7-.4-2-.4-2.9.1l-30 17.3h-13.5v8.4c0 .3.2.5.5.7l43.2 24.9c.7.4 2 .4 2.9-.1L560 43.9c.4-.2.7-.5.7-.9z" class="st7"/><linearGradient id="SVGID_4_" x1="9.081" x2="-54.712" y1="308.443" y2="359.598" gradientUnits="userSpaceOnUse" gradientTransform="matrix(.866 .5 -1 .577 855.278 -147.057)"><stop offset="0" stop-color="#C0D6FF"/><stop offset=".298" stop-color="#C5DBFF"/><stop offset=".649" stop-color="#D3E9FF"/><stop offset="1" stop-color="#E9FFFF"/></linearGradient><path d="M514.3 60.4l-43.2-24.9c-.7-.4-.6-1.2.2-1.7l42.8-24.7c.9-.5 2.1-.5 2.9-.1l43.2 24.9c.7.4.6 1.2-.2 1.7l-42.8 24.7c-.9.5-2.1.5-2.9.1z" class="st8"/><path d="M514.5 57.5l-38.3-22.1c-.7-.4-.6-1 .2-1.5L514.3 12c.8-.4 1.9-.5 2.6-.1L555.1 34c.7.4.6 1-.2 1.5L517 57.4c-.7.4-1.9.5-2.5.1z" class="st9"/><path d="M514.6 55.7l-35.2-20.3c-.6-.3-.5-1 .2-1.4l34.8-20.1c.7-.4 1.7-.4 2.3-.1l35.2 20.3c.6.3.5 1-.2 1.4l-34.8 20.1c-.7.4-1.7.4-2.3.1z" class="st5"/><path d="M514.8 33.4l-4.1-2.4 2.3-1.3 4.1 2.4zM522.5 33.1l-4.1 2.3-2.3-1.3 4.1-2.3zM513.9 33.9l-2.2 1.3-2.3-1.3 2.3-1.3zM521.7 38.4l-2.3 1.3-6.5-3.7 2.3-1.3z" class="st10"/><linearGradient id="SVGID_5_" x1="31.337" x2="31.337" y1="283.663" y2="10.503" gradientUnits="userSpaceOnUse" gradientTransform="matrix(-1 0 0 1 414.324 0)"><stop offset="0" stop-color="#5778FF"/><stop offset=".178" stop-color="#5C7DFF"/><stop offset=".388" stop-color="#6A8AFF"/><stop offset=".613" stop-color="#82A0FF"/><stop offset=".849" stop-color="#A3BEFF"/><stop offset="1" stop-color="#BCD5FF"/></linearGradient><path d="M330.1 16.7l10.6-6.1c.4-.2 1-.2 1.6.1l91.2 52.6c1.4.8 2.5 2.9 2.5 4.7v207.4c0 1-.3 1.7-.9 2l-10.6 6.1-.2-11.5-82-47.3c-1.4-.8-2.5-2.9-2.5-4.7V22.2c-.2.7-.4 1.2-.4 1.2-.1 0-9.3-6.7-9.3-6.7z" class="st11"/><linearGradient id="SVGID_6_" x1="-5.651" x2="-5.651" y1="83.315" y2="63.746" gradientUnits="userSpaceOnUse" gradientTransform="matrix(-1 0 0 1 414.324 0)"><stop offset="0" stop-color="#C0D6FF"/><stop offset=".298" stop-color="#C5DBFF"/><stop offset=".649" stop-color="#D3E9FF"/><stop offset="1" stop-color="#E9FFFF"/></linearGradient><path d="M435.8 67.4l-27.5 15.9-4.2-2.4 29.7-17.2c1 .8 1.8 2.3 2 3.7z" class="st12"/><linearGradient id="SVGID_7_" x1="66.275" x2="66.275" y1="482.478" y2="297.139" gradientUnits="userSpaceOnUse" gradientTransform="matrix(-.866 -.5 0 1.155 434.7 -266.802)"><stop offset="0" stop-color="#C0D6FF"/><stop offset=".298" stop-color="#C5DBFF"/><stop offset=".649" stop-color="#D3E9FF"/><stop offset="1" stop-color="#E9FFFF"/></linearGradient><path d="M331.7 230.9l91.2 52.6c1.4.8 2.5 0 2.5-1.9V74.2c0-1.8-1.1-4-2.5-4.7l-91.2-52.6c-1.4-.8-2.5 0-2.5 1.9v207.4c0 1.7 1.1 3.9 2.5 4.7z" class="st13"/><path d="M329.2 214.8l96.2 55.5V85.6l-96.2-55.5zM329.2 214.8l96.2 55.5V85.6l-96.2-55.5z" class="st9"/><path d="M329.2 208.3l96.2 55.5V91.5L329.2 36z" class="st5"/><path d="M369.8 48.2l17.4 10.1c.5.3.9.4 1.1-.1.1-.2.1-.4.1-.6 0-.9-.6-2-1.2-2.3l-17.6-10.1c-.1 0-.1-.1-.2-.1-.6.2-.6.3-.6 1.1l.1.2c0 .8.2 1.4.9 1.8z" class="st15"/><path d="M369.5 45c-.1.2-.1.4-.1.6 0 .9.6 2 1.2 2.3L388.2 58c.1 0 .1 0 .2.1-.2.5-.6.6-1.1.3l-17.6-10.1c-.7-.4-1.2-1.4-1.2-2.3-.1-.8.4-1.2 1-1z" class="st16"/><path d="M431 91.4l.2-.1c.3-.2.6-.2.8-.1l.7.4h-.4c.1.2.1.4.1.6v12c0 1-.6 2.1-1.3 2.5l-.1.3c-.1.1-.2.1-.3.1l.2.4-.8-.5c-.3-.2-.5-.5-.5-1.1V94c.1-1 .6-2.1 1.4-2.6z" class="st17"/><path d="M431.7 107.4l.2-.1c.7-.4 1.3-1.6 1.3-2.5v-12c0-1-.6-1.4-1.3-1l-.2.1c-.7.4-1.3 1.6-1.3 2.5v12c0 1 .6 1.5 1.3 1z" class="st16"/><path d="M431 109.8l.2-.1c.3-.2.6-.2.8-.1l.7.4h-.4c.1.2.1.4.1.6v12c0 1-.6 2.1-1.3 2.5l-.2.1c-.1.1-.2.1-.3.1l.2.4-.8-.5c-.3-.2-.5-.5-.5-1.1v-12c.2-.8.7-1.9 1.5-2.3z" class="st17"/><path d="M431.7 125.8l.2-.1c.7-.4 1.3-1.6 1.3-2.5v-12c0-1-.6-1.4-1.3-1l-.2.1c-.7.4-1.3 1.6-1.3 2.5v12c0 .9.6 1.4 1.3 1z" class="st16"/><g class="st18"><defs><path id="SVGID_8_" d="M329.2 208.3l96.2 55.5V91.5L329.2 36z" class="st18"/></defs><clipPath id="SVGID_9_"><use xlink:href="#SVGID_8_" overflow="visible"/></clipPath></g><path d="M329.2 226.1V109.2c3.5-9.8 10.6-19.3 18.8-24l64.1 37c-11.7 6.8-21.2 23.2-21.2 36.7v102.4c0 1.2-.1 2.3-.3 3.5l-59-34c-1.3-.7-2.4-2.9-2.4-4.7z" class="st19"/><linearGradient id="SVGID_10_" x1="11.5" x2="54.748" y1="145.87" y2="67.996" gradientUnits="userSpaceOnUse" gradientTransform="matrix(-1 0 0 1 414.324 0)"><stop offset="0" stop-color="#5778FF"/><stop offset=".04" stop-color="#5C7DFF"/><stop offset=".087" stop-color="#6A8AFF"/><stop offset=".137" stop-color="#82A0FF"/><stop offset=".19" stop-color="#A3BEFF"/><stop offset=".224" stop-color="#BCD5FF"/></linearGradient><path d="M329.9 72.3l6.5-3.8c.1-.1.2-.1.3 0l81.7 47.2c.3.2.5.6.5.9V132c0 .2-.1.3-.1.4l-6.6 3.8-.1-7.5-75.4-43.5c-.3-.2-.5-.6-.5-.9V79l-6.3-6.7z" class="st20"/><linearGradient id="SVGID_11_" x1="64.63" x2="35.844" y1="146.147" y2="89.873" gradientUnits="userSpaceOnUse" gradientTransform="matrix(-1 0 0 1 414.324 0)"><stop offset="0" stop-color="#C0D6FF"/><stop offset=".298" stop-color="#C5DBFF"/><stop offset=".649" stop-color="#D3E9FF"/><stop offset="1" stop-color="#E9FFFF"/></linearGradient><path d="M330.2 89.1l81.7 47.2c.3.2.5 0 .5-.4v-15.4c0-.4-.2-.8-.5-.9l-81.7-47.2c-.3-.2-.5 0-.5.4v15.4c0 .3.3.7.5.9z" class="st21"/><path d="M341.5 86l63.6 37.4c-2 1.7-3.8 3.6-5.5 5.8l-64.1-37c1.8-2.4 3.9-4.5 6-6.2z" class="st19"/><path d="M332.6 84.4l77.1 44.5c.2.1.3 0 .3-.2v-3.9c0-.2-.1-.5-.3-.6l-77.1-44.5c-.2-.1-.3 0-.3.2v3.9c-.1.3.1.5.3.6z" class="st9"/><path d="M332.6 79.7l1.6.9v2.1c0 .2.1.5.3.6l75.5 43.6v1.8c0 .2-.1.4-.3.2l-77.1-44.5c-.2-.1-.3-.4-.3-.6v-3.9c-.1-.2.1-.3.3-.2z" class="st5"/><linearGradient id="SVGID_12_" x1="106.543" x2="16.339" y1="264.725" y2="104.891" gradientUnits="userSpaceOnUse" gradientTransform="matrix(-1 0 0 1 414.324 0)"><stop offset="0" stop-color="#C0D6FF"/><stop offset=".12" stop-color="#D0E6FF"/><stop offset=".263" stop-color="#E9FFFF"/><stop offset=".514" stop-color="#C0D6FF"/><stop offset=".624" stop-color="#D0E6FF"/><stop offset=".755" stop-color="#E9FFFF"/><stop offset="1" stop-color="#C0D6FF"/></linearGradient><path d="M364.3 291l-64.1-37c10-5.8 18-19.7 18-31.3V120.4c0-13.5 9.5-30 21.2-36.7l64.1 37c-11.7 6.8-21.2 23.2-21.2 36.7v102.4c.1 11.5-8 25.5-18 31.2z" class="st22"/><path d="M339.5 83.7l64.1 37c-.5.3-1 .6-1.5 1l-64.1-37c.4-.4.9-.7 1.5-1z" class="st23"/><path d="M411.7 161.3l2.5 1.4V161l-2.5-1.4zM411.7 172.7l2.5 1.5v-9.9l-2.5-1.5zM411.7 178.2l2.5 1.5v-4l-2.5-1.4zM411.7 183.9l2.5 1.5v-4l-2.5-1.4zM407.9 164.6l2.5 1.4v-3.9l-2.5-1.5zM407.9 172.1l2.5 1.5v-5.8l-2.5-1.5zM407.9 179l2.5 1.5v-5l-2.5-1.4zM411.7 189.6l2.5 1.4v-3.9l-2.5-1.5zM407.9 159.1l2.5 1.4v-1.6l-2.5-1.5zM409.8 194l4.4 2.5v-1.6l-4.4-2.5z" class="st10"/><path d="M23.3 319.7l-41.8-24.1c-.9-.5-.8-1.4.3-2l12.3-7.1 45.1 26-12.3 7.1c-1.1.5-2.7.6-3.6.1z" class="st6"/><linearGradient id="SVGID_13_" x1="63.541" x2="-6.636" y1="262.164" y2="318.439" gradientUnits="userSpaceOnUse"><stop offset="0" stop-color="#BCD5FF"/><stop offset=".151" stop-color="#A3BEFF"/><stop offset=".387" stop-color="#82A0FF"/><stop offset=".612" stop-color="#6A8AFF"/><stop offset=".822" stop-color="#5C7DFF"/><stop offset="1" stop-color="#5778FF"/></linearGradient><path d="M82.8 286.8v-8.3H69.2l-30.1-17.4c-.7-.4-2-.4-2.9.1l-30 17.3H-7.3v8.4c0 .3.2.5.5.7l43.2 24.9c.7.4 2 .4 2.9-.1l42.8-24.7c.4-.3.7-.6.7-.9z" class="st24"/><linearGradient id="SVGID_14_" x1="-23.102" x2="-86.895" y1="758.468" y2="809.623" gradientUnits="userSpaceOnUse" gradientTransform="matrix(.866 .5 -1 .577 855.278 -147.057)"><stop offset="0" stop-color="#C0D6FF"/><stop offset=".298" stop-color="#C5DBFF"/><stop offset=".649" stop-color="#D3E9FF"/><stop offset="1" stop-color="#E9FFFF"/></linearGradient><path d="M36.4 304.2l-43.2-24.9c-.7-.4-.6-1.2.2-1.7l42.8-24.7c.9-.5 2.1-.5 2.9-.1l43.2 24.9c.7.4.6 1.2-.2 1.7l-42.8 24.7c-.9.4-2.1.5-2.9.1z" class="st25"/><path d="M36.6 301.3l-38.3-22.1c-.7-.4-.6-1 .2-1.5l37.9-21.9c.8-.4 1.9-.5 2.6-.1l38.3 22.1c.7.4.6 1-.2 1.5l-37.9 21.9c-.8.4-2 .4-2.6.1z" class="st9"/><path d="M36.7 299.4L1.5 279.1c-.6-.3-.5-1 .2-1.4l34.8-20.1c.7-.4 1.7-.4 2.3-.1L74 277.8c.6.3.5 1-.2 1.4L39 299.3c-.7.4-1.7.5-2.3.1z" class="st5"/><path d="M36.9 277.1l-4.1-2.3 2.3-1.3 4.1 2.3zM44.6 276.8l-4.1 2.4-2.3-1.3 4.1-2.4zM36 277.7l-2.2 1.3-2.3-1.3 2.3-1.3zM43.8 282.2l-2.3 1.3-6.4-3.8 2.2-1.3z" class="st10"/><path d="M511.4 224.7l-41.8-24.1c-.9-.5-.8-1.4.3-2l12.3-7.1 45.1 26-12.3 7.1c-1.1.5-2.7.6-3.6.1z" class="st6"/><linearGradient id="SVGID_15_" x1="551.575" x2="481.397" y1="167.167" y2="223.442" gradientUnits="userSpaceOnUse"><stop offset="0" stop-color="#BCD5FF"/><stop offset=".151" stop-color="#A3BEFF"/><stop offset=".387" stop-color="#82A0FF"/><stop offset=".612" stop-color="#6A8AFF"/><stop offset=".822" stop-color="#5C7DFF"/><stop offset="1" stop-color="#5778FF"/></linearGradient><path d="M570.8 191.8v-8.3h-13.6l-30.1-17.4c-.7-.4-2-.4-2.9.1l-30 17.3h-13.5v8.4c0 .3.2.5.5.7l43.2 24.9c.7.4 2 .4 2.9-.1l42.8-24.7c.5-.3.7-.6.7-.9z" class="st26"/><linearGradient id="SVGID_16_" x1="163.687" x2="99.894" y1="432.193" y2="483.348" gradientUnits="userSpaceOnUse" gradientTransform="matrix(.866 .5 -1 .577 855.278 -147.057)"><stop offset="0" stop-color="#C0D6FF"/><stop offset=".298" stop-color="#C5DBFF"/><stop offset=".649" stop-color="#D3E9FF"/><stop offset="1" stop-color="#E9FFFF"/></linearGradient><path d="M524.5 209.2l-43.2-24.9c-.7-.4-.6-1.2.2-1.7l42.8-24.7c.9-.5 2.1-.5 2.9-.1l43.2 24.9c.7.4.6 1.2-.2 1.7l-42.8 24.7c-.9.5-2.2.5-2.9.1z" class="st27"/><path d="M524.6 206.3l-38.3-22.1c-.7-.4-.6-1 .2-1.5l37.9-21.9c.8-.4 1.9-.5 2.6-.1l38.3 22.1c.7.4.6 1-.2 1.5l-37.9 21.9c-.8.4-1.9.4-2.6.1z" class="st9"/><path d="M524.7 204.4l-35.2-20.3c-.6-.3-.5-1 .2-1.4l34.8-20.1c.7-.4 1.7-.4 2.3-.1l35.2 20.3c.6.3.5 1-.2 1.4L527 204.3c-.6.4-1.7.5-2.3.1z" class="st5"/><path d="M525 182.1l-4.1-2.3 2.2-1.3 4.1 2.3zM532.6 181.8l-4.1 2.4-2.2-1.3 4.1-2.4zM524 182.7l-2.2 1.3-2.2-1.3 2.2-1.3zM531.8 187.2l-2.2 1.3-6.5-3.8 2.2-1.3z" class="st10"/><path d="M237.5 266.2l-.1.4-.1-.2s-.6 1.9-.1 2.9 1.2 2.2 2.2 3.5c1 1.3 2.7 4.1 3.1 4.7.4.5 2.9 2.6 6.1 3 3.1.3 3.9-1.5 3.7-2.4-.3-1-1.9-3.5-3.8-5.6-1.8-2.1-3.2-4.8-3.2-4.8l-7.8-1.5zM246.9 257.7s-.1 2 .1 2.8c.2.8 4.8 1.1 6.4 1.3 1.6.2 4.5 1.4 5.4 1.8.9.4 6.9 1.1 7.6-1.1.7-2.2-3-4-5.5-4.6-2.5-.6-6.6-1.8-6.6-1.8l-7.4 1.6z" class="st28"/><path d="M231 218s-.2 5.6 1.7 13.4c1.9 7.8 1.6 13.2 1.6 13.2s-2 8.8-.2 14.8c1.7 6 3.2 7.7 3.2 7.7s3.4 4.6 8 .5c0 0-2.5-8.2-2.8-14.8 0 0 2.2-4.8 3-9.1 0 0 .6 6.8 1 9.6 0 0-.4 4.1.7 5.7 1.1 1.6 5.9 2.1 7.5-.7 1.6-2.8-1.3-1.5-.4-14.5 0 0 4.5-5.6 5.1-15.9.6-10.3.6-14.3 0-16.4-.6-2-10.5-9.2-10.5-9.2l-5.6 7.2L231 218z" class="st9"/><path d="M253.1 229.5c1.6-1.9 2.5-8 2.5-8s-2.5 5.1-4.3 6.6c-1.8 1.5-3.4 4.5-3.7 6.4-.3 1.9-2.2 9.1-2.2 9.1s.6 6.8 1 9.6c0 0-.4 4.1.7 5.7.2.3.6.6 1.1.8 0-.1-.3-9 0-12.8.3-3.8 3.3-15.4 4.9-17.4z" class="st28"/><path d="M216.1 176.6s-4.3 8.4-4.7 9c-.4.6-8.4 10.9-9.2 16.8 0 0-.6 2.3 2.2 4.3 2.8 2 16.7 10.9 17.5 11 .9.1 5.9-2.3 6.1-7.8 0 0-10.9-5.1-13.3-7.6 0 0 4.2-7.1 6.3-9.2.5-.5.8-1.5 1-2.6.7-4.7-1.2-9.4-4.7-12.6l-1.2-1.3z" class="st29"/><path d="M248.1 157s6.6 2.5 8.9 1.6c2.3-.8 7.8-1.6 11.6-3.7s20.5-6.4 22.9-6.6c0 0 0 .1-.4.3-.4.2-2.1.3-2.6 2.3s.6 4.3.8 4.4c.3.2.4-.5 2-1.3 1.6-.7 2.6-.7 2.6-.7l.6.8.4.6s-.8 2.3-2.9 2.5c-2.1.2-15.8 5.9-16.7 6.1-.9.3-12.4 5.2-14.5 6-2.2.8-3.8 1.8-3.8 1.8s-6.7-4.5-6.9-4.5c-.2 0-2-9.6-2-9.6z" class="st9"/><path d="M308.5 144.1c-.5-.6-6.8 1.2-6.8 1.2s-1.1-.3-2.1-.3-3.8 2.2-4.8 2.7-3.3.7-3.3.7c-5.5 1.1-2.4 7.2-2.2 7.1.2-.1 1.7-1.1 2.2-1.3.5-.2 1.3-.4 1.3-.4.2.1 1.4.7 2.1.9.8.2 2.6 0 3.5-.6.8-.5 3.3-.8 3.4-.7.1.1.5.3.5.3s.2.6.6.8c.5.2 1-1.1 1.2-1.2.2-.1.9-.6 1.1-.8.1-.2.5-3.7.4-4.4-.1-.6-1.5-1.3-1.5-1.3s3.5-1.2 3.7-1.2c.5-.1 1.2-1 .7-1.5zm-6.2 6.4c-.3.1-.7.1-1.2.3-.5.2-1 .5-1.5.4 0 0-.6-1.1-.2-1.4.5-.4.9-.7.9-.7s.9-.2.9-.3c0 0 .5.4 1 .1 0 0 .5.8 1.3.8 0 0-.9.7-1.2.8z" class="st30"/><path d="M259.3 211.4c-.6-2-10.5-9.2-10.5-9.2l-2.8 3.6-2.4 9.3L231 219s.7 6.3 11 5.6c10.3-.7 11.5-8.7 11.5-8.7s1.1 2.6 6.2 3.3c.2-4.3 0-6.5-.4-7.8z" class="st28"/><path d="M228.6 162.2l-1.7 4.5s-8.4 7.3-10.8 9.9c0 0 4.2 8 4.9 16.4 0 0 3.8 3.1 5 4.6 1.2 1.4 4.1 8.1 5 10.3.9 2.2-1.7 8.8-1.7 8.8s3.6 6.6 9.3 6.4c5.8-.2 9.7-3.7 10.4-10 .7-6.2.5-7.2.5-7.2s2.6 7.7 6.5 7.7 10.1-6.7 10.1-6.7 4.2-3.8 3.8-5.5c-.4-1.7-9.9-16.6-10.4-19.1s-2.7-11.2-2.7-11.2l-9-14.1-5.5.3-13.7 4.9z" class="st5"/><path d="M228.6 162.2s0 2.7 1 5.3c1.1 2.7 4.5 17.6 12.3 22.7l3 1.9v-9.5s-.1-5.8-1.4-9.6c-1.3-3.7-1.3-8.2-1.3-8.2s-2.2-.6-2.2-.6c.1.1-11.4-2-11.4-2z" class="st31"/><path d="M238.3 169.1s1.4.6 2-.3c.6-.9 1.2-2.7 1.1-3.6 0 0 3.7.2 4.4-1.8.7-1.9-.1-2.4-.2-3s-.2-2.2-.7-3.3l-.1-.5s.8-.6.4-1.3c-.3-.7-2.4-2.8-2.6-3.1-.2-.4.1-3-.7-4.3-.8-1.3-2.3-3.1-2.3-3.1s-7.9-6.2-14.1 0c-6.2 6.2 3.1 17.5 3.1 17.5s.7 3.7 2.6 5.1c1.8 1.4 7.1 1.7 7.1 1.7z" class="st30"/><path d="M232.5 154.2c0-.2 0-.5-.1-.7-.2-.7-.6-2.5 1.3-3.9 2.4-1.7 6.5-3.3 6.4-5-.1-1.7-6.7-6-11.6-3.7-4.9 2.3-9.4 8.1-6.1 14.2 3.3 6.1 6.2 7.1 6.2 7.1s1-.2.1-1.2-2.5-3.6-1.2-4.4c1.3-.8 3.7.9 4 1.3.1.1.2.3.3.5.2.3.5.4.8.3l.1-.1c.3-.1.5-.5.3-.8l-.6-1.6c-.1-.2-.1-.5-.1-.7l.2-1.3z" class="st32"/><path d="M238.1 170.9s-1.8 1.2-2.8 3.6c0 0 1.9-1.9 2.9-2.3 0 0 2.1 1 2.1 1.6 0 .6.2 4.5.7 6.6.5 2.1.4 9.4.4 9.4l1.3.9.6-3.2-.2-6.9-1.2-6.2s-.2-2.4-.3-2.5c-.2-.1-3.5-1-3.5-1z" class="st33"/><path d="M238.1 170.9s2-2.1 3-2.2c1 0 1.6.5 1.6.6 0 .1 1 3.5 1 3.5s1.9 5.8 1.7 12.6c-.2 6.8-.4 6.7-.4 6.7l-2.5-1.6s.7-4.9-.7-10.5-.2-6.5-.8-7c-.7-.6-3.3-1.4-2.9-2.1zM226 197.5c1.2 1.4 4 8.1 5 10.3.2.4.3.8.3 1.4.2.2.4.2.4.2l1.3-1.2s-1.1-4.1-2.9-9.1c-1.8-5-9-6.2-9-6.2s3.7 3.2 4.9 4.6z" class="st9"/><path d="M227.9 210s2-3 2.7-3.4c0 0-.2.8 1 1.4 1.2.5 7.3 2.9 7.5 3.2.2.3 0 .6-.4.7 0 0 1.3.4 1.8.4s1.2.6.9 1.2c-.3.6-.6.5-.6.5s.2.6-.2.8c-.4.1-1.3.2-1.3.2s.2.6-.3.9c-.5.2-3 .5-3 .5s-1.9-.2-2.5-.2c-.5 0-3.1.6-4.1.5-1.1-.2-4.6-1.4-4.9-1.6-.5-.4 3.4-5.1 3.4-5.1z" class="st30"/><path d="M226.5 168.1l.3 4 2.2.7-1.5 1.2s5.9 13.3 13.4 17.6c0 0-7.2-2.5-13.9-17.5 0 0 .7-.8.9-1.1l-1.5-.7.1-4.2zM245.6 167.7s2.7 13.6.4 23.9c0 0 2.7-4.9.3-23.9h-.7z" class="st9"/><path d="M305.6 147.8c-.4-.5-1.4-1-1.4-1s-2.8 1.2-3.3 1.4c0 0 2.9-.3 4.7-.4zM289.3 155.5c.1 0 .6-.3 1-.6-1.9-2.5.2-6.2.2-6.2-4.1 1.5-1.4 6.8-1.2 6.8zM224.3 214.9c.3.2 2.3.9 3.7 1.3 0 0 .9-3.7.7-4.9-.2-1.2-.7-1.5-.7-1.5-.1.1-.1.2-.1.2s-3.9 4.7-3.6 4.9z" class="st34"/><path d="M227.9 209.8s.6 2.1-.8 3.8c-1.4 1.6-1.6 1.9-1.6 1.9h-1.6s-.9-2.6-.7-2.7c.1-.1 4.7-3 4.7-3z" class="st29"/><path d="M243.3 171.7s1.6 9.3 1.2 12.8c-.4 3.4-.2 7.1-.2 7.1l.5.4.1.1s.2.1.4-6.7-1.7-12.6-1.7-12.6-.1-.5-.3-1.1z" class="st9"/><path d="M243.8 268.6c.5-.3.9-.6 1.4-1 0 0-2.5-8.2-2.8-14.8 0 0 2.2-4.8 3-9.1-.2.9-2.8 5.5-4 10.2-1.2 4.6 2.4 14.7 2.4 14.7z" class="st28"/><path d="M232.3 160.7zM232.3 160.7c0 .2.7 3.6 2.1 5.1 1.4 1.6 2.5 3.2 2.5 3.2.9.1 1.5.2 1.5.2s1.4.6 2-.3c.6-.9 1.2-2.7 1.1-3.6 0 0-5-.5-6.9-1.8-2-1.3-2.3-2.6-2.3-2.8z" class="st34"/><path d="M230.5 206.7s.3.6.3.6.1-.4.1-.4-.2-.5-.2-.5c-.1 0-.2.3-.2.3z" class="st35"/><path d="M245 192.1s3.5 11.1 4.6 13.8l-.1 2.7s-4.4-13.8-4.5-16.5z" class="st9"/><ellipse cx="247.2" cy="196.4" transform="matrix(.957 -.291 .291 .957 -46.451 80.426)" class="st9" rx="1.1" ry="1.2"/><ellipse cx="249" cy="201.2" transform="matrix(.957 -.291 .291 .957 -47.773 81.151)" class="st9" rx="1.1" ry="1.2"/><path d="M232.6 156.2c-.1-.2-.1-.5-.1-.7v-1.3c0-.2 0-.5-.1-.7-.1-.2-.1-.5-.2-.8 0 0-5.4 3.9-8.9 4.1 2.9 4.6 5.3 5.4 5.3 5.4s1-.2.1-1.2-2.5-3.6-1.2-4.4c1.3-.8 3.7.9 4 1.3.1.1.2.3.3.5.2.3.5.4.8.3l.1-.1c.3-.1.5-.5.3-.8l-.4-1.6z" class="st36"/><path d="M224.2 309.6s2.3.3 4.6.2c2.2-.1 8.3.4 8.3 2.3s-2.9 4.9-6.8 5.6c-3.9.7-9 .2-11.5.5-2.6.3-4.5-1.7-3.8-3.9.8-2.2 9.2-4.7 9.2-4.7zM210.3 305.7s-.7 1.2-.2 1.9c.5.7 1.8 2.3 5.3.3 3.4-2 10.2-5.1 10.2-5.1s3.9-2.2 3.5-4.3c-.4-2.2-4.1-1.5-4.1-1.5l-14.7 8.7z" class="st28"/><path d="M231.4 271.8s-.4 15.1-3.3 20.9c-2.9 5.8-2.9 15.7-3.4 17.6-.5 1.9-2.4 4.7-5.7 5.6-3.3.9-4.1-1-4-2.2 0-1.2.8-3.1.7-4.4-.1-1.3-.5-1.8-.6-2.4 0 0-3.8 1.3-4.7-1.2 0 0 .2-.8.2-1.2 0-.4-1.5-9.8-1.7-11-.2-1.2-.2-7.6.5-10.9.8-3.3-.4-10.1-.4-10.1l11.5-2.5 10.9 1.8z" class="st9"/><path d="M212.6 273.3s.3 2.4 1.6 4.2c0 0 .8 7.9 2.1 11.8 0 0-.7 7.9-1.3 10.4-.7 2.5 0 7.1 0 7.1s-.4.2-1.1.3c-.6.1-1.7-9.2-.9-10.9.8-1.7.8-9.3.1-11.6-.6-2.3-1.2-9-1.8-10.1-.6-1.2.4-1.9.4-1.9l.9.7zM216.9 212.8s3.9 2.2 4.1 6.6l-2.8-.3c.1 0 .4-4.9-1.3-6.3zM221.4 275.9c-7.7.9-12.2-1.8-12.2-1.8-.1-1-.2-1.6-.2-1.6l11.5-2.5 10.9 1.7s-.1 3-.4 6.9c-1.9.3-4.1-3.6-4.1-3.6l-5.3.8c.1 0 7.5-.8-.2.1z" class="st28"/><path d="M230 272.1s-16.2 7.5-25.6-3.3c-.3-.3-.4-.7-.5-1.1l-.2-2.8c0-.4-.1-.7-.3-1-.3-.7-.5-1.4-.4-2.2.3-3.2 1-12 1.2-14.5.2-3-3-15.1-6.6-20.3-3.6-5.2 2.6-18.3 2.6-18.3s1.6-3.1 5.4-2.4c0 0-3.3 2.7-1.1 5.1 2.2 2.4 8.2 3.8 8.2 3.8s11.1 4.3 15.2 10.3c0 0 1.5 3.1 1.9 7.2.4 4.1.7 13.7 1 15 .3 1.3 1.5 10.1 1.5 10.5-.1.5-2.3 14-2.3 14z" class="st5"/><linearGradient id="SVGID_17_" x1="1878.236" x2="1880.065" y1="207.173" y2="207.173" gradientUnits="userSpaceOnUse" gradientTransform="matrix(-1 0 0 1 2083.814 0)"><stop offset="0" stop-color="#5778FF"/><stop offset=".073" stop-color="#5489FF"/><stop offset=".279" stop-color="#4EB3FF"/><stop offset=".48" stop-color="#49D4FF"/><stop offset=".671" stop-color="#45ECFF"/><stop offset=".849" stop-color="#43FAFF"/><stop offset="1" stop-color="#42FFFF"/></linearGradient><path d="M204 208.2c-.4-.7-.4-1.4-.2-2 .5-.1 1.1-.1 1.7 0 .1 0-.9.9-1.5 2z" class="st37"/><path d="M225 273.8s-12.4-23.6-12.8-32.9c-.5-9.3 16.6 16.9 16.6 16.9l1.2 14.4c0-.1-3.1 1.2-5 1.6z" class="st9"/><path d="M228 244.2c-.5-2.1-.9-4.2-1.1-6.3-.3-3.7-2-9.9-9.2-8.2-10.2 2.4-4.4 15.4-3.1 17.6 1.3 2.2 6.7 11.9 6.9 12.4.3.5 8.1 12.1 10.7 14.8.2.2.6.2.9 0 .9-.8 3-2.8 3.2-3.9.3-1.5-1.5-6.6-1.5-6.6s-4.9-13.1-5.3-13.8c-.3-.4-.7-2.7-1.5-6z" class="st29"/><path d="M216.8 213.1s.7-1.9 2.6-2.3c1.9-.4 3-1 3.1-1.7.1-.7.1-1.6.5-2.6.4-1.1.6-3.7.6-3.8 0-.1 1.4-.6 1.5-1.3 0-.6-.9-2.9-.9-3.1.1-.2.8-1.7.6-2.8-.2-1.1-.5-2.7-1.2-4-.7-1.3-5.7-9.4-16.3-4-10.7 5.3-1.3 13.7-1.7 19.6 0 0-.8 1.3 1.1 3.2 1.9 1.9 7 1.9 10.1 2.8z" class="st30"/><path d="M206.6 210.4c-2-1.9-1.1-3.2-1.1-3.2.1-.8-.1-1.7-.3-2.6l4.4.4s5.8-6.1 5.6-3.1c-.2 3 1.4 3.4 1.4 3.4l-1.1 1.7c-.3.4-.1.9.3 1.3 2.1 2.8 6.3 1.5 6.3 1.5-.5.4-1.4.7-2.6.9-1.9.4-2.6 2.3-2.6 2.3-3.2-.8-8.3-.8-10.3-2.6z" class="st34"/><path d="M223.7 188.4s.9 2.2-.2 3.2c-1.2 1-2.2 2-2.2 2l.2 2.8c0 .4-.1.8-.2 1.2l-1.3 2.5c-.3.5-.4 1-.3 1.6l.1 1.1c0 .3-.2.6-.5.7l-.4.1c-.4.1-.7-.2-.8-.5l-.3-1.5s-.9-1.2-2.6.5l-1.5.8c-.4.2-.7.6-.9 1.1-.3 1.2-1.1 3.7-1.7 4.1-.9.6-4.8-.9-5.4-1.7-.6-.8-2.4-6.2-3.5-8.9-1.1-2.6-1.4-9.4 6.7-11.8 7.9-2.6 13.5.4 14.8 2.7z" class="st32"/><path d="M205.6 206.2c-.6-.8-2.4-6.2-3.5-8.9 0 0 3.4 1.8 7.5 2 4.1.3 11.8-5 11.8-5l.2 2.1c0 .4-.1.8-.2 1.2l-1.3 2.5c-.3.5-.4 1-.3 1.6l.1 1.1c0 .3-.2.6-.5.7l-.4.1c-.4.1-.7-.2-.8-.5l-.3-1.5s-.9-1.2-2.6.5l-2.2 1.1s-1 4.2-1.9 4.8c-1.1.5-5-1-5.6-1.8z" class="st36"/><path d="M205.4 206.5s-2.9 2.1-1.1 4.6c1.8 2.5 13.5 6.1 14.1 6.8 0 0 .1-3.9-1.5-5.1 0 0-8.7-.9-10.3-2.9-1.5-2-1.2-3.4-1.2-3.4z" class="st31"/><path d="M205.4 206.5s-.4 1.4 1.2 3.4c1.2 1.5 6.5 2.4 9 2.7 0 0-.9.6-2.1 3.2-3.6-1.4-8-3.3-9.1-4.7-1.9-2.5 1-4.6 1-4.6z" class="st33"/><path d="M204.2 215.1s5.3 2.3 7.8 3.3 5.3 2.4 5.3 2.4l.8-1 1.3 2.2s4 1.8 5.9 3.5c1.9 1.6 3.4 3.8 3.7 4.4 0 0-5.2-5.4-9-6.8l-1-.4-.7-1.8-.8 1c-.1 0-11.6-5.3-13.3-6.8z" class="st9"/><path d="M223.8 287.5c.1-.4.3-.7.5-.9l17.7-15.5c.5-.4 1-.2 1.1.5l3.2 15.9c.1.7-.1 1.6-.6 2l-14.5 12.7.9 4.3-4.7-1.4c-.2-.1-.4-.3-.5-.7l-3.2-15.9c0-.2 0-.6.1-1zM247.3 272.3l-4.6-1.3h-.1c-.2 0-.3 0-.5.2l-17.7 15.5c-.2.2-.4.5-.5.9l.7.2 3.9 1.3 15.4-13.7 3.4-3.1z" class="st5"/><path d="M250.3 290.9l-17.7 15.5c-.5.4-1 .2-1.1-.5l-3.2-15.9c-.1-.7.1-1.6.6-2l17.7-15.5c.5-.4 1-.2 1.1.5l3.2 15.9c.2.7-.1 1.6-.6 2z" class="st9"/><path d="M229.2 305.1l-3.2-15.9c-.1-.7.1-1.6.6-2l17.7-15.5c.1-.1.3-.2.4-.2-.2-.1-.4 0-.6.2l-17.7 15.5c-.5.4-.7 1.3-.6 2l3.2 15.9c.1.5.4.8.7.8-.3-.1-.5-.4-.5-.8zM234 280.7l-1-.3c-.2-.1-.4-.1-.6 0h-.1c-.1 0-.1.1-.1.3v.2l2.8 1v-.2c0-.1-.1-.3-.2-.4l-.1-.1c-.3-.3-.5-.5-.7-.5zM233.8 282.8l1.2-1.1-2.8-1.3-1.3 1z" class="st28"/><path d="M232.7 281.8l-1-.3c-.2-.1-.4-.1-.6 0h-.1c-.1 0-.1.1-.1.3v.2l2.8 1v-.2c0-.1-.1-.3-.2-.4l-.1-.1c-.2-.3-.5-.5-.7-.5z" class="st5"/><path d="M232.2 282.2l-.2-.7h.1l.1.7zM232 281.5l1.3-1.1.1.1-1.3 1zM239.6 275.7l-1-.3c-.2-.1-.4-.1-.6 0h-.1c-.1 0-.1.1-.1.3v.2l2.8 1v-.2c0-.1-.1-.3-.2-.4l-.1-.1c-.2-.3-.5-.4-.7-.5zM239.4 277.8l1.2-1.1-2.8-1.3-1.2 1.1z" class="st28"/><path d="M238.3 276.8l-1-.3c-.2-.1-.4-.1-.6 0h-.1c-.1 0-.1.1-.1.3v.2l2.8 1v-.2c0-.1-.1-.3-.2-.4l-.1-.1c-.2-.3-.4-.4-.7-.5z" class="st5"/><path d="M237.8 277.3l-.1-.7.2.7zM237.7 276.6l1.2-1.1h.1l-1.3 1.1z" class="st28"/><path d="M231.2 278.2l.6 3 .8-.7-.6-2.9c-.1-.4.1-1 .4-1.3l3.6-3.2c.3-.3.7-.2.7.3l.6 2.9.8-.7-.6-3c-.2-.9-.9-1.2-1.6-.6l-3.9 3.4c-.5.6-1 1.9-.8 2.8zM237.5 272.8h-1.6l-4.3 4.2v2.3l.2 1.9 1 .4-.2-2.4-.1-1.6.9-1.3s1.6-1.4 1.6-1.4c.1-.1 2.5-2.1 2.5-2.1zM238.5 276.6l-1.1-.4-.4-2.1h1.3zM238.1 272l-1.1-.4s.3.5.3.5.4.1.4.1.4-.2.4-.2z" class="st5"/><path d="M232.3 278.6l.6 3 .8-.7-.6-2.9c-.1-.4.1-1 .4-1.3l3.6-3.2c.3-.3.7-.2.7.3l.6 2.9.8-.7-.6-3c-.2-.9-.9-1.2-1.6-.6l-3.9 3.4c-.6.6-1 1.8-.8 2.8z" class="st28"/><path d="M236 270.5s.9 2.9.7 3.7c-.1.8-1.6 2.3-2.6 2.7-.9.3-.6-.7-.9-1.3-.3-.6-.3-2-.3-2l3.1-3.1z" class="st30"/><path d="M232.9 273.5l3.1-3s.2.6.4 1.3c0 0-1.1 2.3-3.2 3.4-.2-.6-.3-1.7-.3-1.7z" class="st34"/><path d="M236.2 270.7s-.9 3.3-3.8 3.9l.7-3.6s2.4-.8 2.5-.8c.1-.1.6.5.6.5z" class="st29"/><g class="st38"><path d="M359.5 145l10.5 6.1v-1.2l-10.5-6.1zM354.1 141.9l3.8 2.2v-1.2l-3.8-2.2zM349.9 139.5l2.6 1.5v-1.2l-2.6-1.5zM364.3 150.4l5.7 3.3v-1.1l-5.7-3.3zM355.7 145.5l7 4v-1.2l-7-4zM351.5 143.1l2.6 1.4v-1.1l-2.6-1.5zM347.5 140.8l2.6 1.5v-1.2l-2.6-1.5zM365.8 154l4.2 2.4v-1.2l-4.2-2.3zM362.8 152.3l1.4.8v-1.2l-1.4-.8zM358.7 149.9l2.5 1.5v-1.2l-2.5-1.5zM354.7 150.3l15.3 8.8v-1.2l-15.3-8.8zM349.3 147.2l3.8 2.1v-1.1l-3.8-2.2zM365.8 159.4l4.2 2.4v-1.2l-4.2-2.4zM356.1 153.8l8.1 4.6v-1.1l-8.1-4.7zM352 151.4l2.5 1.4v-1.1l-2.5-1.5zM361.5 159.5l8.5 4.9v-1.1l-8.5-4.9zM353.8 155.1l6.1 3.5v-1.2l-6.1-3.5zM348.1 151.8l4.1 2.4V153l-4.1-2.4zM367.1 165.4l2.9 1.7v-1.2l-2.9-1.6zM361.7 162.3l3.8 2.2v-1.2l-3.8-2.1zM354.1 157.9l6 3.5v-1.2l-6-3.5zM361.2 164.7l8.8 5.1v-1.2l-8.8-5.1zM351.4 159l8.2 4.8v-1.2l-8.2-4.7zM347.2 156.6l2.6 1.5V157l-2.6-1.5zM343.2 154.3l2.6 1.5v-1.2l-2.6-1.4zM364.7 169.4l5.3 3v-1.1l-5.3-3.1zM338.2 132.7l-7.3-4.2v-1.1l7.3 4.2zM336.7 134.5l-5.8-3.3V130l5.8 3.3zM335.1 136.3l-4.2-2.4v-1.2l4.2 2.4zM337 140l-6.1-3.5v-1.1l6.1 3.4zM335.1 141.6l-4.2-2.4V138l4.2 2.4zM336.2 144.9l-5.3-3v-1.2l5.3 3zM333.8 146.2l-2.9-1.6v-1.2l2.9 1.6zM336.5 150.4l-5.6-3.2v-1.1l5.6 3.2zM336.2 152.9l-5.3-3v-1.2l5.3 3.1zM360.9 167.2l2.2 1.3v-1.2l-2.2-1.3zM354.3 163.4l5 2.9v-1.2l-5-2.9zM348.5 174l8.5 4.9v-1.2l-8.5-4.9zM342.7 170.6l3.4 1.9v-1.1l-3.4-2z" class="st5"/></g><ellipse cx="140.8" cy="216.6" transform="matrix(.944 -.33 .33 .944 -63.641 58.667)" class="st6" rx="22" ry="6.7"/><path d="M132.5 196.5l.2-3.6.8-2.1.6 1.7z" class="st39"/><path d="M170.5 197.2l.1-3.6s-3 3-3 3.1c0 .1 2.9.5 2.9.5zM151.3 207.7c-10.5-.3-18.8-5.6-18.6-14.8.2-9.3 8.9-16.6 19.4-16.3 10.5.3 18.8 8 18.6 17.2-.3 9.3-9 14.2-19.4 13.9z" class="st40"/><ellipse cx="151.5" cy="197" transform="matrix(.024 -1 1 .024 -49.034 343.741)" class="st40" rx="16.8" ry="19"/><path d="M138.3 184.9c-3.4 2.9-5.6 7-5.7 11.6-.2 9.3 8.1 17 18.6 17.2 5.2.1 9.9-1.6 13.4-4.5l-26.3-24.3z" class="st39"/><ellipse cx="151.5" cy="197" transform="matrix(.024 -1 1 .024 -49.033 343.742)" class="st41" rx="16" ry="18.1"/><ellipse cx="151.5" cy="197" transform="matrix(.024 -1 1 .024 -49.034 343.742)" class="st42" rx="12.9" ry="14.6"/><path d="M166.1 197.3c0-.3 0-.6 0-.9-.7 6.7-7.1 11.8-14.8 11.6s-13.9-5.6-14.2-12.3c0 .3-.1.6-.1.9-.2 7.1 6.2 13 14.3 13.2 8 .2 14.6-5.4 14.8-12.5zM154.3 198.1l-3-2.8c-2.9.7-8.2 1.9-12.5 2.9 1.1 3.2 3.7 5.8 7.1 7.3l8.4-7.4zM149.6 206.4c.5.1 1 .1 1.4.1 3.5.1 6.7-1.1 9.1-3l-4.9-4.5-5.6 7.4zM148.1 192.3l-5.6-5.2c-1.9 1.7-3.6 3.5-4 5.9l9.6-.7z" class="st40"/><path d="M151.1 185.7c8 .2 14.4 6.1 14.3 13.2 0 1.4-.3 2.8-.9 4.1 1-1.7 1.6-3.6 1.6-5.6.2-7.1-6.2-13-14.3-13.2-6.4-.2-11.9 3.4-14 8.4 2.5-4.3 7.5-7.1 13.3-6.9zM132.7 192.9c0 1.4-.2 2.4.2 3.7.4-1.4 1.3-5.4 1.3-5.4l1.4-3.2 1.2-1 2-1.5.2-4.7c-3.8 3-6.2 7.3-6.3 12.1zM169.4 192.4l.1-1c0-.1.1-.2.2-.2h.1c.1 0 .2.1.2.3l-.1 1c0 .1-.1.2-.2.2h-.1c-.1 0-.2-.1-.2-.3zM167.8 188.8l.1-1.7c0-.2.1-.3.3-.3h.2c.1 0 .3.1.3.3l-.1 1.7c0 .2-.1.3-.3.3h-.2c-.2 0-.3-.2-.3-.3zM165.4 185.6l.1-1.7c0-.2.1-.3.3-.3h.3c.2 0 .3.1.3.3l-.1 1.7c0 .2-.1.3-.3.3h-.3c-.1 0-.3-.1-.3-.3zM162 183l.1-2c0-.2.1-.3.3-.3h.3c.2 0 .3.1.3.3l-.1 2c0 .2-.1.3-.3.3h-.3c-.2 0-.3-.1-.3-.3zM158.5 181.3l.1-2.3c0-.2.1-.3.3-.3h.3c.2 0 .3.1.3.3l-.1 2.3c0 .2-.1.3-.3.3h-.3c-.2 0-.3-.1-.3-.3zM155 180.3l.1-2.2c0-.2.1-.3.3-.3h.3c.2 0 .3.1.3.3l-.1 2.2c0 .2-.1.3-.3.3h-.3c-.2 0-.3-.1-.3-.3zM151.5 179.9l.1-2.3c0-.2.1-.3.3-.3h.3c.2 0 .3.1.3.3l-.1 2.3c0 .2-.1.3-.3.3h-.3c-.2.1-.3-.1-.3-.3zM148 180l.1-2.1c0-.2.1-.3.3-.3h.3c.2 0 .3.1.3.3l-.1 2.1c0 .2-.1.3-.3.3h-.3c-.2 0-.3-.1-.3-.3zM144.4 180.8l.1-2.1c0-.2.1-.3.3-.3h.3c.2 0 .3.1.3.3l-.1 2.1c0 .2-.1.3-.3.3h-.3c-.2 0-.3-.1-.3-.3zM140.8 182.5l.1-2.2c0-.2.1-.3.3-.3h.3c.2 0 .3.1.3.3l-.1 2.2c0 .2-.1.3-.3.3h-.3c-.1 0-.3-.1-.3-.3z" class="st39"/><ellipse cx="444" cy="347.2" transform="matrix(.944 -.33 .33 .944 -89.781 166.141)" class="st6" rx="22" ry="6.7"/><path d="M435.7 327.2l.1-3.6.9-2.2.5 1.8z" class="st39"/><path d="M473.7 327.9l.1-3.6s-3 3-3 3.1c0 .1 2.9.5 2.9.5zM454.4 338.4c-10.5-.3-18.8-5.6-18.6-14.8s8.9-16.6 19.4-16.3c10.5.3 18.8 8 18.6 17.2-.2 9.2-8.9 14.2-19.4 13.9z" class="st40"/><ellipse cx="454.7" cy="327.6" transform="matrix(.024 -1 1 .024 116.258 774.342)" class="st40" rx="16.8" ry="19"/><path d="M441.4 315.6c-3.4 2.9-5.6 7-5.7 11.6-.2 9.3 8.1 17 18.6 17.2 5.2.1 9.9-1.6 13.4-4.5l-26.3-24.3z" class="st39"/><ellipse cx="454.7" cy="327.6" transform="matrix(.024 -1 1 .024 116.258 774.342)" class="st41" rx="16" ry="18.1"/><ellipse cx="454.7" cy="327.6" transform="matrix(.024 -1 1 .024 116.257 774.341)" class="st42" rx="12.9" ry="14.6"/><path d="M469.2 328c0-.3 0-.6 0-.9-.7 6.7-7.1 11.8-14.8 11.6-7.7-.2-13.9-5.6-14.2-12.3 0 .3-.1.6-.1.9-.2 7.1 6.2 13 14.3 13.2 8 .2 14.7-5.4 14.8-12.5zM457.5 328.7l-3-2.8c-2.9.7-8.2 1.9-12.5 2.9 1.1 3.2 3.7 5.8 7.1 7.3l8.4-7.4zM452.8 337.1c.5.1 1 .1 1.4.1 3.5.1 6.7-1.1 9.1-3l-4.9-4.5-5.6 7.4zM451.3 323l-5.6-5.2c-1.9 1.7-3.6 3.5-4 5.9l9.6-.7z" class="st40"/><path d="M454.2 316.3c8 .2 14.4 6.1 14.3 13.2 0 1.4-.3 2.8-.9 4.1 1-1.7 1.6-3.6 1.6-5.6.2-7.1-6.2-13-14.3-13.2-6.4-.2-11.9 3.4-14 8.4 2.6-4.2 7.6-7 13.3-6.9zM435.8 323.6c0 1.4-.2 2.4.2 3.7.4-1.4 1.3-5.4 1.3-5.4l1.4-3.2 1.2-1 2-1.5.2-4.7c-3.7 2.9-6.1 7.2-6.3 12.1zM472.6 323.1l.1-1c0-.1.1-.2.2-.2h.1c.1 0 .2.1.2.3l-.1 1c0 .1-.1.2-.2.2h-.1c-.1-.1-.2-.2-.2-.3zM470.9 319.4l.1-1.7c0-.2.1-.3.3-.3h.2c.1 0 .3.1.3.3l-.1 1.7c0 .2-.1.3-.3.3h-.2c-.2 0-.3-.1-.3-.3zM468.6 316.2l.1-1.7c0-.2.1-.3.3-.3h.3c.2 0 .3.1.3.3l-.1 1.7c0 .2-.1.3-.3.3h-.3c-.2.1-.3-.1-.3-.3zM465.1 313.7l.1-2c0-.2.1-.3.3-.3h.3c.2 0 .3.1.3.3l-.1 2c0 .2-.1.3-.3.3h-.3c-.1 0-.3-.2-.3-.3zM461.7 312l.1-2.3c0-.2.1-.3.3-.3h.3c.2 0 .3.1.3.3l-.1 2.3c0 .2-.1.3-.3.3h-.3c-.2 0-.3-.1-.3-.3zM458.2 310.9l.1-2.2c0-.2.1-.3.3-.3h.3c.2 0 .3.1.3.3l-.1 2.2c0 .2-.1.3-.3.3h-.3c-.2.1-.3-.1-.3-.3zM454.6 310.6l.1-2.3c0-.2.1-.3.3-.3h.3c.2 0 .3.1.3.3l-.1 2.3c0 .2-.1.3-.3.3h-.3c-.1 0-.3-.1-.3-.3zM451.1 310.7l.1-2.1c0-.2.1-.3.3-.3h.3c.2 0 .3.1.3.3l-.1 2.1c0 .2-.1.3-.3.3h-.3c-.2 0-.3-.2-.3-.3zM447.6 311.4l.1-2.1c0-.2.1-.3.3-.3h.3c.2 0 .3.1.3.3l-.1 2.1c0 .2-.1.3-.3.3h-.3c-.2.1-.3-.1-.3-.3zM444 313.2l.1-2.2c0-.2.1-.3.3-.3h.3c.2 0 .3.1.3.3l-.1 2.2c0 .2-.1.3-.3.3h-.3c-.2 0-.3-.2-.3-.3z" class="st39"/><ellipse cx="370" cy="397.1" transform="matrix(.944 -.33 .33 .944 -110.409 144.502)" class="st6" rx="22" ry="6.7"/><path d="M361.7 377.1l.2-3.7.8-2.1.5 1.8z" class="st39"/><path d="M399.7 377.7l.1-3.6s-3 3-3 3.1c0 .1 2.9.5 2.9.5zM380.4 388.3c-10.5-.3-18.8-5.6-18.6-14.8.2-9.3 8.9-16.6 19.4-16.3 10.5.3 18.8 8 18.6 17.2-.2 9.2-8.9 14.1-19.4 13.9z" class="st40"/><ellipse cx="380.7" cy="377.5" transform="matrix(.024 -1 1 .024 -5.817 749.062)" class="st40" rx="16.8" ry="19"/><path d="M367.4 365.4c-3.4 2.9-5.6 7-5.7 11.6-.2 9.3 8.1 17 18.6 17.2 5.2.1 9.9-1.6 13.4-4.5l-26.3-24.3z" class="st39"/><ellipse cx="380.7" cy="377.5" transform="matrix(.024 -1 1 .024 -5.816 749.063)" class="st41" rx="16" ry="18.1"/><ellipse cx="380.7" cy="377.5" transform="matrix(.024 -1 1 .024 -5.816 749.064)" class="st42" rx="12.9" ry="14.6"/><path d="M395.3 377.9c0-.3 0-.6 0-.9-.7 6.7-7.1 11.8-14.8 11.6s-13.9-5.6-14.2-12.3c0 .3-.1.6-.1.9-.2 7.1 6.2 13 14.3 13.2 7.9.2 14.6-5.4 14.8-12.5zM383.5 378.6l-3-2.8c-2.9.7-8.2 1.9-12.5 2.9 1.1 3.2 3.7 5.8 7.1 7.3l8.4-7.4zM378.8 386.9c.5.1 1 .1 1.4.1 3.5.1 6.7-1.1 9.1-3l-4.9-4.5-5.6 7.4zM377.3 372.9l-5.6-5.2c-1.9 1.7-3.6 3.5-4 5.9l9.6-.7z" class="st40"/><path d="M380.2 366.2c8 .2 14.4 6.1 14.3 13.2 0 1.4-.3 2.8-.9 4.1 1-1.7 1.6-3.6 1.6-5.6.2-7.1-6.2-13-14.3-13.2-6.4-.2-11.9 3.4-14 8.4 2.6-4.2 7.6-7 13.3-6.9zM361.9 373.4c0 1.4-.2 2.4.2 3.7.4-1.4 1.3-5.4 1.3-5.4l1.4-3.2 1.2-1 2-1.5.2-4.7c-3.8 3-6.2 7.3-6.3 12.1zM398.6 373l.1-1c0-.1.1-.2.2-.2h.1c.1 0 .2.1.2.3l-.1 1c0 .1-.1.2-.2.2h-.1c-.1-.1-.2-.2-.2-.3zM396.9 369.3l.1-1.7c0-.2.1-.3.3-.3h.2c.1 0 .3.1.3.3l-.1 1.7c0 .2-.1.3-.3.3h-.2c-.2 0-.3-.1-.3-.3zM394.6 366.1l.1-1.7c0-.2.1-.3.3-.3h.3c.2 0 .3.1.3.3l-.1 1.7c0 .2-.1.3-.3.3h-.3c-.2 0-.3-.1-.3-.3zM391.2 363.5l.1-2c0-.2.1-.3.3-.3h.3c.2 0 .3.1.3.3l-.1 2c0 .2-.1.3-.3.3h-.3c-.2.1-.3-.1-.3-.3zM387.7 361.9l.1-2.3c0-.2.1-.3.3-.3h.3c.2 0 .3.2.3.3l-.1 2.3c0 .2-.1.3-.3.3h-.3c-.2 0-.3-.2-.3-.3zM384.2 360.8l.1-2.2c0-.2.1-.3.3-.3h.3c.2 0 .3.1.3.3l-.1 2.2c0 .2-.1.3-.3.3h-.3c-.2 0-.3-.1-.3-.3zM380.7 360.5l.1-2.3c0-.2.1-.3.3-.3h.3c.2 0 .3.1.3.3l-.1 2.3c0 .2-.1.3-.3.3h-.3c-.2 0-.3-.2-.3-.3zM377.1 360.5l.1-2.1c0-.2.1-.3.3-.3h.3c.2 0 .3.1.3.3l-.1 2.1c0 .2-.1.3-.3.3h-.3c-.1.1-.3-.1-.3-.3zM373.6 361.3l.1-2.1c0-.2.1-.3.3-.3h.3c.2 0 .3.1.3.3l-.1 2.1c0 .2-.1.3-.3.3h-.3c-.2 0-.3-.1-.3-.3zM370 363l.1-2.2c0-.2.1-.3.3-.3h.3c.2 0 .3.1.3.3l-.1 2.2c0 .2-.1.3-.3.3h-.3c-.1.1-.3-.1-.3-.3z" class="st39"/></svg>