<?xml version="1.0" encoding="utf-8"?>
<!-- Generator: Adobe Illustrator 21.0.0, SVG Export Plug-In . SVG Version: 6.00 Build 0)  -->
<svg version="1.1" id="Layer_1" xmlns="http://www.w3.org/2000/svg" xmlns:xlink="http://www.w3.org/1999/xlink" x="0px" y="0px"
	 viewBox="0 0 500 500" style="enable-background:new 0 0 500 500;" xml:space="preserve">
<style type="text/css">
	.st0{fill:url(#SVGID_1_);}
	.st1{opacity:0.3;}
	.st2{fill:#FFFFFF;}
	.st3{opacity:0.2;fill:#33ADFF;}
	.st4{opacity:0.31;fill:url(#SVGID_2_);}
	.st5{fill:#4553C7;}
	.st6{opacity:0.5;fill:#242993;}
	.st7{fill:url(#SVGID_3_);}
	.st8{fill:url(#SVGID_4_);}
	.st9{fill:#242993;}
	.st10{fill:#42FFFF;}
	.st11{fill:url(#SVGID_5_);}
	.st12{fill:url(#SVGID_6_);}
	.st13{fill:url(#SVGID_7_);}
	.st14{opacity:0.51;}
	.st15{fill:#5778FF;}
	.st16{fill:#BCD5FF;}
	.st17{fill:#E9FFFF;}
	.st18{opacity:0.11;}
	.st19{opacity:0.6;fill:#242993;}
	.st20{fill:url(#SVGID_10_);}
	.st21{fill:url(#SVGID_11_);}
	.st22{opacity:0.96;fill:url(#SVGID_12_);}
	.st23{opacity:0.8;fill:#4553C7;}
	.st24{fill:url(#SVGID_13_);}
	.st25{fill:url(#SVGID_14_);}
	.st26{fill:url(#SVGID_15_);}
	.st27{fill:url(#SVGID_16_);}
	.st28{fill:#162184;}
	.st29{fill:#485DCE;}
	.st30{fill:#FCE8EE;}
	.st31{fill:#F0FFFF;}
	.st32{fill:#AA9AAC;}
	.st33{fill:#C4E3FF;}
	.st34{fill:#E2C8CF;}
	.st35{fill:#1B4263;}
	.st36{fill:#938496;}
	.st37{fill:url(#SVGID_17_);}
	.st38{opacity:0.32;}
	.st39{fill:#DD821F;}
	.st40{fill:#FFD85A;}
	.st41{fill:#F9BF30;}
	.st42{fill:#F2B42A;}
</style>
<linearGradient id="SVGID_1_" gradientUnits="userSpaceOnUse" x1="520.3835" y1="10.9752" x2="-289.2626" y2="660.2204">
	<stop  offset="0" style="stop-color:#4482CC"/>
	<stop  offset="3.720858e-02" style="stop-color:#447ECC"/>
	<stop  offset="0.4677" style="stop-color:#4553C7"/>
	<stop  offset="0.5964" style="stop-color:#3B44BC"/>
	<stop  offset="0.8439" style="stop-color:#2B2DAB"/>
	<stop  offset="1" style="stop-color:#2525A5"/>
</linearGradient>
<rect x="-126.8" y="-11.8" class="st0" width="700" height="522.2"/>
<g class="st1">
	<path class="st2" d="M461.5,255c-0.1,0-0.2,0-0.3-0.1L339,184.3c-2.3-1.3-3.5-3.1-3.5-5s1.2-3.7,3.5-5l79.6-46
		c1.8-1.1,2.9-2.4,2.9-3.9s-1-2.8-2.9-3.9L283.8,42.8c-4.1-2.3-10.7-2.3-14.7,0l-45.2,26.1c-1.8,1.1-2.9,2.4-2.9,3.9
		c0,1.4,1,2.8,2.9,3.9l67.2,38.8c2.3,1.3,3.5,3.1,3.5,5c0,1.9-1.2,3.7-3.5,5l-100.5,58c-4.4,2.5-11.6,2.5-16,0L107.8,145
		c-0.3-0.2-0.4-0.6-0.2-0.9c0.2-0.3,0.6-0.4,0.9-0.2l66.7,38.5c4.1,2.3,10.7,2.3,14.7,0l100.5-58c1.8-1.1,2.9-2.4,2.9-3.9
		c0-1.4-1-2.8-2.9-3.9l-67.2-38.8c-2.3-1.3-3.5-3.1-3.5-5c0-1.9,1.2-3.7,3.5-5l45.2-26.1c4.4-2.5,11.6-2.5,16,0l134.8,77.8
		c2.3,1.3,3.5,3.1,3.5,5c0,1.9-1.2,3.7-3.5,5l-79.6,46c-1.8,1.1-2.9,2.4-2.9,3.9s1,2.8,2.9,3.9l122.2,70.6c0.3,0.2,0.4,0.6,0.2,0.9
		C461.9,254.9,461.7,255,461.5,255z"/>
	<path class="st2" d="M432.4,202.1c-0.2,0-0.4-0.1-0.5-0.3c-0.2-0.3-0.1-0.7,0.2-0.9l118.7-68.5c2.5-1.5,4-3.4,4-5.4s-1.4-3.9-4-5.4
		L436.9,55.9c-5.5-3.2-14.5-3.2-20,0l-25.4,14.7c-0.3,0.2-0.7,0.1-0.9-0.2c-0.2-0.3-0.1-0.7,0.2-0.9l25.4-14.7
		c5.8-3.4,15.4-3.4,21.2,0l113.8,65.7c3,1.7,4.6,4,4.6,6.5c0,2.5-1.6,4.8-4.6,6.5L432.7,202C432.6,202.1,432.5,202.1,432.4,202.1z"
		/>
	<path class="st2" d="M149.8,391.6c-3.3,0-6.5-0.7-9-2.1l-162.6-93.9c-2.5-1.5-3.9-3.4-3.9-5.6s1.4-4.1,3.9-5.6l55.5-32
		c5-2.9,13-2.9,18,0l102.6,59.2c4.6,2.7,12.1,2.7,16.7,0l138.4-79.9c2.1-1.2,3.3-2.8,3.3-4.5c0-1.7-1.2-3.3-3.3-4.5l-40.9-23.6
		c-4.6-2.7-12.1-2.7-16.7,0l-80.1,46.3c-5,2.9-13,2.9-18,0L41.7,180.9c-4.6-2.7-12.1-2.7-16.7,0l-119.5,69c-0.3,0.2-0.7,0.1-0.9-0.2
		c-0.2-0.3-0.1-0.7,0.2-0.9l119.5-69c5-2.9,13-2.9,18,0l111.9,64.6c4.6,2.7,12.1,2.7,16.7,0l80.1-46.3c5-2.9,13-2.9,18,0l40.9,23.6
		c2.5,1.5,3.9,3.4,3.9,5.6c0,2.1-1.4,4.1-3.9,5.6l-138.4,79.9c-5,2.9-13,2.9-18,0L51.1,253.6c-4.6-2.7-12.1-2.7-16.7,0l-55.5,32
		c-2.1,1.2-3.3,2.8-3.3,4.5c0,1.7,1.2,3.3,3.3,4.5l162.6,93.9c4.6,2.7,12.1,2.7,16.7,0L368.6,267c0.3-0.2,0.7-0.1,0.9,0.2
		c0.2,0.3,0.1,0.7-0.2,0.9L158.8,389.5C156.3,390.9,153.1,391.6,149.8,391.6z"/>
	<path class="st2" d="M305.4,345.2c-0.1,0-0.2,0-0.3-0.1l-35-20.2c-0.3-0.2-0.4-0.6-0.2-0.9c0.2-0.3,0.6-0.4,0.9-0.2l35,20.2
		c0.3,0.2,0.4,0.6,0.2,0.9C305.8,345,305.6,345.2,305.4,345.2z"/>
	<path class="st2" d="M209.8,123.1c-0.2,0-0.4-0.1-0.5-0.3c-0.2-0.3-0.1-0.7,0.2-0.9l46-26.6c0.3-0.2,0.7-0.1,0.9,0.2
		c0.2,0.3,0.1,0.7-0.2,0.9l-46,26.6C210,123.1,209.9,123.1,209.8,123.1z"/>
	<path class="st2" d="M554.2,201.5c-0.1,0-0.2,0-0.3-0.1l-60.4-34.9c-0.3-0.2-0.4-0.6-0.2-0.9c0.2-0.3,0.6-0.4,0.9-0.2l60.4,34.9
		c0.3,0.2,0.4,0.6,0.2,0.9C554.6,201.4,554.4,201.5,554.2,201.5z"/>
	<path class="st2" d="M210.3,134.8h-20.7c-0.3,0-0.6-0.3-0.6-0.6v-12c0-0.2,0.1-0.3,0.2-0.4c0.1-0.1,0.3-0.2,0.4-0.2l0,0l20.7,0
		c0.3,0,0.6,0.3,0.6,0.6l0,12c0,0.2-0.1,0.3-0.2,0.4C210.6,134.8,210.4,134.8,210.3,134.8z M190.2,133.6h19.5l0-10.7l-19.5,0V133.6z
		"/>
	<path class="st2" d="M458.1,108.6h-20.7c-0.3,0-0.6-0.3-0.6-0.6V96c0-0.3,0.3-0.6,0.6-0.6h20.7c0.3,0,0.6,0.3,0.6,0.6v12
		C458.8,108.3,458.5,108.6,458.1,108.6z M438,107.4h19.5V96.6H438V107.4z"/>
	<path class="st2" d="M154.8,363.9c-4,0-8-0.9-11.1-2.6c-3.1-1.8-4.8-4.2-4.8-6.8c0-2.6,1.7-5,4.8-6.8c6.1-3.5,16.1-3.5,22.2,0
		c3.1,1.8,4.8,4.2,4.8,6.8c0,2.6-1.7,5-4.8,6.8C162.8,363,158.8,363.9,154.8,363.9z M154.8,346.3c-3.8,0-7.6,0.8-10.5,2.5
		c-2.7,1.5-4.2,3.6-4.2,5.7s1.5,4.1,4.2,5.7c5.8,3.3,15.2,3.3,20.9,0c2.7-1.5,4.2-3.6,4.2-5.7s-1.5-4.1-4.2-5.7h0
		C162.4,347.1,158.6,346.3,154.8,346.3z"/>
	<path class="st2" d="M116,341.5c-4,0-8-0.9-11.1-2.6c-3.1-1.8-4.8-4.2-4.8-6.8c0-2.6,1.7-5,4.8-6.8c6.1-3.5,16.1-3.5,22.2,0h0
		c3.1,1.8,4.8,4.2,4.8,6.8c0,2.6-1.7,5-4.8,6.8C124.1,340.6,120.1,341.5,116,341.5z M116,323.9c-3.8,0-7.6,0.8-10.5,2.5
		c-2.7,1.5-4.2,3.6-4.2,5.7c0,2.1,1.5,4.1,4.2,5.7c5.8,3.3,15.2,3.3,20.9,0c2.7-1.5,4.2-3.6,4.2-5.7c0-2.1-1.5-4.1-4.2-5.7
		C123.6,324.7,119.8,323.9,116,323.9z"/>
	<path class="st2" d="M77.3,319.1c-4,0-8-0.9-11.1-2.6c-3.1-1.8-4.8-4.2-4.8-6.8c0-2.6,1.7-5,4.8-6.8c6.1-3.5,16.1-3.5,22.2,0
		c0,0,0,0,0,0c3.1,1.8,4.8,4.2,4.8,6.8c0,2.6-1.7,5-4.8,6.8C85.3,318.2,81.3,319.1,77.3,319.1z M77.3,301.5c-3.8,0-7.6,0.8-10.5,2.5
		c-2.7,1.5-4.2,3.6-4.2,5.7c0,2.1,1.5,4.1,4.2,5.7c5.8,3.3,15.2,3.3,20.9,0c2.7-1.5,4.2-3.6,4.2-5.7c0-2.1-1.5-4.1-4.2-5.7
		C84.9,302.4,81.1,301.5,77.3,301.5z"/>
	<path class="st2" d="M38.5,296.8c-4,0-8-0.9-11.1-2.6c-3.1-1.8-4.8-4.2-4.8-6.8c0-2.6,1.7-5,4.8-6.8c6.1-3.5,16.1-3.5,22.2,0l0,0
		c3.1,1.8,4.8,4.2,4.8,6.8c0,2.6-1.7,5-4.8,6.8C46.6,295.9,42.6,296.8,38.5,296.8z M38.5,279.2c-3.8,0-7.6,0.8-10.5,2.5
		c-2.7,1.5-4.2,3.6-4.2,5.7c0,2.1,1.5,4.1,4.2,5.7c5.8,3.3,15.2,3.3,20.9,0c2.7-1.5,4.2-3.6,4.2-5.7c0-2.1-1.5-4.1-4.2-5.7l0,0
		C46.1,280,42.3,279.2,38.5,279.2z"/>
	<path class="st2" d="M49.3,281.7c-0.2,0-0.4-0.1-0.5-0.3c-0.2-0.3-0.1-0.7,0.2-0.9l25.3-14.6c0.3-0.2,0.7-0.1,0.9,0.2
		c0.2,0.3,0.1,0.7-0.2,0.9l-25.3,14.6C49.5,281.7,49.4,281.7,49.3,281.7z"/>
	<path class="st2" d="M188.2,372.4c-0.1,0-0.2,0-0.3-0.1l-21-12.3c-0.3-0.2-0.4-0.6-0.2-0.9c0.2-0.3,0.6-0.4,0.9-0.2l21,12.3
		c0.3,0.2,0.4,0.6,0.2,0.9C188.7,372.3,188.5,372.4,188.2,372.4z"/>
	<path class="st2" d="M326.1,357.1h-20.7c-0.3,0-0.6-0.3-0.6-0.6l0-12c0-0.2,0.1-0.3,0.2-0.4c0.1-0.1,0.3-0.2,0.4-0.2h20.7
		c0.3,0,0.6,0.3,0.6,0.6v12C326.7,356.8,326.5,357.1,326.1,357.1z M306,355.9h19.5v-10.7H306L306,355.9z"/>
</g>
<polygon class="st3" points="-126.8,313.8 407.6,0.2 -126.8,0.2 "/>
<linearGradient id="SVGID_2_" gradientUnits="userSpaceOnUse" x1="-126.7596" y1="160.0011" x2="419.0229" y2="160.0011">
	<stop  offset="0" style="stop-color:#2525A5"/>
	<stop  offset="1" style="stop-color:#2525A5"/>
</linearGradient>
<polygon class="st4" points="-126.8,319.8 419,0.2 407.6,0.2 -126.8,313.8 "/>
<path class="st5" d="M57.6,49.2H25.5c-3.7,0-6.8-3-6.8-6.8v0c0-3.7,3-6.8,6.8-6.8h32.1c3.7,0,6.8,3,6.8,6.8v0
	C64.4,46.2,61.3,49.2,57.6,49.2z"/>
<path class="st6" d="M232.4,390.9l-90.5-52.2c-1.7-1-1.5-2.7,0.5-3.8l220.4-127.2l63.5,74.9L239,390.7
	C237.1,391.8,234.1,391.9,232.4,390.9z"/>
<g>
	<path class="st6" d="M501.2,75.9l-41.8-24.1c-0.9-0.5-0.8-1.4,0.3-2l12.3-7.1l45.1,26l-12.3,7.1C503.7,76.4,502.1,76.4,501.2,75.9z
		"/>
	<g>
		<linearGradient id="SVGID_3_" gradientUnits="userSpaceOnUse" x1="541.4368" y1="18.4107" x2="471.259" y2="74.6854">
			<stop  offset="0" style="stop-color:#BCD5FF"/>
			<stop  offset="0.151" style="stop-color:#A3BEFF"/>
			<stop  offset="0.3866" style="stop-color:#82A0FF"/>
			<stop  offset="0.6124" style="stop-color:#6A8AFF"/>
			<stop  offset="0.8221" style="stop-color:#5C7DFF"/>
			<stop  offset="1" style="stop-color:#5778FF"/>
		</linearGradient>
		<path class="st7" d="M560.7,43v-8.3l-13.6,0L517,17.3c-0.7-0.4-2-0.4-2.9,0.1l-30,17.3l-13.5,0l0,8.4h0c0,0.3,0.2,0.5,0.5,0.7
			l43.2,24.9c0.7,0.4,2,0.4,2.9-0.1L560,43.9C560.4,43.7,560.7,43.4,560.7,43z"/>
		
			<linearGradient id="SVGID_4_" gradientUnits="userSpaceOnUse" x1="9.081" y1="308.4427" x2="-54.7122" y2="359.5977" gradientTransform="matrix(0.866 0.5 -1 0.5774 855.2784 -147.057)">
			<stop  offset="0" style="stop-color:#C0D6FF"/>
			<stop  offset="0.2978" style="stop-color:#C5DBFF"/>
			<stop  offset="0.6488" style="stop-color:#D3E9FF"/>
			<stop  offset="1" style="stop-color:#E9FFFF"/>
		</linearGradient>
		<path class="st8" d="M514.3,60.4l-43.2-24.9c-0.7-0.4-0.6-1.2,0.2-1.7l42.8-24.7c0.9-0.5,2.1-0.5,2.9-0.1l43.2,24.9
			c0.7,0.4,0.6,1.2-0.2,1.7l-42.8,24.7C516.3,60.8,515.1,60.8,514.3,60.4z"/>
		<path class="st9" d="M514.5,57.5l-38.3-22.1c-0.7-0.4-0.6-1,0.2-1.5L514.3,12c0.8-0.4,1.9-0.5,2.6-0.1L555.1,34
			c0.7,0.4,0.6,1-0.2,1.5L517,57.4C516.3,57.8,515.1,57.9,514.5,57.5z"/>
		<path class="st5" d="M514.6,55.7l-35.2-20.3c-0.6-0.3-0.5-1,0.2-1.4l34.8-20.1c0.7-0.4,1.7-0.4,2.3-0.1l35.2,20.3
			c0.6,0.3,0.5,1-0.2,1.4l-34.8,20.1C516.2,56,515.2,56,514.6,55.7z"/>
	</g>
	<g>
		<polygon class="st10" points="514.8,33.4 510.7,31 513,29.7 517.1,32.1 		"/>
		<polygon class="st10" points="522.5,33.1 518.4,35.4 516.1,34.1 520.2,31.8 		"/>
		<polygon class="st10" points="513.9,33.9 511.7,35.2 509.4,33.9 511.7,32.6 		"/>
		<polygon class="st10" points="521.7,38.4 519.4,39.7 512.9,36 515.2,34.7 		"/>
	</g>
</g>
<g>
	<g>
		<g>
			<g>
				<g>
					
						<linearGradient id="SVGID_5_" gradientUnits="userSpaceOnUse" x1="31.337" y1="283.6635" x2="31.337" y2="10.5028" gradientTransform="matrix(-1 0 0 1 414.3235 0)">
						<stop  offset="0" style="stop-color:#5778FF"/>
						<stop  offset="0.1779" style="stop-color:#5C7DFF"/>
						<stop  offset="0.3876" style="stop-color:#6A8AFF"/>
						<stop  offset="0.6134" style="stop-color:#82A0FF"/>
						<stop  offset="0.849" style="stop-color:#A3BEFF"/>
						<stop  offset="1" style="stop-color:#BCD5FF"/>
					</linearGradient>
					<path class="st11" d="M330.1,16.7l10.6-6.1l0,0c0.4-0.2,1-0.2,1.6,0.1l91.2,52.6c1.4,0.8,2.5,2.9,2.5,4.7v207.4
						c0,1-0.3,1.7-0.9,2l0,0l-10.6,6.1l-0.2-11.5l-82-47.3c-1.4-0.8-2.5-2.9-2.5-4.7V22.2c-0.2,0.7-0.4,1.2-0.4,1.2
						C339.3,23.4,330.1,16.7,330.1,16.7z"/>
					
						<linearGradient id="SVGID_6_" gradientUnits="userSpaceOnUse" x1="-5.651" y1="83.315" x2="-5.651" y2="63.7459" gradientTransform="matrix(-1 0 0 1 414.3235 0)">
						<stop  offset="0" style="stop-color:#C0D6FF"/>
						<stop  offset="0.2978" style="stop-color:#C5DBFF"/>
						<stop  offset="0.6488" style="stop-color:#D3E9FF"/>
						<stop  offset="1" style="stop-color:#E9FFFF"/>
					</linearGradient>
					<path class="st12" d="M435.8,67.4l-27.5,15.9l-4.2-2.4l29.7-17.2C434.8,64.5,435.6,66,435.8,67.4z"/>
					
						<linearGradient id="SVGID_7_" gradientUnits="userSpaceOnUse" x1="66.2745" y1="482.4783" x2="66.2745" y2="297.1395" gradientTransform="matrix(-0.866 -0.5 0 1.1547 434.6996 -266.8023)">
						<stop  offset="0" style="stop-color:#C0D6FF"/>
						<stop  offset="0.2978" style="stop-color:#C5DBFF"/>
						<stop  offset="0.6488" style="stop-color:#D3E9FF"/>
						<stop  offset="1" style="stop-color:#E9FFFF"/>
					</linearGradient>
					<path class="st13" d="M331.7,230.9l91.2,52.6c1.4,0.8,2.5,0,2.5-1.9V74.2c0-1.8-1.1-4-2.5-4.7l-91.2-52.6
						c-1.4-0.8-2.5,0-2.5,1.9v207.4C329.2,227.9,330.3,230.1,331.7,230.9z"/>
					<polygon class="st9" points="329.2,214.8 425.4,270.3 425.4,85.6 329.2,30.1 					"/>
					<polygon class="st9" points="329.2,214.8 425.4,270.3 425.4,85.6 329.2,30.1 					"/>
					<g class="st14">
						<polygon class="st5" points="329.2,208.3 425.4,263.8 425.4,91.5 329.2,36 						"/>
					</g>
					<path class="st15" d="M369.8,48.2l17.4,10.1c0.5,0.3,0.9,0.4,1.1-0.1c0.1-0.2,0.1-0.4,0.1-0.6l0,0c0-0.9-0.6-2-1.2-2.3
						l-17.6-10.1c-0.1,0-0.1-0.1-0.2-0.1c-0.6,0.2-0.6,0.3-0.6,1.1l0.1,0.2C368.9,47.2,369.1,47.8,369.8,48.2z"/>
					<path class="st16" d="M369.5,45c-0.1,0.2-0.1,0.4-0.1,0.6c0,0.9,0.6,2,1.2,2.3l17.6,10.1c0.1,0,0.1,0,0.2,0.1
						c-0.2,0.5-0.6,0.6-1.1,0.3l-17.6-10.1c-0.7-0.4-1.2-1.4-1.2-2.3C368.4,45.2,368.9,44.8,369.5,45z"/>
					<g>
						<path class="st17" d="M431,91.4l0.2-0.1c0.3-0.2,0.6-0.2,0.8-0.1l0,0l0.7,0.4l-0.4,0c0.1,0.2,0.1,0.4,0.1,0.6v12
							c0,1-0.6,2.1-1.3,2.5L431,107c-0.1,0.1-0.2,0.1-0.3,0.1l0.2,0.4l-0.8-0.5l0,0c-0.3-0.2-0.5-0.5-0.5-1.1V94
							C429.7,93,430.2,91.9,431,91.4z"/>
						<path class="st16" d="M431.7,107.4l0.2-0.1c0.7-0.4,1.3-1.6,1.3-2.5v-12c0-1-0.6-1.4-1.3-1l-0.2,0.1c-0.7,0.4-1.3,1.6-1.3,2.5
							v12C430.4,107.4,431,107.9,431.7,107.4z"/>
					</g>
					<g>
						<path class="st17" d="M431,109.8l0.2-0.1c0.3-0.2,0.6-0.2,0.8-0.1l0,0l0.7,0.4l-0.4,0c0.1,0.2,0.1,0.4,0.1,0.6v12
							c0,1-0.6,2.1-1.3,2.5l-0.2,0.1c-0.1,0.1-0.2,0.1-0.3,0.1l0.2,0.4l-0.8-0.5l0,0c-0.3-0.2-0.5-0.5-0.5-1.1v-12
							C429.7,111.3,430.2,110.2,431,109.8z"/>
						<path class="st16" d="M431.7,125.8l0.2-0.1c0.7-0.4,1.3-1.6,1.3-2.5v-12c0-1-0.6-1.4-1.3-1l-0.2,0.1c-0.7,0.4-1.3,1.6-1.3,2.5
							v12C430.4,125.7,431,126.2,431.7,125.8z"/>
					</g>
				</g>
			</g>
			<g class="st18">
				<defs>
					<polygon id="SVGID_8_" class="st18" points="329.2,208.3 425.4,263.8 425.4,91.5 329.2,36 					"/>
				</defs>
				<clipPath id="SVGID_9_">
					<use xlink:href="#SVGID_8_"  style="overflow:visible;"/>
				</clipPath>
			</g>
			<path class="st19" d="M329.2,226.1V109.2c3.5-9.8,10.6-19.3,18.8-24l0,0l64.1,37c-11.7,6.8-21.2,23.2-21.2,36.7v102.4
				c0,1.2-0.1,2.3-0.3,3.5l-59-34C330.3,230.1,329.2,227.9,329.2,226.1z"/>
			<g>
				<g>
					
						<linearGradient id="SVGID_10_" gradientUnits="userSpaceOnUse" x1="11.5" y1="145.8703" x2="54.7482" y2="67.9958" gradientTransform="matrix(-1 0 0 1 414.3235 0)">
						<stop  offset="0" style="stop-color:#5778FF"/>
						<stop  offset="3.979178e-02" style="stop-color:#5C7DFF"/>
						<stop  offset="8.669901e-02" style="stop-color:#6A8AFF"/>
						<stop  offset="0.1372" style="stop-color:#82A0FF"/>
						<stop  offset="0.1899" style="stop-color:#A3BEFF"/>
						<stop  offset="0.2237" style="stop-color:#BCD5FF"/>
					</linearGradient>
					<path class="st20" d="M329.9,72.3l6.5-3.8v0c0.1-0.1,0.2-0.1,0.3,0l81.7,47.2c0.3,0.2,0.5,0.6,0.5,0.9v15.4
						c0,0.2-0.1,0.3-0.1,0.4l0,0l0,0c0,0,0,0,0,0l-6.6,3.8l-0.1-7.5l-75.4-43.5c-0.3-0.2-0.5-0.6-0.5-0.9v-5.3L329.9,72.3z"/>
					
						<linearGradient id="SVGID_11_" gradientUnits="userSpaceOnUse" x1="64.6299" y1="146.1465" x2="35.844" y2="89.8731" gradientTransform="matrix(-1 0 0 1 414.3235 0)">
						<stop  offset="0" style="stop-color:#C0D6FF"/>
						<stop  offset="0.2978" style="stop-color:#C5DBFF"/>
						<stop  offset="0.6488" style="stop-color:#D3E9FF"/>
						<stop  offset="1" style="stop-color:#E9FFFF"/>
					</linearGradient>
					<path class="st21" d="M330.2,89.1l81.7,47.2c0.3,0.2,0.5,0,0.5-0.4v-15.4c0-0.4-0.2-0.8-0.5-0.9l-81.7-47.2
						c-0.3-0.2-0.5,0-0.5,0.4v15.4C329.7,88.5,330,88.9,330.2,89.1z"/>
					<path class="st19" d="M341.5,86l63.6,37.4c-2,1.7-3.8,3.6-5.5,5.8l-64.1-37C337.3,89.8,339.4,87.7,341.5,86z"/>
					<path class="st9" d="M332.6,84.4l77.1,44.5c0.2,0.1,0.3,0,0.3-0.2v-3.9c0-0.2-0.1-0.5-0.3-0.6l-77.1-44.5
						c-0.2-0.1-0.3,0-0.3,0.2v3.9C332.2,84.1,332.4,84.3,332.6,84.4z"/>
					<path class="st5" d="M332.6,79.7l1.6,0.9v2.1c0,0.2,0.1,0.5,0.3,0.6l75.5,43.6v1.8c0,0.2-0.1,0.4-0.3,0.2l-77.1-44.5
						c-0.2-0.1-0.3-0.4-0.3-0.6v-3.9C332.2,79.7,332.4,79.6,332.6,79.7z"/>
				</g>
				
					<linearGradient id="SVGID_12_" gradientUnits="userSpaceOnUse" x1="106.5429" y1="264.7251" x2="16.3386" y2="104.8914" gradientTransform="matrix(-1 0 0 1 414.3235 0)">
					<stop  offset="0" style="stop-color:#C0D6FF"/>
					<stop  offset="0.1196" style="stop-color:#D0E6FF"/>
					<stop  offset="0.2627" style="stop-color:#E9FFFF"/>
					<stop  offset="0.5143" style="stop-color:#C0D6FF"/>
					<stop  offset="0.6239" style="stop-color:#D0E6FF"/>
					<stop  offset="0.755" style="stop-color:#E9FFFF"/>
					<stop  offset="1" style="stop-color:#C0D6FF"/>
				</linearGradient>
				<path class="st22" d="M364.3,291l-64.1-37l0,0c10-5.8,18-19.7,18-31.3V120.4c0-13.5,9.5-30,21.2-36.7l0,0l64.1,37h0
					c-11.7,6.8-21.2,23.2-21.2,36.7v102.4C382.4,271.3,374.3,285.3,364.3,291L364.3,291z"/>
				<path class="st23" d="M339.5,83.7l64.1,37c-0.5,0.3-1,0.6-1.5,1l0,0l-64.1-37C338.4,84.3,338.9,84,339.5,83.7z"/>
			</g>
		</g>
		<g>
			<polygon class="st10" points="411.7,161.3 414.2,162.7 414.2,161 411.7,159.6 			"/>
			<polygon class="st10" points="411.7,172.7 414.2,174.2 414.2,164.3 411.7,162.8 			"/>
			<polygon class="st10" points="411.7,178.2 414.2,179.7 414.2,175.7 411.7,174.3 			"/>
			<polygon class="st10" points="411.7,183.9 414.2,185.4 414.2,181.4 411.7,180 			"/>
			<polygon class="st10" points="407.9,164.6 410.4,166 410.4,162.1 407.9,160.6 			"/>
			<polygon class="st10" points="407.9,172.1 410.4,173.6 410.4,167.8 407.9,166.3 			"/>
			<polygon class="st10" points="407.9,179 410.4,180.5 410.4,175.5 407.9,174.1 			"/>
			<polygon class="st10" points="411.7,189.6 414.2,191 414.2,187.1 411.7,185.6 			"/>
			<polygon class="st10" points="407.9,159.1 410.4,160.5 410.4,158.9 407.9,157.4 			"/>
		</g>
		<polygon class="st10" points="409.8,194 414.2,196.5 414.2,194.9 409.8,192.4 		"/>
	</g>
</g>
<g>
	<path class="st6" d="M23.3,319.7l-41.8-24.1c-0.9-0.5-0.8-1.4,0.3-2l12.3-7.1l45.1,26l-12.3,7.1C25.8,320.1,24.2,320.2,23.3,319.7z
		"/>
	<g>
		<linearGradient id="SVGID_13_" gradientUnits="userSpaceOnUse" x1="63.5413" y1="262.164" x2="-6.6364" y2="318.4386">
			<stop  offset="0" style="stop-color:#BCD5FF"/>
			<stop  offset="0.151" style="stop-color:#A3BEFF"/>
			<stop  offset="0.3866" style="stop-color:#82A0FF"/>
			<stop  offset="0.6124" style="stop-color:#6A8AFF"/>
			<stop  offset="0.8221" style="stop-color:#5C7DFF"/>
			<stop  offset="1" style="stop-color:#5778FF"/>
		</linearGradient>
		<path class="st24" d="M82.8,286.8v-8.3l-13.6,0l-30.1-17.4c-0.7-0.4-2-0.4-2.9,0.1l-30,17.3l-13.5,0l0,8.4h0
			c0,0.3,0.2,0.5,0.5,0.7l43.2,24.9c0.7,0.4,2,0.4,2.9-0.1l42.8-24.7C82.5,287.4,82.8,287.1,82.8,286.8z"/>
		
			<linearGradient id="SVGID_14_" gradientUnits="userSpaceOnUse" x1="-23.1017" y1="758.468" x2="-86.8949" y2="809.623" gradientTransform="matrix(0.866 0.5 -1 0.5774 855.2784 -147.057)">
			<stop  offset="0" style="stop-color:#C0D6FF"/>
			<stop  offset="0.2978" style="stop-color:#C5DBFF"/>
			<stop  offset="0.6488" style="stop-color:#D3E9FF"/>
			<stop  offset="1" style="stop-color:#E9FFFF"/>
		</linearGradient>
		<path class="st25" d="M36.4,304.2l-43.2-24.9c-0.7-0.4-0.6-1.2,0.2-1.7l42.8-24.7c0.9-0.5,2.1-0.5,2.9-0.1l43.2,24.9
			c0.7,0.4,0.6,1.2-0.2,1.7l-42.8,24.7C38.4,304.5,37.2,304.6,36.4,304.2z"/>
		<path class="st9" d="M36.6,301.3l-38.3-22.1c-0.7-0.4-0.6-1,0.2-1.5l37.9-21.9c0.8-0.4,1.9-0.5,2.6-0.1l38.3,22.1
			c0.7,0.4,0.6,1-0.2,1.5l-37.9,21.9C38.4,301.6,37.2,301.6,36.6,301.3z"/>
		<path class="st5" d="M36.7,299.4L1.5,279.1c-0.6-0.3-0.5-1,0.2-1.4l34.8-20.1c0.7-0.4,1.7-0.4,2.3-0.1L74,277.8
			c0.6,0.3,0.5,1-0.2,1.4L39,299.3C38.3,299.7,37.3,299.8,36.7,299.4z"/>
	</g>
	<g>
		<polygon class="st10" points="36.9,277.1 32.8,274.8 35.1,273.5 39.2,275.8 		"/>
		<polygon class="st10" points="44.6,276.8 40.5,279.2 38.2,277.9 42.3,275.5 		"/>
		<polygon class="st10" points="36,277.7 33.8,279 31.5,277.7 33.8,276.4 		"/>
		<polygon class="st10" points="43.8,282.2 41.5,283.5 35.1,279.7 37.3,278.4 		"/>
	</g>
</g>
<g>
	<path class="st6" d="M511.4,224.7l-41.8-24.1c-0.9-0.5-0.8-1.4,0.3-2l12.3-7.1l45.1,26l-12.3,7.1
		C513.9,225.1,512.3,225.2,511.4,224.7z"/>
	<g>
		<linearGradient id="SVGID_15_" gradientUnits="userSpaceOnUse" x1="551.5751" y1="167.1673" x2="481.3973" y2="223.442">
			<stop  offset="0" style="stop-color:#BCD5FF"/>
			<stop  offset="0.151" style="stop-color:#A3BEFF"/>
			<stop  offset="0.3866" style="stop-color:#82A0FF"/>
			<stop  offset="0.6124" style="stop-color:#6A8AFF"/>
			<stop  offset="0.8221" style="stop-color:#5C7DFF"/>
			<stop  offset="1" style="stop-color:#5778FF"/>
		</linearGradient>
		<path class="st26" d="M570.8,191.8v-8.3l-13.6,0l-30.1-17.4c-0.7-0.4-2-0.4-2.9,0.1l-30,17.3l-13.5,0l0,8.4h0
			c0,0.3,0.2,0.5,0.5,0.7l43.2,24.9c0.7,0.4,2,0.4,2.9-0.1l42.8-24.7C570.6,192.4,570.8,192.1,570.8,191.8z"/>
		
			<linearGradient id="SVGID_16_" gradientUnits="userSpaceOnUse" x1="163.6871" y1="432.1933" x2="99.8939" y2="483.3482" gradientTransform="matrix(0.866 0.5 -1 0.5774 855.2784 -147.057)">
			<stop  offset="0" style="stop-color:#C0D6FF"/>
			<stop  offset="0.2978" style="stop-color:#C5DBFF"/>
			<stop  offset="0.6488" style="stop-color:#D3E9FF"/>
			<stop  offset="1" style="stop-color:#E9FFFF"/>
		</linearGradient>
		<path class="st27" d="M524.5,209.2l-43.2-24.9c-0.7-0.4-0.6-1.2,0.2-1.7l42.8-24.7c0.9-0.5,2.1-0.5,2.9-0.1l43.2,24.9
			c0.7,0.4,0.6,1.2-0.2,1.7l-42.8,24.7C526.5,209.6,525.2,209.6,524.5,209.2z"/>
		<path class="st9" d="M524.6,206.3l-38.3-22.1c-0.7-0.4-0.6-1,0.2-1.5l37.9-21.9c0.8-0.4,1.9-0.5,2.6-0.1l38.3,22.1
			c0.7,0.4,0.6,1-0.2,1.5l-37.9,21.9C526.4,206.6,525.3,206.6,524.6,206.3z"/>
		<path class="st5" d="M524.7,204.4l-35.2-20.3c-0.6-0.3-0.5-1,0.2-1.4l34.8-20.1c0.7-0.4,1.7-0.4,2.3-0.1l35.2,20.3
			c0.6,0.3,0.5,1-0.2,1.4L527,204.3C526.4,204.7,525.3,204.8,524.7,204.4z"/>
	</g>
	<g>
		<polygon class="st10" points="525,182.1 520.9,179.8 523.1,178.5 527.2,180.8 		"/>
		<polygon class="st10" points="532.6,181.8 528.5,184.2 526.3,182.9 530.4,180.5 		"/>
		<polygon class="st10" points="524,182.7 521.8,184 519.6,182.7 521.8,181.4 		"/>
		<polygon class="st10" points="531.8,187.2 529.6,188.5 523.1,184.7 525.3,183.4 		"/>
	</g>
</g>
<g>
	<g>
		<path class="st28" d="M237.5,266.2l-0.1,0.4l-0.1-0.2c0,0-0.6,1.9-0.1,2.9c0.5,1,1.2,2.2,2.2,3.5c1,1.3,2.7,4.1,3.1,4.7
			c0.4,0.5,2.9,2.6,6.1,3c3.1,0.3,3.9-1.5,3.7-2.4c-0.3-1-1.9-3.5-3.8-5.6c-1.8-2.1-3.2-4.8-3.2-4.8L237.5,266.2z"/>
		<path class="st28" d="M246.9,257.7c0,0-0.1,2,0.1,2.8c0.2,0.8,4.8,1.1,6.4,1.3c1.6,0.2,4.5,1.4,5.4,1.8c0.9,0.4,6.9,1.1,7.6-1.1
			c0.7-2.2-3-4-5.5-4.6c-2.5-0.6-6.6-1.8-6.6-1.8L246.9,257.7z"/>
		<path class="st9" d="M231,218c0,0-0.2,5.6,1.7,13.4c1.9,7.8,1.6,13.2,1.6,13.2s-2,8.8-0.2,14.8c1.7,6,3.2,7.7,3.2,7.7
			s3.4,4.6,8,0.5c0,0-2.5-8.2-2.8-14.8c0,0,2.2-4.8,3-9.1c0,0,0.6,6.8,1,9.6c0,0-0.4,4.1,0.7,5.7c1.1,1.6,5.9,2.1,7.5-0.7
			c1.6-2.8-1.3-1.5-0.4-14.5c0,0,4.5-5.6,5.1-15.9c0.6-10.3,0.6-14.3,0-16.4c-0.6-2-10.5-9.2-10.5-9.2l-5.6,7.2L231,218z"/>
		<path class="st28" d="M253.1,229.5c1.6-1.9,2.5-8,2.5-8s-2.5,5.1-4.3,6.6c-1.8,1.5-3.4,4.5-3.7,6.4c-0.3,1.9-2.2,9.1-2.2,9.1
			s0.6,6.8,1,9.6c0,0-0.4,4.1,0.7,5.7c0.2,0.3,0.6,0.6,1.1,0.8c0-0.1-0.3-9,0-12.8C248.5,243.1,251.5,231.5,253.1,229.5z"/>
		<path class="st29" d="M216.1,176.6c0,0-4.3,8.4-4.7,9c-0.4,0.6-8.4,10.9-9.2,16.8c0,0-0.6,2.3,2.2,4.3c2.8,2,16.7,10.9,17.5,11
			c0.9,0.1,5.9-2.3,6.1-7.8c0,0-10.9-5.1-13.3-7.6c0,0,4.2-7.1,6.3-9.2c0.5-0.5,0.8-1.5,1-2.6c0.7-4.7-1.2-9.4-4.7-12.6L216.1,176.6
			z"/>
		<path class="st9" d="M248.1,157c0,0,6.6,2.5,8.9,1.6c2.3-0.8,7.8-1.6,11.6-3.7c3.8-2.1,20.5-6.4,22.9-6.6c0,0,0,0.1-0.4,0.3
			c-0.4,0.2-2.1,0.3-2.6,2.3s0.6,4.3,0.8,4.4c0.3,0.2,0.4-0.5,2-1.3c1.6-0.7,2.6-0.7,2.6-0.7l0.6,0.8l0.4,0.6c0,0-0.8,2.3-2.9,2.5
			c-2.1,0.2-15.8,5.9-16.7,6.1c-0.9,0.3-12.4,5.2-14.5,6c-2.2,0.8-3.8,1.8-3.8,1.8s-6.7-4.5-6.9-4.5
			C249.9,166.6,248.1,157,248.1,157z"/>
		<path class="st30" d="M308.5,144.1c-0.5-0.6-6.8,1.2-6.8,1.2s-1.1-0.3-2.1-0.3c-1,0-3.8,2.2-4.8,2.7c-1,0.5-3.3,0.7-3.3,0.7
			c-5.5,1.1-2.4,7.2-2.2,7.1c0.2-0.1,1.7-1.1,2.2-1.3c0.5-0.2,1.3-0.4,1.3-0.4c0.2,0.1,1.4,0.7,2.1,0.9c0.8,0.2,2.6,0,3.5-0.6
			c0.8-0.5,3.3-0.8,3.4-0.7c0.1,0.1,0.5,0.3,0.5,0.3s0.2,0.6,0.6,0.8c0.5,0.2,1-1.1,1.2-1.2c0.2-0.1,0.9-0.6,1.1-0.8
			c0.1-0.2,0.5-3.7,0.4-4.4c-0.1-0.6-1.5-1.3-1.5-1.3s3.5-1.2,3.7-1.2C308.3,145.5,309,144.6,308.5,144.1z M302.3,150.5
			c-0.3,0.1-0.7,0.1-1.2,0.3c-0.5,0.2-1,0.5-1.5,0.4c0,0-0.6-1.1-0.2-1.4c0.5-0.4,0.9-0.7,0.9-0.7s0.9-0.2,0.9-0.3
			c0,0,0.5,0.4,1,0.1c0,0,0.5,0.8,1.3,0.8C303.5,149.7,302.6,150.4,302.3,150.5z"/>
		<path class="st28" d="M259.3,211.4c-0.6-2-10.5-9.2-10.5-9.2l-2.8,3.6l-2.4,9.3L231,219v0c0,0,0.7,6.3,11,5.6
			c10.3-0.7,11.5-8.7,11.5-8.7s1.1,2.6,6.2,3.3C259.9,214.9,259.7,212.7,259.3,211.4z"/>
		<path class="st5" d="M228.6,162.2l-1.7,4.5c0,0-8.4,7.3-10.8,9.9c0,0,4.2,8,4.9,16.4c0,0,3.8,3.1,5,4.6c1.2,1.4,4.1,8.1,5,10.3
			c0.9,2.2-1.7,8.8-1.7,8.8s3.6,6.6,9.3,6.4c5.8-0.2,9.7-3.7,10.4-10c0.7-6.2,0.5-7.2,0.5-7.2s2.6,7.7,6.5,7.7
			c3.9,0,10.1-6.7,10.1-6.7s4.2-3.8,3.8-5.5c-0.4-1.7-9.9-16.6-10.4-19.1c-0.5-2.5-2.7-11.2-2.7-11.2l-9-14.1l-5.5,0.3L228.6,162.2z
			"/>
		<path class="st31" d="M228.6,162.2c0,0,0,2.7,1,5.3c1.1,2.7,4.5,17.6,12.3,22.7l3,1.9v-9.5c0,0-0.1-5.8-1.4-9.6
			c-1.3-3.7-1.3-8.2-1.3-8.2s-2.2-0.6-2.2-0.6C240.1,164.3,228.6,162.2,228.6,162.2z"/>
		<path class="st30" d="M238.3,169.1c0,0,1.4,0.6,2-0.3c0.6-0.9,1.2-2.7,1.1-3.6c0,0,3.7,0.2,4.4-1.8c0.7-1.9-0.1-2.4-0.2-3
			s-0.2-2.2-0.7-3.3l-0.1-0.5c0,0,0.8-0.6,0.4-1.3c-0.3-0.7-2.4-2.8-2.6-3.1c-0.2-0.4,0.1-3-0.7-4.3c-0.8-1.3-2.3-3.1-2.3-3.1
			s-7.9-6.2-14.1,0c-6.2,6.2,3.1,17.5,3.1,17.5s0.7,3.7,2.6,5.1C233,168.8,238.3,169.1,238.3,169.1z"/>
		<path class="st32" d="M232.5,154.2c0-0.2,0-0.5-0.1-0.7c-0.2-0.7-0.6-2.5,1.3-3.9c2.4-1.7,6.5-3.3,6.4-5c-0.1-1.7-6.7-6-11.6-3.7
			c-4.9,2.3-9.4,8.1-6.1,14.2c3.3,6.1,6.2,7.1,6.2,7.1s1-0.2,0.1-1.2c-0.9-1-2.5-3.6-1.2-4.4c1.3-0.8,3.7,0.9,4,1.3
			c0.1,0.1,0.2,0.3,0.3,0.5c0.2,0.3,0.5,0.4,0.8,0.3l0.1-0.1c0.3-0.1,0.5-0.5,0.3-0.8l-0.6-1.6c-0.1-0.2-0.1-0.5-0.1-0.7
			L232.5,154.2z"/>
		<path class="st33" d="M238.1,170.9c0,0-1.8,1.2-2.8,3.6c0,0,1.9-1.9,2.9-2.3c0,0,2.1,1,2.1,1.6c0,0.6,0.2,4.5,0.7,6.6
			c0.5,2.1,0.4,9.4,0.4,9.4l1.3,0.9l0.6-3.2l-0.2-6.9l-1.2-6.2c0,0-0.2-2.4-0.3-2.5C241.4,171.8,238.1,170.9,238.1,170.9z"/>
		<path class="st9" d="M238.1,170.9c0,0,2-2.1,3-2.2c1,0,1.6,0.5,1.6,0.6c0,0.1,1,3.5,1,3.5s1.9,5.8,1.7,12.6
			c-0.2,6.8-0.4,6.7-0.4,6.7l-2.5-1.6c0,0,0.7-4.9-0.7-10.5c-1.4-5.6-0.2-6.5-0.8-7C240.3,172.4,237.7,171.6,238.1,170.9z"/>
		<path class="st9" d="M226,197.5c1.2,1.4,4,8.1,5,10.3c0.2,0.4,0.3,0.8,0.3,1.4c0.2,0.2,0.4,0.2,0.4,0.2l1.3-1.2
			c0,0-1.1-4.1-2.9-9.1c-1.8-5-9-6.2-9-6.2S224.8,196.1,226,197.5z"/>
		<path class="st30" d="M227.9,210c0,0,2-3,2.7-3.4c0,0-0.2,0.8,1,1.4c1.2,0.5,7.3,2.9,7.5,3.2c0.2,0.3,0,0.6-0.4,0.7
			c0,0,1.3,0.4,1.8,0.4c0.5,0,1.2,0.6,0.9,1.2c-0.3,0.6-0.6,0.5-0.6,0.5s0.2,0.6-0.2,0.8c-0.4,0.1-1.3,0.2-1.3,0.2s0.2,0.6-0.3,0.9
			c-0.5,0.2-3,0.5-3,0.5s-1.9-0.2-2.5-0.2c-0.5,0-3.1,0.6-4.1,0.5c-1.1-0.2-4.6-1.4-4.9-1.6C224,214.7,227.9,210,227.9,210z"/>
		<path class="st9" d="M226.5,168.1l0.3,4l2.2,0.7l-1.5,1.2c0,0,5.9,13.3,13.4,17.6c0,0-7.2-2.5-13.9-17.5c0,0,0.7-0.8,0.9-1.1
			l-1.5-0.7L226.5,168.1z"/>
		<path class="st9" d="M245.6,167.7c0,0,2.7,13.6,0.4,23.9c0,0,2.7-4.9,0.3-23.9H245.6z"/>
		<path class="st34" d="M305.6,147.8c-0.4-0.5-1.4-1-1.4-1s-2.8,1.2-3.3,1.4C300.9,148.2,303.8,147.9,305.6,147.8z"/>
		<path class="st34" d="M289.3,155.5c0.1,0,0.6-0.3,1-0.6v0c-1.9-2.5,0.2-6.2,0.2-6.2C286.4,150.2,289.1,155.5,289.3,155.5z"/>
		<path class="st34" d="M224.3,214.9c0.3,0.2,2.3,0.9,3.7,1.3c0,0,0.9-3.7,0.7-4.9c-0.2-1.2-0.7-1.5-0.7-1.5
			c-0.1,0.1-0.1,0.2-0.1,0.2S224,214.7,224.3,214.9z"/>
		<path class="st29" d="M227.9,209.8c0,0,0.6,2.1-0.8,3.8c-1.4,1.6-1.6,1.9-1.6,1.9h-1.6c0,0-0.9-2.6-0.7-2.7
			C223.3,212.7,227.9,209.8,227.9,209.8z"/>
		<path class="st9" d="M243.3,171.7L243.3,171.7c0,0,1.6,9.3,1.2,12.8c-0.4,3.4-0.2,7.1-0.2,7.1l0.5,0.4l0.1,0.1
			c0,0,0.2,0.1,0.4-6.7c0.2-6.8-1.7-12.6-1.7-12.6S243.5,172.3,243.3,171.7z"/>
		<g>
			<path class="st28" d="M243.8,268.6c0.5-0.3,0.9-0.6,1.4-1c0,0-2.5-8.2-2.8-14.8c0,0,2.2-4.8,3-9.1c-0.2,0.9-2.8,5.5-4,10.2
				C240.2,258.5,243.8,268.6,243.8,268.6z"/>
		</g>
		<g>
			<path class="st34" d="M232.3,160.7C232.3,160.7,232.3,160.7,232.3,160.7C232.3,160.7,232.3,160.7,232.3,160.7z"/>
			<path class="st34" d="M232.3,160.7c0,0.2,0.7,3.6,2.1,5.1c1.4,1.6,2.5,3.2,2.5,3.2c0.9,0.1,1.5,0.2,1.5,0.2s1.4,0.6,2-0.3
				c0.6-0.9,1.2-2.7,1.1-3.6c0,0-5-0.5-6.9-1.8C232.6,162.2,232.3,160.9,232.3,160.7z"/>
		</g>
		<path class="st35" d="M230.5,206.7c0,0,0.3,0.6,0.3,0.6c0,0,0.1-0.4,0.1-0.4s-0.2-0.5-0.2-0.5
			C230.6,206.4,230.5,206.7,230.5,206.7z"/>
		<path class="st9" d="M245,192.1c0,0,3.5,11.1,4.6,13.8l-0.1,2.7C249.5,208.6,245.1,194.8,245,192.1z"/>
		
			<ellipse transform="matrix(0.9567 -0.2909 0.2909 0.9567 -46.4513 80.4258)" class="st9" cx="247.2" cy="196.4" rx="1.1" ry="1.2"/>
		<ellipse transform="matrix(0.9567 -0.2909 0.2909 0.9567 -47.7727 81.1512)" class="st9" cx="249" cy="201.2" rx="1.1" ry="1.2"/>
	</g>
	<path class="st36" d="M232.6,156.2c-0.1-0.2-0.1-0.5-0.1-0.7l0-1.3c0-0.2,0-0.5-0.1-0.7c-0.1-0.2-0.1-0.5-0.2-0.8
		c0,0-5.4,3.9-8.9,4.1c2.9,4.6,5.3,5.4,5.3,5.4s1-0.2,0.1-1.2c-0.9-1-2.5-3.6-1.2-4.4c1.3-0.8,3.7,0.9,4,1.3
		c0.1,0.1,0.2,0.3,0.3,0.5c0.2,0.3,0.5,0.4,0.8,0.3l0.1-0.1c0.3-0.1,0.5-0.5,0.3-0.8L232.6,156.2z"/>
</g>
<g>
	<g>
		<path class="st28" d="M224.2,309.6c0,0,2.3,0.3,4.6,0.2c2.2-0.1,8.3,0.4,8.3,2.3c0,1.9-2.9,4.9-6.8,5.6c-3.9,0.7-9,0.2-11.5,0.5
			c-2.6,0.3-4.5-1.7-3.8-3.9C215.8,312.1,224.2,309.6,224.2,309.6z"/>
		<path class="st28" d="M210.3,305.7c0,0-0.7,1.2-0.2,1.9c0.5,0.7,1.8,2.3,5.3,0.3c3.4-2,10.2-5.1,10.2-5.1s3.9-2.2,3.5-4.3
			c-0.4-2.2-4.1-1.5-4.1-1.5L210.3,305.7z"/>
		<path class="st9" d="M231.4,271.8c0,0-0.4,15.1-3.3,20.9c-2.9,5.8-2.9,15.7-3.4,17.6c-0.5,1.9-2.4,4.7-5.7,5.6
			c-3.3,0.9-4.1-1-4-2.2c0-1.2,0.8-3.1,0.7-4.4c-0.1-1.3-0.5-1.8-0.6-2.4c0,0-3.8,1.3-4.7-1.2c0,0,0.2-0.8,0.2-1.2
			c0-0.4-1.5-9.8-1.7-11c-0.2-1.2-0.2-7.6,0.5-10.9c0.8-3.3-0.4-10.1-0.4-10.1l11.5-2.5L231.4,271.8z"/>
		<path class="st28" d="M212.6,273.3c0,0,0.3,2.4,1.6,4.2c0,0,0.8,7.9,2.1,11.8c0,0-0.7,7.9-1.3,10.4c-0.7,2.5,0,7.1,0,7.1
			s-0.4,0.2-1.1,0.3c-0.6,0.1-1.7-9.2-0.9-10.9c0.8-1.7,0.8-9.3,0.1-11.6c-0.6-2.3-1.2-9-1.8-10.1c-0.6-1.2,0.4-1.9,0.4-1.9
			L212.6,273.3z"/>
		<path class="st28" d="M216.9,212.8c0,0,3.9,2.2,4.1,6.6l-2.8-0.3C218.3,219.1,218.6,214.2,216.9,212.8z"/>
		<path class="st28" d="M221.4,275.9c-7.7,0.9-12.2-1.8-12.2-1.8c-0.1-1-0.2-1.6-0.2-1.6l11.5-2.5l10.9,1.7c0,0-0.1,3-0.4,6.9
			c-1.9,0.3-4.1-3.6-4.1-3.6l-5.3,0.8C221.7,275.8,229.1,275,221.4,275.9z"/>
		<path class="st5" d="M230,272.1c0,0-16.2,7.5-25.6-3.3c-0.3-0.3-0.4-0.7-0.5-1.1l-0.2-2.8c0-0.4-0.1-0.7-0.3-1l0,0
			c-0.3-0.7-0.5-1.4-0.4-2.2c0.3-3.2,1-12,1.2-14.5c0.2-3-3-15.1-6.6-20.3c-3.6-5.2,2.6-18.3,2.6-18.3s1.6-3.1,5.4-2.4
			c0,0-3.3,2.7-1.1,5.1c2.2,2.4,8.2,3.8,8.2,3.8s11.1,4.3,15.2,10.3c0,0,1.5,3.1,1.9,7.2c0.4,4.1,0.7,13.7,1,15
			c0.3,1.3,1.5,10.1,1.5,10.5C232.2,258.6,230,272.1,230,272.1z"/>
		<g>
			
				<linearGradient id="SVGID_17_" gradientUnits="userSpaceOnUse" x1="1878.2355" y1="207.1725" x2="1880.0653" y2="207.1725" gradientTransform="matrix(-1 0 0 1 2083.8137 0)">
				<stop  offset="0" style="stop-color:#5778FF"/>
				<stop  offset="7.257640e-02" style="stop-color:#5489FF"/>
				<stop  offset="0.2791" style="stop-color:#4EB3FF"/>
				<stop  offset="0.4801" style="stop-color:#49D4FF"/>
				<stop  offset="0.6715" style="stop-color:#45ECFF"/>
				<stop  offset="0.8493" style="stop-color:#43FAFF"/>
				<stop  offset="1" style="stop-color:#42FFFF"/>
			</linearGradient>
			<path class="st37" d="M204,208.2c-0.4-0.7-0.4-1.4-0.2-2c0.5-0.1,1.1-0.1,1.7,0C205.6,206.2,204.6,207.1,204,208.2z"/>
			<path class="st9" d="M225,273.8c0,0-12.4-23.6-12.8-32.9c-0.5-9.3,16.6,16.9,16.6,16.9l1.2,14.4C230,272.1,226.9,273.4,225,273.8
				z"/>
		</g>
		<path class="st29" d="M228,244.2c-0.5-2.1-0.9-4.2-1.1-6.3c-0.3-3.7-2-9.9-9.2-8.2c-10.2,2.4-4.4,15.4-3.1,17.6
			c1.3,2.2,6.7,11.9,6.9,12.4c0.3,0.5,8.1,12.1,10.7,14.8c0.2,0.2,0.6,0.2,0.9,0c0.9-0.8,3-2.8,3.2-3.9c0.3-1.5-1.5-6.6-1.5-6.6
			s-4.9-13.1-5.3-13.8C229.2,249.8,228.8,247.5,228,244.2z"/>
		<path class="st30" d="M216.8,213.1c0,0,0.7-1.9,2.6-2.3c1.9-0.4,3-1,3.1-1.7c0.1-0.7,0.1-1.6,0.5-2.6c0.4-1.1,0.6-3.7,0.6-3.8
			c0-0.1,1.4-0.6,1.5-1.3c0-0.6-0.9-2.9-0.9-3.1c0.1-0.2,0.8-1.7,0.6-2.8c-0.2-1.1-0.5-2.7-1.2-4c-0.7-1.3-5.7-9.4-16.3-4
			c-10.7,5.3-1.3,13.7-1.7,19.6c0,0-0.8,1.3,1.1,3.2C208.6,212.2,213.7,212.2,216.8,213.1z"/>
		<path class="st34" d="M206.6,210.4c-2-1.9-1.1-3.2-1.1-3.2c0.1-0.8-0.1-1.7-0.3-2.6l4.4,0.4c0,0,5.8-6.1,5.6-3.1
			c-0.2,3,1.4,3.4,1.4,3.4l-1.1,1.7c-0.3,0.4-0.1,0.9,0.3,1.3c2.1,2.8,6.3,1.5,6.3,1.5c-0.5,0.4-1.4,0.7-2.6,0.9
			c-1.9,0.4-2.6,2.3-2.6,2.3C213.7,212.2,208.6,212.2,206.6,210.4z"/>
		<g>
			<path class="st32" d="M223.7,188.4c0,0,0.9,2.2-0.2,3.2c-1.2,1-2.2,2-2.2,2l0.2,2.8c0,0.4-0.1,0.8-0.2,1.2l-1.3,2.5
				c-0.3,0.5-0.4,1-0.3,1.6l0.1,1.1c0,0.3-0.2,0.6-0.5,0.7l-0.4,0.1c-0.4,0.1-0.7-0.2-0.8-0.5l-0.3-1.5c0,0-0.9-1.2-2.6,0.5
				l-1.5,0.8c-0.4,0.2-0.7,0.6-0.9,1.1c-0.3,1.2-1.1,3.7-1.7,4.1c-0.9,0.6-4.8-0.9-5.4-1.7c-0.6-0.8-2.4-6.2-3.5-8.9
				c-1.1-2.6-1.4-9.4,6.7-11.8C216.8,183.1,222.4,186.1,223.7,188.4z"/>
			<path class="st36" d="M205.6,206.2c-0.6-0.8-2.4-6.2-3.5-8.9c0,0,3.4,1.8,7.5,2c4.1,0.3,11.8-5,11.8-5l0.2,2.1
				c0,0.4-0.1,0.8-0.2,1.2l-1.3,2.5c-0.3,0.5-0.4,1-0.3,1.6l0.1,1.1c0,0.3-0.2,0.6-0.5,0.7l-0.4,0.1c-0.4,0.1-0.7-0.2-0.8-0.5
				l-0.3-1.5c0,0-0.9-1.2-2.6,0.5l-2.2,1.1c0,0-1,4.2-1.9,4.8C210.1,208.5,206.2,207,205.6,206.2z"/>
		</g>
		<path class="st31" d="M205.4,206.5c0,0-2.9,2.1-1.1,4.6c1.8,2.5,13.5,6.1,14.1,6.8c0,0,0.1-3.9-1.5-5.1c0,0-8.7-0.9-10.3-2.9
			C205.1,207.9,205.4,206.5,205.4,206.5z"/>
		<path class="st33" d="M205.4,206.5c0,0-0.4,1.4,1.2,3.4c1.2,1.5,6.5,2.4,9,2.7l0,0c0,0-0.9,0.6-2.1,3.2c-3.6-1.4-8-3.3-9.1-4.7
			C202.5,208.6,205.4,206.5,205.4,206.5z"/>
		<path class="st9" d="M204.2,215.1c0,0,5.3,2.3,7.8,3.3c2.5,1,5.3,2.4,5.3,2.4l0.8-1l1.3,2.2c0,0,4,1.8,5.9,3.5
			c1.9,1.6,3.4,3.8,3.7,4.4c0,0-5.2-5.4-9-6.8l-1-0.4l-0.7-1.8l-0.8,1C217.4,221.9,205.9,216.6,204.2,215.1z"/>
	</g>
	<g>
		<path class="st5" d="M223.8,287.5L223.8,287.5L223.8,287.5c0.1-0.4,0.3-0.7,0.5-0.9l17.7-15.5c0.5-0.4,1-0.2,1.1,0.5l3.2,15.9
			c0.1,0.7-0.1,1.6-0.6,2l-14.5,12.7l0.9,4.3l-4.7-1.4l0,0c-0.2-0.1-0.4-0.3-0.5-0.7l-3.2-15.9C223.7,288.3,223.7,287.9,223.8,287.5
			z"/>
		<path class="st5" d="M247.3,272.3l-4.6-1.3l-0.1,0c-0.2,0-0.3,0-0.5,0.2l-17.7,15.5c-0.2,0.2-0.4,0.5-0.5,0.9l0.7,0.2l0,0l3.9,1.3
			l15.4-13.7l0,0L247.3,272.3z"/>
		<path class="st9" d="M250.3,290.9l-17.7,15.5c-0.5,0.4-1,0.2-1.1-0.5l-3.2-15.9c-0.1-0.7,0.1-1.6,0.6-2l17.7-15.5
			c0.5-0.4,1-0.2,1.1,0.5l3.2,15.9C251.1,289.6,250.8,290.5,250.3,290.9z"/>
		<path class="st28" d="M229.2,305.1l-3.2-15.9c-0.1-0.7,0.1-1.6,0.6-2l17.7-15.5c0.1-0.1,0.3-0.2,0.4-0.2c-0.2-0.1-0.4,0-0.6,0.2
			l-17.7,15.5c-0.5,0.4-0.7,1.3-0.6,2l3.2,15.9c0.1,0.5,0.4,0.8,0.7,0.8C229.4,305.8,229.2,305.5,229.2,305.1z"/>
		<g>
			<g>
				<path class="st28" d="M234,280.7l-1-0.3c-0.2-0.1-0.4-0.1-0.6,0l-0.1,0c-0.1,0-0.1,0.1-0.1,0.3l0,0.2l2.8,1l0-0.2
					c0-0.1-0.1-0.3-0.2-0.4l-0.1-0.1C234.4,280.9,234.2,280.7,234,280.7z"/>
				<polygon class="st28" points="233.8,282.8 235,281.7 232.2,280.4 230.9,281.4 				"/>
				<path class="st5" d="M232.7,281.8l-1-0.3c-0.2-0.1-0.4-0.1-0.6,0l-0.1,0c-0.1,0-0.1,0.1-0.1,0.3l0,0.2l2.8,1l0-0.2
					c0-0.1-0.1-0.3-0.2-0.4l-0.1-0.1C233.2,282,232.9,281.8,232.7,281.8z"/>
				<polygon class="st28" points="232.2,282.2 232,281.5 232.1,281.5 232.2,282.2 				"/>
				<polygon class="st28" points="232,281.5 233.3,280.4 233.4,280.5 232.1,281.5 				"/>
			</g>
			<g>
				<path class="st28" d="M239.6,275.7l-1-0.3c-0.2-0.1-0.4-0.1-0.6,0l-0.1,0c-0.1,0-0.1,0.1-0.1,0.3l0,0.2l2.8,1l0-0.2
					c0-0.1-0.1-0.3-0.2-0.4l-0.1-0.1C240.1,275.9,239.8,275.8,239.6,275.7z"/>
				<polygon class="st28" points="239.4,277.8 240.6,276.7 237.8,275.4 236.6,276.5 				"/>
				<path class="st5" d="M238.3,276.8l-1-0.3c-0.2-0.1-0.4-0.1-0.6,0l-0.1,0c-0.1,0-0.1,0.1-0.1,0.3l0,0.2l2.8,1l0-0.2
					c0-0.1-0.1-0.3-0.2-0.4l-0.1-0.1C238.8,277,238.6,276.9,238.3,276.8z"/>
				<polygon class="st28" points="237.8,277.3 237.7,276.6 237.7,276.6 237.9,277.3 				"/>
				<polygon class="st28" points="237.7,276.6 238.9,275.5 239,275.5 237.7,276.6 				"/>
			</g>
			<g>
				<path class="st5" d="M231.2,278.2l0.6,3l0.8-0.7l-0.6-2.9c-0.1-0.4,0.1-1,0.4-1.3l3.6-3.2c0.3-0.3,0.7-0.2,0.7,0.3l0.6,2.9
					l0.8-0.7l-0.6-3c-0.2-0.9-0.9-1.2-1.6-0.6l-3.9,3.4C231.5,276,231,277.3,231.2,278.2z"/>
				<path class="st5" d="M237.5,272.8l-1.6,0l-4.3,4.2l0,2.3l0.2,1.9l1,0.4l-0.2-2.4l-0.1-1.6l0.9-1.3c0,0,1.6-1.4,1.6-1.4
					C235.1,274.8,237.5,272.8,237.5,272.8z"/>
				<polygon class="st5" points="238.5,276.6 237.4,276.2 237,274.1 238,274.1 238.3,274.1 				"/>
				<path class="st5" d="M238.1,272l-1.1-0.4c0,0,0.3,0.5,0.3,0.5c0,0,0.4,0.1,0.4,0.1C237.7,272.2,238.1,272,238.1,272z"/>
				<path class="st28" d="M232.3,278.6l0.6,3l0.8-0.7l-0.6-2.9c-0.1-0.4,0.1-1,0.4-1.3l3.6-3.2c0.3-0.3,0.7-0.2,0.7,0.3l0.6,2.9
					l0.8-0.7l-0.6-3c-0.2-0.9-0.9-1.2-1.6-0.6l-3.9,3.4C232.5,276.4,232.1,277.6,232.3,278.6z"/>
			</g>
		</g>
	</g>
	<path class="st30" d="M236,270.5c0,0,0.9,2.9,0.7,3.7c-0.1,0.8-1.6,2.3-2.6,2.7c-0.9,0.3-0.6-0.7-0.9-1.3c-0.3-0.6-0.3-2-0.3-2
		L236,270.5z"/>
	<path class="st34" d="M232.9,273.5l3.1-3c0,0,0.2,0.6,0.4,1.3c0,0-1.1,2.3-3.2,3.4C233,274.6,232.9,273.5,232.9,273.5z"/>
	<path class="st29" d="M236.2,270.7c0,0-0.9,3.3-3.8,3.9l0.7-3.6c0,0,2.4-0.8,2.5-0.8C235.7,270.1,236.2,270.7,236.2,270.7z"/>
</g>
<g class="st38">
	<polygon class="st5" points="359.5,145 370,151.1 370,149.9 359.5,143.8 	"/>
	<polygon class="st5" points="354.1,141.9 357.9,144.1 357.9,142.9 354.1,140.7 	"/>
	<polygon class="st5" points="349.9,139.5 352.5,141 352.5,139.8 349.9,138.3 	"/>
	<polygon class="st5" points="364.3,150.4 370,153.7 370,152.6 364.3,149.3 	"/>
	<polygon class="st5" points="355.7,145.5 362.7,149.5 362.7,148.3 355.7,144.3 	"/>
	<polygon class="st5" points="351.5,143.1 354.1,144.5 354.1,143.4 351.5,141.9 	"/>
	<polygon class="st5" points="347.5,140.8 350.1,142.3 350.1,141.1 347.5,139.6 	"/>
	<polygon class="st5" points="365.8,154 370,156.4 370,155.2 365.8,152.9 	"/>
	<polygon class="st5" points="362.8,152.3 364.2,153.1 364.2,151.9 362.8,151.1 	"/>
	<polygon class="st5" points="358.7,149.9 361.2,151.4 361.2,150.2 358.7,148.7 	"/>
	<polygon class="st5" points="354.7,150.3 370,159.1 370,157.9 354.7,149.1 	"/>
	<polygon class="st5" points="349.3,147.2 353.1,149.3 353.1,148.2 349.3,146 	"/>
	<polygon class="st5" points="365.8,159.4 370,161.8 370,160.6 365.8,158.2 	"/>
	<polygon class="st5" points="356.1,153.8 364.2,158.4 364.2,157.3 356.1,152.6 	"/>
	<polygon class="st5" points="352,151.4 354.5,152.8 354.5,151.7 352,150.2 	"/>
	<polygon class="st5" points="361.5,159.5 370,164.4 370,163.3 361.5,158.4 	"/>
	<polygon class="st5" points="353.8,155.1 359.9,158.6 359.9,157.4 353.8,153.9 	"/>
	<polygon class="st5" points="348.1,151.8 352.2,154.2 352.2,153 348.1,150.6 	"/>
	<polygon class="st5" points="367.1,165.4 370,167.1 370,165.9 367.1,164.3 	"/>
	<polygon class="st5" points="361.7,162.3 365.5,164.5 365.5,163.3 361.7,161.2 	"/>
	<polygon class="st5" points="354.1,157.9 360.1,161.4 360.1,160.2 354.1,156.7 	"/>
	<polygon class="st5" points="361.2,164.7 370,169.8 370,168.6 361.2,163.5 	"/>
	<polygon class="st5" points="351.4,159 359.6,163.8 359.6,162.6 351.4,157.9 	"/>
	<polygon class="st5" points="347.2,156.6 349.8,158.1 349.8,157 347.2,155.5 	"/>
	<polygon class="st5" points="343.2,154.3 345.8,155.8 345.8,154.6 343.2,153.2 	"/>
	<polygon class="st5" points="364.7,169.4 370,172.4 370,171.3 364.7,168.2 	"/>
	<polygon class="st5" points="338.2,132.7 330.9,128.5 330.9,127.4 338.2,131.6 	"/>
	<polygon class="st5" points="336.7,134.5 330.9,131.2 330.9,130 336.7,133.3 	"/>
	<polygon class="st5" points="335.1,136.3 330.9,133.9 330.9,132.7 335.1,135.1 	"/>
	<polygon class="st5" points="337,140 330.9,136.5 330.9,135.4 337,138.8 	"/>
	<polygon class="st5" points="335.1,141.6 330.9,139.2 330.9,138 335.1,140.4 	"/>
	<polygon class="st5" points="336.2,144.9 330.9,141.9 330.9,140.7 336.2,143.7 	"/>
	<polygon class="st5" points="333.8,146.2 330.9,144.6 330.9,143.4 333.8,145 	"/>
	<polygon class="st5" points="336.5,150.4 330.9,147.2 330.9,146.1 336.5,149.3 	"/>
	<polygon class="st5" points="336.2,152.9 330.9,149.9 330.9,148.7 336.2,151.8 	"/>
	<polygon class="st5" points="360.9,167.2 363.1,168.5 363.1,167.3 360.9,166 	"/>
	<polygon class="st5" points="354.3,163.4 359.3,166.3 359.3,165.1 354.3,162.2 	"/>
	<polygon class="st5" points="348.5,174 357,178.9 357,177.7 348.5,172.8 	"/>
	<polygon class="st5" points="342.7,170.6 346.1,172.5 346.1,171.4 342.7,169.4 	"/>
</g>
<g>
	<ellipse transform="matrix(0.9439 -0.3303 0.3303 0.9439 -63.6414 58.6668)" class="st6" cx="140.8" cy="216.6" rx="22" ry="6.7"/>
	<g>
		<g>
			<g>
				<polygon class="st39" points="132.5,196.5 132.7,192.9 133.5,190.8 134.1,192.5 				"/>
			</g>
			<g>
				<path class="st40" d="M170.5,197.2l0.1-3.6c0,0-3,3-3,3.1C167.6,196.8,170.5,197.2,170.5,197.2z"/>
			</g>
			<g>
				<g>
					<path class="st40" d="M151.3,207.7c-10.5-0.3-18.8-5.6-18.6-14.8c0.2-9.3,8.9-16.6,19.4-16.3c10.5,0.3,18.8,8,18.6,17.2
						C170.4,203.1,161.7,208,151.3,207.7z"/>
				</g>
				<g>
					
						<ellipse transform="matrix(2.394271e-02 -0.9997 0.9997 2.394271e-02 -49.0343 343.741)" class="st40" cx="151.5" cy="197" rx="16.8" ry="19"/>
				</g>
				<g>
					<path class="st39" d="M138.3,184.9c-3.4,2.9-5.6,7-5.7,11.6c-0.2,9.3,8.1,17,18.6,17.2c5.2,0.1,9.9-1.6,13.4-4.5L138.3,184.9z"
						/>
				</g>
				<g>
					
						<ellipse transform="matrix(2.393699e-02 -0.9997 0.9997 2.393699e-02 -49.0334 343.7422)" class="st41" cx="151.5" cy="197" rx="16" ry="18.1"/>
				</g>
				<g>
					
						<ellipse transform="matrix(2.393888e-02 -0.9997 0.9997 2.393888e-02 -49.0337 343.7418)" class="st42" cx="151.5" cy="197" rx="12.9" ry="14.6"/>
				</g>
				<g>
					<path class="st40" d="M166.1,197.3c0-0.3,0-0.6,0-0.9c-0.7,6.7-7.1,11.8-14.8,11.6s-13.9-5.6-14.2-12.3c0,0.3-0.1,0.6-0.1,0.9
						c-0.2,7.1,6.2,13,14.3,13.2C159.3,210,165.9,204.4,166.1,197.3z"/>
				</g>
				<g>
					<g>
						<path class="st40" d="M154.3,198.1l-3-2.8c-2.9,0.7-8.2,1.9-12.5,2.9c1.1,3.2,3.7,5.8,7.1,7.3L154.3,198.1z"/>
					</g>
					<g>
						<path class="st40" d="M149.6,206.4c0.5,0.1,1,0.1,1.4,0.1c3.5,0.1,6.7-1.1,9.1-3l-4.9-4.5L149.6,206.4z"/>
					</g>
					<g>
						<path class="st40" d="M148.1,192.3l-5.6-5.2c-1.9,1.7-3.6,3.5-4,5.9L148.1,192.3z"/>
					</g>
				</g>
				<g>
					<path class="st39" d="M151.1,185.7c8,0.2,14.4,6.1,14.3,13.2c0,1.4-0.3,2.8-0.9,4.1c1-1.7,1.6-3.6,1.6-5.6
						c0.2-7.1-6.2-13-14.3-13.2c-6.4-0.2-11.9,3.4-14,8.4C140.3,188.3,145.3,185.5,151.1,185.7z"/>
				</g>
			</g>
			<g>
				<path class="st39" d="M132.7,192.9c0,1.4-0.2,2.4,0.2,3.7c0.4-1.4,1.3-5.4,1.3-5.4l1.4-3.2l1.2-1l2-1.5l0.2-4.7
					C135.2,183.8,132.8,188.1,132.7,192.9z"/>
			</g>
		</g>
		<g>
			<g>
				<path class="st39" d="M169.4,192.4l0.1-1c0-0.1,0.1-0.2,0.2-0.2l0.1,0c0.1,0,0.2,0.1,0.2,0.3l-0.1,1c0,0.1-0.1,0.2-0.2,0.2
					l-0.1,0C169.5,192.7,169.4,192.6,169.4,192.4z"/>
			</g>
			<g>
				<path class="st39" d="M167.8,188.8l0.1-1.7c0-0.2,0.1-0.3,0.3-0.3l0.2,0c0.1,0,0.3,0.1,0.3,0.3l-0.1,1.7c0,0.2-0.1,0.3-0.3,0.3
					l-0.2,0C167.9,189.1,167.8,188.9,167.8,188.8z"/>
			</g>
			<g>
				<path class="st39" d="M165.4,185.6l0.1-1.7c0-0.2,0.1-0.3,0.3-0.3l0.3,0c0.2,0,0.3,0.1,0.3,0.3l-0.1,1.7c0,0.2-0.1,0.3-0.3,0.3
					l-0.3,0C165.6,185.9,165.4,185.8,165.4,185.6z"/>
			</g>
			<g>
				<path class="st39" d="M162,183l0.1-2c0-0.2,0.1-0.3,0.3-0.3l0.3,0c0.2,0,0.3,0.1,0.3,0.3l-0.1,2c0,0.2-0.1,0.3-0.3,0.3l-0.3,0
					C162.1,183.3,162,183.2,162,183z"/>
			</g>
			<g>
				<path class="st39" d="M158.5,181.3l0.1-2.3c0-0.2,0.1-0.3,0.3-0.3l0.3,0c0.2,0,0.3,0.1,0.3,0.3l-0.1,2.3c0,0.2-0.1,0.3-0.3,0.3
					l-0.3,0C158.6,181.6,158.5,181.5,158.5,181.3z"/>
			</g>
			<g>
				<path class="st39" d="M155,180.3l0.1-2.2c0-0.2,0.1-0.3,0.3-0.3l0.3,0c0.2,0,0.3,0.1,0.3,0.3l-0.1,2.2c0,0.2-0.1,0.3-0.3,0.3
					l-0.3,0C155.1,180.6,155,180.5,155,180.3z"/>
			</g>
			<g>
				<path class="st39" d="M151.5,179.9l0.1-2.3c0-0.2,0.1-0.3,0.3-0.3l0.3,0c0.2,0,0.3,0.1,0.3,0.3l-0.1,2.3c0,0.2-0.1,0.3-0.3,0.3
					l-0.3,0C151.6,180.3,151.5,180.1,151.5,179.9z"/>
			</g>
			<g>
				<path class="st39" d="M148,180l0.1-2.1c0-0.2,0.1-0.3,0.3-0.3l0.3,0c0.2,0,0.3,0.1,0.3,0.3l-0.1,2.1c0,0.2-0.1,0.3-0.3,0.3
					l-0.3,0C148.1,180.3,148,180.2,148,180z"/>
			</g>
			<g>
				<path class="st39" d="M144.4,180.8l0.1-2.1c0-0.2,0.1-0.3,0.3-0.3l0.3,0c0.2,0,0.3,0.1,0.3,0.3l-0.1,2.1c0,0.2-0.1,0.3-0.3,0.3
					l-0.3,0C144.5,181.1,144.4,181,144.4,180.8z"/>
			</g>
			<g>
				<path class="st39" d="M140.8,182.5l0.1-2.2c0-0.2,0.1-0.3,0.3-0.3l0.3,0c0.2,0,0.3,0.1,0.3,0.3l-0.1,2.2c0,0.2-0.1,0.3-0.3,0.3
					l-0.3,0C141,182.8,140.8,182.7,140.8,182.5z"/>
			</g>
		</g>
	</g>
</g>
<ellipse transform="matrix(0.9439 -0.3303 0.3303 0.9439 -89.7815 166.1411)" class="st6" cx="444" cy="347.2" rx="22" ry="6.7"/>
<g>
	<g>
		<g>
			<polygon class="st39" points="435.7,327.2 435.8,323.6 436.7,321.4 437.2,323.2 			"/>
		</g>
		<g>
			<path class="st40" d="M473.7,327.9l0.1-3.6c0,0-3,3-3,3.1C470.8,327.5,473.7,327.9,473.7,327.9z"/>
		</g>
		<g>
			<g>
				<path class="st40" d="M454.4,338.4c-10.5-0.3-18.8-5.6-18.6-14.8s8.9-16.6,19.4-16.3c10.5,0.3,18.8,8,18.6,17.2
					C473.6,333.7,464.9,338.7,454.4,338.4z"/>
			</g>
			<g>
				
					<ellipse transform="matrix(2.393973e-02 -0.9997 0.9997 2.393973e-02 116.2584 774.3417)" class="st40" cx="454.7" cy="327.6" rx="16.8" ry="19"/>
			</g>
			<g>
				<path class="st39" d="M441.4,315.6c-3.4,2.9-5.6,7-5.7,11.6c-0.2,9.3,8.1,17,18.6,17.2c5.2,0.1,9.9-1.6,13.4-4.5L441.4,315.6z"
					/>
			</g>
			<g>
				
					<ellipse transform="matrix(2.394019e-02 -0.9997 0.9997 2.394019e-02 116.2582 774.3416)" class="st41" cx="454.7" cy="327.6" rx="16" ry="18.1"/>
			</g>
			<g>
				
					<ellipse transform="matrix(2.394285e-02 -0.9997 0.9997 2.394285e-02 116.257 774.3406)" class="st42" cx="454.7" cy="327.6" rx="12.9" ry="14.6"/>
			</g>
			<g>
				<path class="st40" d="M469.2,328c0-0.3,0-0.6,0-0.9c-0.7,6.7-7.1,11.8-14.8,11.6c-7.7-0.2-13.9-5.6-14.2-12.3
					c0,0.3-0.1,0.6-0.1,0.9c-0.2,7.1,6.2,13,14.3,13.2C462.4,340.7,469.1,335.1,469.2,328z"/>
			</g>
			<g>
				<g>
					<path class="st40" d="M457.5,328.7l-3-2.8c-2.9,0.7-8.2,1.9-12.5,2.9c1.1,3.2,3.7,5.8,7.1,7.3L457.5,328.7z"/>
				</g>
				<g>
					<path class="st40" d="M452.8,337.1c0.5,0.1,1,0.1,1.4,0.1c3.5,0.1,6.7-1.1,9.1-3l-4.9-4.5L452.8,337.1z"/>
				</g>
				<g>
					<path class="st40" d="M451.3,323l-5.6-5.2c-1.9,1.7-3.6,3.5-4,5.9L451.3,323z"/>
				</g>
			</g>
			<g>
				<path class="st39" d="M454.2,316.3c8,0.2,14.4,6.1,14.3,13.2c0,1.4-0.3,2.8-0.9,4.1c1-1.7,1.6-3.6,1.6-5.6
					c0.2-7.1-6.2-13-14.3-13.2c-6.4-0.2-11.9,3.4-14,8.4C443.5,319,448.5,316.2,454.2,316.3z"/>
			</g>
		</g>
		<g>
			<path class="st39" d="M435.8,323.6c0,1.4-0.2,2.4,0.2,3.7c0.4-1.4,1.3-5.4,1.3-5.4l1.4-3.2l1.2-1l2-1.5l0.2-4.7
				C438.4,314.4,436,318.7,435.8,323.6z"/>
		</g>
	</g>
	<g>
		<g>
			<path class="st39" d="M472.6,323.1l0.1-1c0-0.1,0.1-0.2,0.2-0.2l0.1,0c0.1,0,0.2,0.1,0.2,0.3l-0.1,1c0,0.1-0.1,0.2-0.2,0.2
				l-0.1,0C472.7,323.3,472.6,323.2,472.6,323.1z"/>
		</g>
		<g>
			<path class="st39" d="M470.9,319.4l0.1-1.7c0-0.2,0.1-0.3,0.3-0.3l0.2,0c0.1,0,0.3,0.1,0.3,0.3l-0.1,1.7c0,0.2-0.1,0.3-0.3,0.3
				l-0.2,0C471,319.7,470.9,319.6,470.9,319.4z"/>
		</g>
		<g>
			<path class="st39" d="M468.6,316.2l0.1-1.7c0-0.2,0.1-0.3,0.3-0.3l0.3,0c0.2,0,0.3,0.1,0.3,0.3l-0.1,1.7c0,0.2-0.1,0.3-0.3,0.3
				l-0.3,0C468.7,316.6,468.6,316.4,468.6,316.2z"/>
		</g>
		<g>
			<path class="st39" d="M465.1,313.7l0.1-2c0-0.2,0.1-0.3,0.3-0.3l0.3,0c0.2,0,0.3,0.1,0.3,0.3l-0.1,2c0,0.2-0.1,0.3-0.3,0.3
				l-0.3,0C465.3,314,465.1,313.8,465.1,313.7z"/>
		</g>
		<g>
			<path class="st39" d="M461.7,312l0.1-2.3c0-0.2,0.1-0.3,0.3-0.3l0.3,0c0.2,0,0.3,0.1,0.3,0.3l-0.1,2.3c0,0.2-0.1,0.3-0.3,0.3
				l-0.3,0C461.8,312.3,461.7,312.2,461.7,312z"/>
		</g>
		<g>
			<path class="st39" d="M458.2,310.9l0.1-2.2c0-0.2,0.1-0.3,0.3-0.3l0.3,0c0.2,0,0.3,0.1,0.3,0.3l-0.1,2.2c0,0.2-0.1,0.3-0.3,0.3
				l-0.3,0C458.3,311.3,458.2,311.1,458.2,310.9z"/>
		</g>
		<g>
			<path class="st39" d="M454.6,310.6l0.1-2.3c0-0.2,0.1-0.3,0.3-0.3l0.3,0c0.2,0,0.3,0.1,0.3,0.3l-0.1,2.3c0,0.2-0.1,0.3-0.3,0.3
				l-0.3,0C454.8,310.9,454.6,310.8,454.6,310.6z"/>
		</g>
		<g>
			<path class="st39" d="M451.1,310.7l0.1-2.1c0-0.2,0.1-0.3,0.3-0.3l0.3,0c0.2,0,0.3,0.1,0.3,0.3l-0.1,2.1c0,0.2-0.1,0.3-0.3,0.3
				l-0.3,0C451.2,311,451.1,310.8,451.1,310.7z"/>
		</g>
		<g>
			<path class="st39" d="M447.6,311.4l0.1-2.1c0-0.2,0.1-0.3,0.3-0.3l0.3,0c0.2,0,0.3,0.1,0.3,0.3l-0.1,2.1c0,0.2-0.1,0.3-0.3,0.3
				l-0.3,0C447.7,311.8,447.6,311.6,447.6,311.4z"/>
		</g>
		<g>
			<path class="st39" d="M444,313.2l0.1-2.2c0-0.2,0.1-0.3,0.3-0.3l0.3,0c0.2,0,0.3,0.1,0.3,0.3l-0.1,2.2c0,0.2-0.1,0.3-0.3,0.3
				l-0.3,0C444.1,313.5,444,313.3,444,313.2z"/>
		</g>
	</g>
</g>
<ellipse transform="matrix(0.9439 -0.3303 0.3303 0.9439 -110.4089 144.5019)" class="st6" cx="370" cy="397.1" rx="22" ry="6.7"/>
<g>
	<g>
		<g>
			<polygon class="st39" points="361.7,377.1 361.9,373.4 362.7,371.3 363.2,373.1 			"/>
		</g>
		<g>
			<path class="st40" d="M399.7,377.7l0.1-3.6c0,0-3,3-3,3.1C396.8,377.3,399.7,377.7,399.7,377.7z"/>
		</g>
		<g>
			<g>
				<path class="st40" d="M380.4,388.3c-10.5-0.3-18.8-5.6-18.6-14.8c0.2-9.3,8.9-16.6,19.4-16.3c10.5,0.3,18.8,8,18.6,17.2
					C399.6,383.6,390.9,388.5,380.4,388.3z"/>
			</g>
			<g>
				
					<ellipse transform="matrix(2.394271e-02 -0.9997 0.9997 2.394271e-02 -5.817 749.0621)" class="st40" cx="380.7" cy="377.5" rx="16.8" ry="19"/>
			</g>
			<g>
				<path class="st39" d="M367.4,365.4c-3.4,2.9-5.6,7-5.7,11.6c-0.2,9.3,8.1,17,18.6,17.2c5.2,0.1,9.9-1.6,13.4-4.5L367.4,365.4z"
					/>
			</g>
			<g>
				
					<ellipse transform="matrix(2.394011e-02 -0.9997 0.9997 2.394011e-02 -5.816 749.0632)" class="st41" cx="380.7" cy="377.5" rx="16" ry="18.1"/>
			</g>
			<g>
				
					<ellipse transform="matrix(2.393897e-02 -0.9997 0.9997 2.393897e-02 -5.8156 749.0636)" class="st42" cx="380.7" cy="377.5" rx="12.9" ry="14.6"/>
			</g>
			<g>
				<path class="st40" d="M395.3,377.9c0-0.3,0-0.6,0-0.9c-0.7,6.7-7.1,11.8-14.8,11.6s-13.9-5.6-14.2-12.3c0,0.3-0.1,0.6-0.1,0.9
					c-0.2,7.1,6.2,13,14.3,13.2C388.4,390.6,395.1,385,395.3,377.9z"/>
			</g>
			<g>
				<g>
					<path class="st40" d="M383.5,378.6l-3-2.8c-2.9,0.7-8.2,1.9-12.5,2.9c1.1,3.2,3.7,5.8,7.1,7.3L383.5,378.6z"/>
				</g>
				<g>
					<path class="st40" d="M378.8,386.9c0.5,0.1,1,0.1,1.4,0.1c3.5,0.1,6.7-1.1,9.1-3l-4.9-4.5L378.8,386.9z"/>
				</g>
				<g>
					<path class="st40" d="M377.3,372.9l-5.6-5.2c-1.9,1.7-3.6,3.5-4,5.9L377.3,372.9z"/>
				</g>
			</g>
			<g>
				<path class="st39" d="M380.2,366.2c8,0.2,14.4,6.1,14.3,13.2c0,1.4-0.3,2.8-0.9,4.1c1-1.7,1.6-3.6,1.6-5.6
					c0.2-7.1-6.2-13-14.3-13.2c-6.4-0.2-11.9,3.4-14,8.4C369.5,368.9,374.5,366.1,380.2,366.2z"/>
			</g>
		</g>
		<g>
			<path class="st39" d="M361.9,373.4c0,1.4-0.2,2.4,0.2,3.7c0.4-1.4,1.3-5.4,1.3-5.4l1.4-3.2l1.2-1l2-1.5l0.2-4.7
				C364.4,364.3,362,368.6,361.9,373.4z"/>
		</g>
	</g>
	<g>
		<g>
			<path class="st39" d="M398.6,373l0.1-1c0-0.1,0.1-0.2,0.2-0.2l0.1,0c0.1,0,0.2,0.1,0.2,0.3l-0.1,1c0,0.1-0.1,0.2-0.2,0.2l-0.1,0
				C398.7,373.2,398.6,373.1,398.6,373z"/>
		</g>
		<g>
			<path class="st39" d="M396.9,369.3l0.1-1.7c0-0.2,0.1-0.3,0.3-0.3l0.2,0c0.1,0,0.3,0.1,0.3,0.3l-0.1,1.7c0,0.2-0.1,0.3-0.3,0.3
				l-0.2,0C397,369.6,396.9,369.5,396.9,369.3z"/>
		</g>
		<g>
			<path class="st39" d="M394.6,366.1l0.1-1.7c0-0.2,0.1-0.3,0.3-0.3l0.3,0c0.2,0,0.3,0.1,0.3,0.3l-0.1,1.7c0,0.2-0.1,0.3-0.3,0.3
				l-0.3,0C394.7,366.4,394.6,366.3,394.6,366.1z"/>
		</g>
		<g>
			<path class="st39" d="M391.2,363.5l0.1-2c0-0.2,0.1-0.3,0.3-0.3l0.3,0c0.2,0,0.3,0.1,0.3,0.3l-0.1,2c0,0.2-0.1,0.3-0.3,0.3
				l-0.3,0C391.3,363.9,391.2,363.7,391.2,363.5z"/>
		</g>
		<g>
			<path class="st39" d="M387.7,361.9l0.1-2.3c0-0.2,0.1-0.3,0.3-0.3l0.3,0c0.2,0,0.3,0.2,0.3,0.3l-0.1,2.3c0,0.2-0.1,0.3-0.3,0.3
				l-0.3,0C387.8,362.2,387.7,362,387.7,361.9z"/>
		</g>
		<g>
			<path class="st39" d="M384.2,360.8l0.1-2.2c0-0.2,0.1-0.3,0.3-0.3l0.3,0c0.2,0,0.3,0.1,0.3,0.3l-0.1,2.2c0,0.2-0.1,0.3-0.3,0.3
				l-0.3,0C384.3,361.1,384.2,361,384.2,360.8z"/>
		</g>
		<g>
			<path class="st39" d="M380.7,360.5l0.1-2.3c0-0.2,0.1-0.3,0.3-0.3l0.3,0c0.2,0,0.3,0.1,0.3,0.3l-0.1,2.3c0,0.2-0.1,0.3-0.3,0.3
				l-0.3,0C380.8,360.8,380.7,360.6,380.7,360.5z"/>
		</g>
		<g>
			<path class="st39" d="M377.1,360.5l0.1-2.1c0-0.2,0.1-0.3,0.3-0.3l0.3,0c0.2,0,0.3,0.1,0.3,0.3l-0.1,2.1c0,0.2-0.1,0.3-0.3,0.3
				l-0.3,0C377.3,360.9,377.1,360.7,377.1,360.5z"/>
		</g>
		<g>
			<path class="st39" d="M373.6,361.3l0.1-2.1c0-0.2,0.1-0.3,0.3-0.3l0.3,0c0.2,0,0.3,0.1,0.3,0.3l-0.1,2.1c0,0.2-0.1,0.3-0.3,0.3
				l-0.3,0C373.7,361.6,373.6,361.5,373.6,361.3z"/>
		</g>
		<g>
			<path class="st39" d="M370,363l0.1-2.2c0-0.2,0.1-0.3,0.3-0.3l0.3,0c0.2,0,0.3,0.1,0.3,0.3l-0.1,2.2c0,0.2-0.1,0.3-0.3,0.3
				l-0.3,0C370.2,363.4,370,363.2,370,363z"/>
		</g>
	</g>
</g>
</svg>
