<?xml version="1.0" encoding="utf-8"?>
<!-- Generator: Adobe Illustrator 21.0.0, SVG Export Plug-In . SVG Version: 6.00 Build 0)  -->
<svg version="1.1" id="Layer_1" xmlns="http://www.w3.org/2000/svg" xmlns:xlink="http://www.w3.org/1999/xlink" x="0px" y="0px"
	 viewBox="0 0 300 300" style="enable-background:new 0 0 300 300;" xml:space="preserve">
<style type="text/css">
	.st0{fill:url(#SVGID_1_);}
	.st1{fill:url(#SVGID_2_);}
	.st2{fill:#242993;}
	.st3{opacity:0.51;}
	.st4{fill:#4553C7;}
	.st5{fill:#42FFFF;}
	.st6{opacity:0.5;fill:#242993;}
	.st7{fill:url(#SVGID_3_);}
	.st8{fill:url(#SVGID_5_);}
	.st9{fill:#2859CB;}
	.st10{fill:#ADC8FF;}
	.st11{fill:#91AFFF;}
	.st12{fill:url(#SVGID_6_);}
	.st13{opacity:0.11;}
	.st14{clip-path:url(#SVGID_7_);}
	.st15{fill:url(#SVGID_8_);}
	.st16{fill:url(#SVGID_9_);}
	.st17{opacity:0.42;fill:url(#SVGID_10_);}
	.st18{opacity:0.42;fill:url(#SVGID_11_);}
	.st19{opacity:0.5;fill:#42FFFF;}
	.st20{fill:url(#SVGID_12_);}
	.st21{fill:url(#SVGID_13_);}
	.st22{opacity:0.6;fill:#242993;}
	.st23{opacity:0.96;fill:url(#SVGID_14_);}
	.st24{opacity:0.8;fill:#4553C7;}
	.st25{opacity:0.32;}
</style>
<g>
	<g>
		<g>
			<g>
				<g>
					
						<linearGradient id="SVGID_1_" gradientUnits="userSpaceOnUse" x1="1153.8286" y1="111.4043" x2="1312.2389" y2="111.4043" gradientTransform="matrix(-1 0 0 1 1432.0824 0)">
						<stop  offset="0" style="stop-color:#C0D6FF"/>
						<stop  offset="0.2978" style="stop-color:#C5DBFF"/>
						<stop  offset="0.6488" style="stop-color:#D3E9FF"/>
						<stop  offset="1" style="stop-color:#E9FFFF"/>
					</linearGradient>
					<path class="st0" d="M119.9,121.3L137,19.5l-1.4-0.6l2.1-1.2l0,0c0.4-0.3,1-0.3,1.6,0.1L276.4,97c1.1,0.7,2,2.3,1.8,3.5
						l-17.3,102.6c-0.1,0.5-0.4,0.9-0.7,1l0,0l-2,1.2l-0.3-1.9l0.1,0l-136.3-78.7C120.5,124.1,119.7,122.4,119.9,121.3z"/>
					
						<linearGradient id="SVGID_2_" gradientUnits="userSpaceOnUse" x1="1153.8297" y1="152.0294" x2="1181.0303" y2="152.0294" gradientTransform="matrix(-1 0 0 1 1432.0824 0)">
						<stop  offset="0" style="stop-color:#5778FF"/>
						<stop  offset="0.1779" style="stop-color:#5C7DFF"/>
						<stop  offset="0.3876" style="stop-color:#6A8AFF"/>
						<stop  offset="0.6134" style="stop-color:#82A0FF"/>
						<stop  offset="0.849" style="stop-color:#A3BEFF"/>
						<stop  offset="1" style="stop-color:#BCD5FF"/>
					</linearGradient>
					<path class="st1" d="M275.7,99.8l2.3-1c0.3,0.6,0.4,1.2,0.3,1.7l-17.3,102.6c-0.1,0.5-0.4,0.9-0.7,1l0,0l-2,1.2l-0.3-1.9l0.1,0
						l-6.9-4L275.7,99.8z"/>
					<path class="st2" d="M119.5,126l137.1,79.2c1.1,0.6,2,0.3,2.2-0.8l17.3-102.6c0.2-1.2-0.7-2.8-1.8-3.5L137.2,19
						c-1.1-0.6-2-0.3-2.2,0.8l-17.3,102.6C117.5,123.7,118.4,125.3,119.5,126z"/>
					<g class="st3">
						<polygon class="st4" points="139,25.6 271.1,101.9 254.7,198.5 122.7,122.3 						"/>
					</g>
				</g>
				<g>
					<path class="st5" d="M172.6,282.5c-1.2,0-2.4-0.3-3.4-0.9L23.3,197.3c-1-0.6-1.6-1.4-1.6-2.2c0-0.7,0.4-1.3,1.2-1.7l92.1-53.2
						c1.6-0.9,4.2-0.8,6.1,0.2L267,224.8c1,0.6,1.6,1.4,1.6,2.2c0,0.7-0.4,1.3-1.2,1.7l-92.1,53.2
						C174.6,282.3,173.6,282.5,172.6,282.5z M117.7,140.3c-0.9,0-1.7,0.2-2.3,0.5L23.3,194c-0.5,0.3-0.8,0.7-0.8,1.1
						c0,0.5,0.4,1.1,1.2,1.6L169.6,281c1.6,0.9,4,1,5.4,0.2l92.1-53.2c0.5-0.3,0.8-0.7,0.8-1.1c0-0.5-0.4-1.1-1.2-1.6l-145.9-84.3
						C119.8,140.6,118.7,140.3,117.7,140.3z"/>
					<path class="st6" d="M34.5,196.2l135.7,78.4c1.5,0.9,3.7,1,5,0.2l81-46.8c1.3-0.7,1.1-2-0.4-2.9l-135.7-78.4
						c-1.5-0.9-3.7-1-5-0.2l-81,46.8C32.8,194,33,195.3,34.5,196.2z"/>
					
						<linearGradient id="SVGID_3_" gradientUnits="userSpaceOnUse" x1="1175.0519" y1="197.6966" x2="1398.7789" y2="197.6966" gradientTransform="matrix(-1 0 0 1 1432.0824 0)">
						<stop  offset="0" style="stop-color:#5778FF"/>
						<stop  offset="0.1779" style="stop-color:#5C7DFF"/>
						<stop  offset="0.3876" style="stop-color:#6A8AFF"/>
						<stop  offset="0.6134" style="stop-color:#82A0FF"/>
						<stop  offset="0.849" style="stop-color:#A3BEFF"/>
						<stop  offset="1" style="stop-color:#BCD5FF"/>
					</linearGradient>
					<path class="st7" d="M33.3,174.6l7.5,3.9l75-43.3c1.3-0.7,3.4-0.6,4.9,0.2l129.4,74.7c1.2-0.7,6.9-3.4,6.9-3.4l-2.7,7.1
						c0,0,0,0,0,0c-0.1,0.3-0.4,0.6-0.8,0.8l-79,45.6c-1.3,0.7-3.4,0.6-4.9-0.2L37.1,183.6c-0.6-0.3-1-0.8-1.1-1.2l0,0L33.3,174.6z"
						/>
					
						<linearGradient id="SVGID_5_" gradientUnits="userSpaceOnUse" x1="1250.225" y1="190.2367" x2="1474.0712" y2="190.2367" gradientTransform="matrix(-1 0 0 1 1432.0824 0)">
						<stop  offset="0" style="stop-color:#C0D6FF"/>
						<stop  offset="0.2978" style="stop-color:#C5DBFF"/>
						<stop  offset="0.6488" style="stop-color:#D3E9FF"/>
						<stop  offset="1" style="stop-color:#E9FFFF"/>
					</linearGradient>
					<path class="st8" d="M34.5,175.8l135.7,78.4c1.5,0.9,3.7,1,5,0.2l81-46.8c1.3-0.7,1.1-2-0.4-2.9l-135.7-78.4
						c-1.5-0.9-3.7-1-5-0.2l-81,46.8C32.8,173.6,33,174.9,34.5,175.8z"/>
					<path class="st9" d="M211.1,237.2v-1.5c0-0.1-0.1-0.2-0.2-0.1l-5.3,3c-0.1,0.1-0.2,0.2-0.2,0.4v1.5c0,0.1,0.1,0.2,0.2,0.1
						l5.3-3C211,237.5,211.1,237.3,211.1,237.2z"/>
					<path class="st9" d="M203.3,241.7v-1.5c0-0.1-0.1-0.2-0.2-0.1l-5.3,3c-0.1,0.1-0.2,0.2-0.2,0.4v1.5c0,0.1,0.1,0.2,0.2,0.1
						l5.3-3C203.2,242,203.3,241.9,203.3,241.7z"/>
					<path class="st10" d="M235.1,203.2l-112.8-65.1c-0.8-0.4-1.7-0.4-2.4,0l-40.2,23.2c-0.6,0.3-0.6,1.2,0,1.5l112.7,65.1
						c0.8,0.4,1.7,0.4,2.4,0l40.2-23.2C235.7,204.4,235.7,203.5,235.1,203.2z"/>
					<path class="st11" d="M235.1,204.7l-0.4,0.2l-112.4-64.9c-0.8-0.4-1.7-0.4-2.4,0l-39.8,23l-0.4-0.2c-0.6-0.3-0.6-1.2,0-1.5
						l40.2-23.2c0.8-0.4,1.7-0.4,2.4,0l112.8,65.1C235.7,203.5,235.7,204.4,235.1,204.7z"/>
					<g>
						<polygon class="st2" points="116.8,144 214.8,200.5 219.2,198 121.2,141.5 						"/>
						<polygon class="st2" points="106.2,150.1 198.1,203.2 202.4,200.7 110.5,147.6 						"/>
						<polygon class="st2" points="99.2,154.2 207.4,216.6 211.8,214.1 103.6,151.6 						"/>
						<polygon class="st2" points="92.2,158.2 200.4,220.6 204.8,218.1 96.6,155.7 						"/>
						<polygon class="st2" points="85.3,162.2 193.5,224.7 197.8,222.1 89.6,159.7 						"/>
						<polygon class="st2" points="220.7,204 225.1,206.5 229.4,204 225.1,201.4 						"/>
						<polygon class="st2" points="205.4,207.4 214.4,212.6 218.8,210.1 209.7,204.9 						"/>
					</g>
					
						<linearGradient id="SVGID_6_" gradientUnits="userSpaceOnUse" x1="1288.1331" y1="202.9441" x2="1345.4314" y2="202.9441" gradientTransform="matrix(-1 0 0 1 1432.0824 0)">
						<stop  offset="0" style="stop-color:#C0D6FF"/>
						<stop  offset="0.2978" style="stop-color:#C5DBFF"/>
						<stop  offset="0.6488" style="stop-color:#D3E9FF"/>
						<stop  offset="1" style="stop-color:#E9FFFF"/>
					</linearGradient>
					<path class="st12" d="M118,219l-30.4-17.6c-1.2-0.7-1.2-1.8,0-2.5l20.8-12c1.2-0.7,3.1-0.7,4.3,0l30.4,17.6
						c1.2,0.7,1.2,1.8,0,2.5l-20.8,12C121.1,219.7,119.1,219.7,118,219z"/>
					<path class="st11" d="M143.1,205.5l-30.4-17.6c-1.2-0.7-3.1-0.7-4.3,0l-20.8,12c-0.4,0.2-0.6,0.5-0.7,0.7
						c-0.3-0.6-0.1-1.3,0.7-1.8l20.8-12c1.2-0.7,3.1-0.7,4.3,0l30.4,17.6c0.8,0.5,1.1,1.2,0.7,1.8
						C143.7,206,143.4,205.7,143.1,205.5z"/>
				</g>
			</g>
			<g class="st13">
				<defs>
					<polygon id="SVGID_4_" class="st13" points="139,25.6 271.1,101.9 254.7,198.5 122.7,122.3 					"/>
				</defs>
				<clipPath id="SVGID_7_">
					<use xlink:href="#SVGID_4_"  style="overflow:visible;"/>
				</clipPath>
				<g class="st14">
					
						<linearGradient id="SVGID_8_" gradientUnits="userSpaceOnUse" x1="1164.7029" y1="140.622" x2="1388.5491" y2="140.622" gradientTransform="matrix(-1 0 0 1 1432.0824 0)">
						<stop  offset="0" style="stop-color:#C0D6FF"/>
						<stop  offset="0.2978" style="stop-color:#C5DBFF"/>
						<stop  offset="0.6488" style="stop-color:#D3E9FF"/>
						<stop  offset="1" style="stop-color:#E9FFFF"/>
					</linearGradient>
					<path class="st15" d="M120,126.2l135.7,78.4c1.5,0.9,3.7,1,5,0.2l81-46.8c1.3-0.7,1.1-2-0.4-2.9L205.6,76.7
						c-1.5-0.9-3.7-1-5-0.2l-81,46.8C118.3,124,118.5,125.3,120,126.2z"/>
					
						<linearGradient id="SVGID_9_" gradientUnits="userSpaceOnUse" x1="1149.9701" y1="124.19" x2="1207.2684" y2="124.19" gradientTransform="matrix(-1 0 0 1 1432.0824 0)">
						<stop  offset="0" style="stop-color:#C0D6FF"/>
						<stop  offset="0.2978" style="stop-color:#C5DBFF"/>
						<stop  offset="0.6488" style="stop-color:#D3E9FF"/>
						<stop  offset="1" style="stop-color:#E9FFFF"/>
					</linearGradient>
					<path class="st16" d="M256.1,140.2l-30.4-17.6c-1.2-0.7-1.2-1.8,0-2.5l20.8-12c1.2-0.7,3.1-0.7,4.3,0l30.4,17.6
						c1.2,0.7,1.2,1.8,0,2.5l-20.8,12C259.2,140.9,257.3,140.9,256.1,140.2z"/>
					<path class="st11" d="M281.2,126.7l-30.4-17.6c-1.2-0.7-3.1-0.7-4.3,0l-20.8,12c-0.4,0.2-0.6,0.5-0.7,0.7
						c-0.3-0.6-0.1-1.3,0.7-1.8l20.8-12c1.2-0.7,3.1-0.7,4.3,0l30.4,17.6c0.8,0.5,1.1,1.2,0.7,1.8
						C281.8,127.2,281.6,127,281.2,126.7z"/>
					<g>
						<path class="st10" d="M294.6,167.7l-112.8-65.1c-0.8-0.4-1.7-0.4-2.4,0l-40.2,23.2c-0.6,0.3-0.6,1.2,0,1.5l112.7,65.1
							c0.8,0.4,1.7,0.4,2.4,0l40.2-23.2C295.2,168.8,295.2,168,294.6,167.7z"/>
						<path class="st11" d="M294.6,169.2l-0.4,0.2l-112.4-64.9c-0.8-0.4-1.7-0.4-2.4,0l-39.8,23l-0.4-0.2c-0.6-0.3-0.6-1.2,0-1.5
							l40.2-23.2c0.8-0.4,1.7-0.4,2.4,0l112.8,65.1C295.2,168,295.2,168.8,294.6,169.2z"/>
						<g>
							<polygon class="st2" points="149.7,124.2 248,180.9 244.1,183.2 145.8,126.4 							"/>
							<polygon class="st2" points="160.1,118.2 253.5,172.1 249.6,174.4 156.2,120.5 							"/>
							<polygon class="st2" points="260.4,176.2 269.2,181.2 265.3,183.4 256.5,178.4 							"/>
							<polygon class="st2" points="252.7,183.7 258.8,187.2 254.9,189.4 248.8,185.9 							"/>
							<polygon class="st2" points="166.6,114.5 275.6,177.5 271.8,179.7 162.7,116.7 							"/>
							<polygon class="st2" points="173,110.7 282.1,173.7 278.2,176 169.1,113 							"/>
							<polygon class="st2" points="179.5,107 288.6,170 284.7,172.2 175.6,109.2 							"/>
						</g>
					</g>
				</g>
			</g>
		</g>
	</g>
	
		<radialGradient id="SVGID_10_" cx="1240.2545" cy="169.4355" r="64.1721" gradientTransform="matrix(-1 0 0 1 1432.0824 0)" gradientUnits="userSpaceOnUse">
		<stop  offset="0" style="stop-color:#2B3AA5"/>
		<stop  offset="1" style="stop-color:#182484"/>
	</radialGradient>
	<polygon class="st17" points="182.8,197.4 212.1,179.4 146.3,141.5 115.3,162.3 	"/>
	
		<radialGradient id="SVGID_11_" cx="1226.2194" cy="140.5671" r="49.1199" gradientTransform="matrix(-1 0 0 1 1432.0824 0)" gradientUnits="userSpaceOnUse">
		<stop  offset="0" style="stop-color:#2B3AA5"/>
		<stop  offset="1" style="stop-color:#182484"/>
	</radialGradient>
	<polygon class="st18" points="212.1,179.4 218.8,137.1 157.1,101.7 157.1,147.6 	"/>
	<g>
		<polygon class="st19" points="216.9,84.8 209.9,80.8 210.1,79.3 217.1,83.3 		"/>
		<polygon class="st19" points="220.5,86.8 217.9,85.4 218.2,83.9 220.7,85.3 		"/>
		<polygon class="st19" points="223.2,88.4 221.5,87.4 221.8,85.9 223.5,86.9 		"/>
		<polygon class="st19" points="213.1,86.4 209.3,84.3 209.6,82.8 213.4,84.9 		"/>
		<polygon class="st19" points="218.9,89.7 214.2,87 214.5,85.5 219.1,88.2 		"/>
		<polygon class="st19" points="221.7,91.3 219.9,90.3 220.2,88.8 221.9,89.8 		"/>
		<polygon class="st19" points="224.3,92.8 222.6,91.8 222.8,90.3 224.5,91.3 		"/>
		<polygon class="st5" points="211.6,89.3 208.8,87.7 209,86.2 211.8,87.8 		"/>
		<polygon class="st5" points="213.6,90.4 212.6,89.9 212.9,88.4 213.8,88.9 		"/>
		<polygon class="st19" points="216.3,92 214.6,91 214.9,89.5 216.6,90.5 		"/>
		<polygon class="st19" points="218.4,97 208.3,91.2 208.5,89.7 218.7,95.4 		"/>
		<polygon class="st19" points="222,99 219.5,97.6 219.7,96.1 222.2,97.5 		"/>
		<polygon class="st19" points="210.5,96.2 207.7,94.6 208,93.1 210.7,94.7 		"/>
		<polygon class="st19" points="216.9,99.9 211.5,96.8 211.8,95.3 217.2,98.4 		"/>
		<polygon class="st19" points="219.7,101.4 218,100.5 218.2,99 219.9,99.9 		"/>
		<polygon class="st19" points="212.8,101.3 207.2,98.1 207.4,96.6 213,99.8 		"/>
		<polygon class="st5" points="218,104.2 213.9,101.9 214.1,100.4 218.2,102.7 		"/>
		<polygon class="st19" points="221.8,106.4 219,104.8 219.3,103.3 222,104.9 		"/>
		<polygon class="st19" points="208.5,102.6 206.6,101.5 206.9,100 208.8,101.1 		"/>
		<polygon class="st19" points="212.1,104.7 209.6,103.2 209.8,101.7 212.4,103.1 		"/>
		<polygon class="st19" points="217.2,107.6 213.2,105.3 213.4,103.7 217.5,106.1 		"/>
		<polygon class="st19" points="211.9,108.3 206.1,105 206.3,103.5 212.2,106.8 		"/>
		<polygon class="st19" points="218.4,112 213,108.9 213.2,107.4 218.7,110.5 		"/>
		<polygon class="st5" points="221.2,113.6 219.5,112.6 219.8,111.1 221.5,112.1 		"/>
		<polygon class="st19" points="223.9,115.1 222.2,114.1 222.4,112.6 224.1,113.6 		"/>
		<polygon class="st19" points="209,110.4 205.5,108.4 205.8,106.9 209.3,108.9 		"/>
		<polygon class="st5" points="228,91.1 232.8,93.9 233.1,92.4 228.2,89.6 		"/>
		<polygon class="st19" points="228.5,95.2 232.3,97.3 232.5,95.8 228.7,93.6 		"/>
		<polygon class="st19" points="229,99.2 231.8,100.8 232,99.3 229.2,97.7 		"/>
		<polygon class="st19" points="227.2,101.9 231.2,104.2 231.4,102.7 227.4,100.4 		"/>
		<polygon class="st19" points="227.9,106.1 230.7,107.7 230.9,106.2 228.1,104.6 		"/>
		<polygon class="st19" points="226.6,109.1 230.1,111.1 230.4,109.6 226.9,107.6 		"/>
		<polygon class="st19" points="227.7,113.5 229.6,114.6 229.8,113.1 227.9,112 		"/>
		<polygon class="st19" points="225.3,115.9 229,118 229.3,116.5 225.6,114.4 		"/>
		<polygon class="st19" points="225,119.5 228.5,121.5 228.7,120 225.2,118 		"/>
		<polygon class="st19" points="211.6,111.9 210.1,111 210.3,109.5 211.8,110.4 		"/>
		<polygon class="st19" points="216,114.4 212.7,112.5 212.9,111 216.2,112.9 		"/>
		<polygon class="st19" points="244,100.1 237,96.2 237.2,94.7 244.2,98.6 		"/>
		<polygon class="st19" points="247.6,102.2 245,100.7 245.3,99.2 247.8,100.7 		"/>
		<polygon class="st5" points="250.3,103.8 248.6,102.8 248.9,101.3 250.6,102.2 		"/>
		<polygon class="st19" points="240.3,101.8 236.4,99.6 236.7,98.1 240.5,100.3 		"/>
		<polygon class="st19" points="246,105 241.3,102.4 241.6,100.9 246.2,103.5 		"/>
		<polygon class="st5" points="248.8,106.6 247.1,105.7 247.3,104.1 249,105.1 		"/>
		<polygon class="st19" points="251.4,108.1 249.7,107.2 249.9,105.6 251.6,106.6 		"/>
		<polygon class="st19" points="238.7,104.6 235.9,103.1 236.1,101.6 238.9,103.1 		"/>
		<polygon class="st19" points="240.7,105.8 239.7,105.2 240,103.7 240.9,104.3 		"/>
		<polygon class="st19" points="243.4,107.4 241.7,106.4 242,104.9 243.7,105.8 		"/>
		<polygon class="st19" points="245.5,112.3 235.4,106.5 235.6,105 245.8,110.8 		"/>
		<polygon class="st19" points="249.1,114.3 246.6,112.9 246.8,111.4 249.4,112.8 		"/>
		<polygon class="st19" points="237.6,111.5 234.8,110 235.1,108.5 237.8,110 		"/>
		<polygon class="st19" points="244,115.2 238.6,112.2 238.9,110.6 244.3,113.7 		"/>
		<polygon class="st19" points="246.8,116.8 245.1,115.8 245.3,114.3 247.1,115.3 		"/>
		<polygon class="st5" points="239.9,116.6 234.3,113.4 234.5,111.9 240.2,115.1 		"/>
		<polygon class="st19" points="245.1,119.6 241,117.2 241.2,115.7 245.3,118.1 		"/>
		<polygon class="st19" points="248.9,121.7 246.1,120.2 246.4,118.7 249.1,120.2 		"/>
		<polygon class="st19" points="235.6,118 233.7,116.9 234,115.4 235.9,116.5 		"/>
		<polygon class="st19" points="239.2,120 236.7,118.6 236.9,117.1 239.5,118.5 		"/>
		<polygon class="st5" points="244.3,122.9 240.3,120.6 240.5,119.1 244.6,121.4 		"/>
		<polygon class="st19" points="239,123.7 233.2,120.3 233.4,118.8 239.3,122.1 		"/>
		<polygon class="st19" points="245.6,127.4 240.1,124.3 240.3,122.7 245.8,125.9 		"/>
		<polygon class="st19" points="248.3,128.9 246.6,128 246.9,126.5 248.6,127.4 		"/>
		<polygon class="st19" points="251,130.5 249.3,129.5 249.5,128 251.2,129 		"/>
		<polygon class="st19" points="236.1,125.8 232.7,123.8 232.9,122.3 236.4,124.3 		"/>
		<polygon class="st5" points="255.1,106.5 259.9,109.2 260.2,107.7 255.3,105 		"/>
		<polygon class="st19" points="255.6,110.5 259.4,112.7 259.6,111.2 255.8,109 		"/>
		<polygon class="st19" points="256.1,114.6 258.9,116.1 259.1,114.6 256.3,113 		"/>
		<polygon class="st19" points="254.3,117.3 258.3,119.6 258.6,118.1 254.5,115.8 		"/>
		<polygon class="st19" points="255,121.5 257.8,123 258,121.5 255.3,120 		"/>
		<polygon class="st19" points="253.7,124.5 257.2,126.5 257.5,125 254,123 		"/>
		<polygon class="st19" points="254.8,128.9 256.7,129.9 256.9,128.4 255,127.3 		"/>
		<polygon class="st19" points="252.5,131.3 256.1,133.4 256.4,131.9 252.7,129.8 		"/>
		<polygon class="st19" points="252.1,134.9 255.6,136.8 255.8,135.3 252.3,133.3 		"/>
		<polygon class="st5" points="238.7,127.2 237.2,126.4 237.4,124.9 238.9,125.7 		"/>
		<polygon class="st19" points="243.1,129.7 239.8,127.8 240,126.3 243.3,128.2 		"/>
		<polygon class="st19" points="212,115.9 205,111.9 205.2,110.4 212.2,114.4 		"/>
		<polygon class="st19" points="215.6,117.9 213.1,116.5 213.3,115 215.8,116.4 		"/>
		<polygon class="st19" points="218.3,119.5 216.6,118.5 216.9,117 218.6,118 		"/>
		<polygon class="st19" points="208.3,117.5 204.5,115.4 204.7,113.9 208.5,116 		"/>
		<polygon class="st19" points="214,120.8 209.3,118.1 209.6,116.6 214.2,119.3 		"/>
		<polygon class="st19" points="216.8,122.4 215.1,121.4 215.3,119.9 217,120.9 		"/>
		<polygon class="st19" points="219.4,123.9 217.7,122.9 217.9,121.4 219.7,122.4 		"/>
		<polygon class="st19" points="206.7,120.4 203.9,118.8 204.2,117.3 206.9,118.9 		"/>
		<polygon class="st19" points="208.7,121.5 207.7,121 208,119.5 208.9,120 		"/>
		<polygon class="st19" points="211.5,123.1 209.7,122.1 210,120.6 211.7,121.6 		"/>
		<polygon class="st19" points="213.5,128.1 203.4,122.3 203.6,120.8 213.8,126.5 		"/>
		<polygon class="st19" points="217.1,130.1 214.6,128.7 214.8,127.1 217.4,128.6 		"/>
		<polygon class="st19" points="205.6,127.3 202.8,125.7 203.1,124.2 205.8,125.8 		"/>
		<polygon class="st19" points="212,131 206.7,127.9 206.9,126.4 212.3,129.5 		"/>
		<polygon class="st19" points="214.8,132.5 213.1,131.6 213.4,130.1 215.1,131 		"/>
		<polygon class="st19" points="207.9,132.4 202.3,129.2 202.5,127.7 208.2,130.9 		"/>
		<polygon class="st19" points="213.1,135.3 209,133 209.2,131.5 213.3,133.8 		"/>
		<polygon class="st19" points="216.9,137.5 214.1,135.9 214.4,134.4 217.1,136 		"/>
		<polygon class="st19" points="203.6,133.7 201.7,132.6 202,131.1 203.9,132.2 		"/>
		<polygon class="st19" points="207.2,135.8 204.7,134.3 205,132.8 207.5,134.2 		"/>
		<polygon class="st19" points="212.4,138.7 208.3,136.4 208.5,134.8 212.6,137.2 		"/>
		<polygon class="st19" points="207,139.4 201.2,136.1 201.4,134.6 207.3,137.9 		"/>
		<polygon class="st19" points="213.6,143.1 208.1,140 208.3,138.5 213.8,141.6 		"/>
		<polygon class="st19" points="216.3,144.7 214.6,143.7 214.9,142.2 216.6,143.2 		"/>
		<polygon class="st19" points="219,146.2 217.3,145.2 217.5,143.7 219.2,144.7 		"/>
		<polygon class="st19" points="204.2,141.5 200.7,139.5 200.9,138 204.4,140 		"/>
		<polygon class="st19" points="223.1,122.2 227.9,125 228.2,123.5 223.3,120.7 		"/>
		<polygon class="st19" points="223.6,126.3 227.4,128.4 227.6,126.9 223.8,124.7 		"/>
		<polygon class="st19" points="224.1,130.3 226.9,131.9 227.1,130.4 224.3,128.8 		"/>
		<polygon class="st19" points="222.3,133 226.3,135.3 226.6,133.8 222.6,131.5 		"/>
		<polygon class="st19" points="223,137.2 225.8,138.8 226,137.3 223.3,135.7 		"/>
		<polygon class="st19" points="221.7,140.2 225.2,142.2 225.5,140.7 222,138.7 		"/>
		<polygon class="st19" points="222.8,144.6 224.7,145.7 224.9,144.2 223,143.1 		"/>
		<polygon class="st19" points="220.5,147 224.2,149.1 224.4,147.6 220.7,145.5 		"/>
		<polygon class="st19" points="220.1,150.6 223.6,152.6 223.8,151.1 220.4,149.1 		"/>
		<polygon class="st19" points="206.7,143 205.2,142.1 205.5,140.6 206.9,141.5 		"/>
		<polygon class="st19" points="211.1,145.5 207.8,143.6 208,142.1 211.4,144 		"/>
		<polygon class="st19" points="212.3,157.1 206.7,153.9 206.9,152.4 212.5,155.6 		"/>
		<polygon class="st19" points="216.2,159.3 213.9,158 214.2,156.5 216.4,157.8 		"/>
		<polygon class="st19" points="239.1,131.2 232.1,127.3 232.3,125.8 239.3,129.7 		"/>
		<polygon class="st19" points="242.7,133.3 240.2,131.8 240.4,130.3 242.9,131.8 		"/>
		<polygon class="st19" points="245.5,134.9 243.7,133.9 244,132.4 245.7,133.3 		"/>
		<polygon class="st19" points="235.4,132.9 231.6,130.7 231.8,129.2 235.6,131.4 		"/>
		<polygon class="st19" points="241.1,136.1 236.4,133.5 236.7,132 241.3,134.6 		"/>
		<polygon class="st19" points="243.9,137.7 242.2,136.7 242.4,135.2 244.1,136.2 		"/>
		<polygon class="st19" points="246.5,139.2 244.8,138.3 245.1,136.7 246.8,137.7 		"/>
		<polygon class="st19" points="233.8,135.7 231,134.2 231.3,132.7 234,134.2 		"/>
		<polygon class="st19" points="235.8,136.9 234.8,136.3 235.1,134.8 236,135.4 		"/>
		<polygon class="st19" points="238.6,138.5 236.9,137.5 237.1,136 238.8,136.9 		"/>
		<polygon class="st19" points="240.6,143.4 230.5,137.6 230.7,136.1 240.9,141.9 		"/>
		<polygon class="st19" points="244.2,145.4 241.7,144 242,142.5 244.5,143.9 		"/>
		<polygon class="st19" points="232.7,142.6 229.9,141.1 230.2,139.6 232.9,141.1 		"/>
		<polygon class="st19" points="239.2,146.3 233.8,143.2 234,141.7 239.4,144.8 		"/>
		<polygon class="st19" points="241.9,147.9 240.2,146.9 240.5,145.4 242.2,146.4 		"/>
		<polygon class="st19" points="235,147.7 229.4,144.5 229.6,143 235.3,146.2 		"/>
		<polygon class="st19" points="240.2,150.7 236.1,148.3 236.3,146.8 240.4,149.1 		"/>
		<polygon class="st19" points="244,152.8 241.2,151.3 241.5,149.8 244.2,151.3 		"/>
		<polygon class="st19" points="230.8,149.1 228.9,148 229.1,146.5 231,147.6 		"/>
		<polygon class="st19" points="234.3,151.1 231.8,149.7 232.1,148.2 234.6,149.6 		"/>
		<polygon class="st19" points="239.5,154 235.4,151.7 235.6,150.2 239.7,152.5 		"/>
		<polygon class="st19" points="234.1,154.8 228.3,151.4 228.5,149.9 234.4,153.2 		"/>
		<polygon class="st19" points="240.7,158.5 235.2,155.4 235.4,153.8 240.9,157 		"/>
		<polygon class="st19" points="243.4,160 241.7,159.1 242,157.6 243.7,158.5 		"/>
		<polygon class="st19" points="246.1,161.6 244.4,160.6 244.6,159.1 246.4,160 		"/>
		<polygon class="st19" points="231.3,156.9 227.8,154.9 228,153.4 231.5,155.4 		"/>
		<polygon class="st19" points="250.2,137.6 255.1,140.3 255.3,138.8 250.4,136 		"/>
		<polygon class="st19" points="250.7,141.6 254.5,143.8 254.8,142.3 250.9,140.1 		"/>
		<polygon class="st19" points="251.2,145.7 254,147.2 254.2,145.7 251.5,144.1 		"/>
		<polygon class="st19" points="249.4,148.4 253.4,150.7 253.7,149.2 249.7,146.9 		"/>
		<polygon class="st19" points="250.1,152.6 252.9,154.1 253.1,152.6 250.4,151 		"/>
		<polygon class="st19" points="248.9,155.6 252.3,157.6 252.6,156.1 249.1,154.1 		"/>
		<polygon class="st19" points="249.9,160 251.8,161 252,159.5 250.1,158.4 		"/>
		<polygon class="st19" points="247.6,162.4 251.3,164.5 251.5,163 247.8,160.9 		"/>
		<polygon class="st19" points="247.2,166 250.7,167.9 251,166.4 247.5,164.4 		"/>
		<polygon class="st19" points="233.8,158.3 232.3,157.5 232.6,156 234.1,156.8 		"/>
		<polygon class="st19" points="238.2,160.8 234.9,158.9 235.1,157.4 238.5,159.3 		"/>
		<polygon class="st19" points="239.4,172.5 233.8,169.2 234,167.7 239.7,170.9 		"/>
		<polygon class="st19" points="243.3,174.6 241.1,173.4 241.3,171.9 243.5,173.1 		"/>
	</g>
	<g>
		<polygon class="st19" points="151.7,47.4 144.7,43.4 145,41.9 152,45.9 		"/>
		<polygon class="st19" points="155.3,49.5 152.8,48 153,46.5 155.5,47.9 		"/>
		<polygon class="st19" points="158.1,51 156.4,50.1 156.6,48.5 158.3,49.5 		"/>
		<polygon class="st19" points="148,49.1 144.2,46.9 144.4,45.4 148.2,47.5 		"/>
		<polygon class="st19" points="153.7,52.3 149.1,49.7 149.3,48.2 154,50.8 		"/>
		<polygon class="st19" points="156.5,53.9 154.8,52.9 155,51.4 156.8,52.4 		"/>
		<polygon class="st19" points="159.2,55.4 157.4,54.4 157.7,52.9 159.4,53.9 		"/>
		<polygon class="st5" points="146.4,51.9 143.7,50.3 143.9,48.8 146.6,50.4 		"/>
		<polygon class="st5" points="148.4,53.1 147.5,52.5 147.7,51 148.7,51.5 		"/>
		<polygon class="st19" points="151.2,54.6 149.5,53.7 149.7,52.1 151.4,53.1 		"/>
		<polygon class="st19" points="153.3,59.6 143.1,53.8 143.3,52.3 153.5,58.1 		"/>
		<polygon class="st19" points="156.9,61.6 154.3,60.2 154.6,58.7 157.1,60.1 		"/>
		<polygon class="st19" points="145.3,58.8 142.6,57.3 142.8,55.7 145.6,57.3 		"/>
		<polygon class="st19" points="151.8,62.5 146.4,59.4 146.6,57.9 152,61 		"/>
		<polygon class="st19" points="154.6,64.1 152.9,63.1 153.1,61.6 154.8,62.6 		"/>
		<polygon class="st19" points="147.7,63.9 142,60.7 142.3,59.2 147.9,62.4 		"/>
		<polygon class="st5" points="152.8,66.8 148.7,64.5 149,63 153,65.3 		"/>
		<polygon class="st19" points="156.6,69 153.9,67.4 154.1,65.9 156.9,67.5 		"/>
		<polygon class="st19" points="143.4,65.2 141.5,64.2 141.7,62.6 143.6,63.7 		"/>
		<polygon class="st19" points="147,67.3 144.5,65.8 144.7,64.3 147.2,65.8 		"/>
		<polygon class="st19" points="152.1,70.2 148,67.9 148.3,66.4 152.3,68.7 		"/>
		<polygon class="st19" points="146.8,70.9 140.9,67.6 141.2,66.1 147,69.4 		"/>
		<polygon class="st19" points="153.3,74.6 147.8,71.5 148.1,70 153.5,73.1 		"/>
		<polygon class="st5" points="156.1,76.2 154.4,75.2 154.6,73.7 156.3,74.7 		"/>
		<polygon class="st19" points="158.7,77.7 157,76.8 157.3,75.3 159,76.2 		"/>
		<polygon class="st19" points="143.9,73 140.4,71.1 140.6,69.6 144.1,71.5 		"/>
		<polygon class="st5" points="162.8,53.7 167.7,56.5 167.9,55 163.1,52.2 		"/>
		<polygon class="st19" points="163.3,57.8 167.1,59.9 167.4,58.4 163.6,56.3 		"/>
		<polygon class="st19" points="163.8,61.8 166.6,63.4 166.8,61.9 164.1,60.3 		"/>
		<polygon class="st19" points="162.1,64.6 166.1,66.9 166.3,65.3 162.3,63.1 		"/>
		<polygon class="st19" points="162.8,68.7 165.5,70.3 165.8,68.8 163,67.2 		"/>
		<polygon class="st19" points="161.5,71.8 165,73.8 165.2,72.2 161.7,70.3 		"/>
		<polygon class="st19" points="162.5,76.1 164.4,77.2 164.7,75.7 162.8,74.6 		"/>
		<polygon class="st19" points="160.2,78.6 163.9,80.7 164.1,79.2 160.4,77.1 		"/>
		<polygon class="st19" points="159.9,82.1 163.3,84.1 163.6,82.6 160.1,80.6 		"/>
		<polygon class="st19" points="146.4,74.5 145,73.7 145.2,72.1 146.7,73 		"/>
		<polygon class="st19" points="150.9,77 147.5,75.1 147.7,73.6 151.1,75.5 		"/>
		<polygon class="st19" points="178.8,62.8 171.8,58.8 172.1,57.3 179.1,61.3 		"/>
		<polygon class="st19" points="182.4,64.8 179.9,63.4 180.1,61.9 182.7,63.3 		"/>
		<polygon class="st5" points="185.2,66.4 183.5,65.4 183.7,63.9 185.4,64.9 		"/>
		<polygon class="st19" points="175.1,64.4 171.3,62.2 171.5,60.7 175.3,62.9 		"/>
		<polygon class="st19" points="180.8,67.7 176.2,65 176.4,63.5 181.1,66.2 		"/>
		<polygon class="st5" points="183.6,69.2 181.9,68.3 182.1,66.8 183.9,67.7 		"/>
		<polygon class="st19" points="186.3,70.8 184.6,69.8 184.8,68.3 186.5,69.2 		"/>
		<polygon class="st19" points="173.5,67.3 170.8,65.7 171,64.2 173.8,65.8 		"/>
		<polygon class="st19" points="175.5,68.4 174.6,67.9 174.8,66.4 175.8,66.9 		"/>
		<polygon class="st19" points="178.3,70 176.6,69 176.8,67.5 178.5,68.5 		"/>
		<polygon class="st19" points="180.4,74.9 170.2,69.1 170.5,67.6 180.6,73.4 		"/>
		<polygon class="st19" points="184,77 181.5,75.5 181.7,74 184.2,75.5 		"/>
		<polygon class="st19" points="172.4,74.2 169.7,72.6 169.9,71.1 172.7,72.7 		"/>
		<polygon class="st19" points="178.9,77.8 173.5,74.8 173.7,73.3 179.1,76.3 		"/>
		<polygon class="st19" points="181.7,79.4 180,78.5 180.2,76.9 181.9,77.9 		"/>
		<polygon class="st5" points="174.8,79.3 169.1,76.1 169.4,74.5 175,77.7 		"/>
		<polygon class="st19" points="179.9,82.2 175.8,79.9 176.1,78.4 180.1,80.7 		"/>
		<polygon class="st19" points="183.7,84.4 181,82.8 181.2,81.3 184,82.8 		"/>
		<polygon class="st19" points="170.5,80.6 168.6,79.5 168.8,78 170.7,79.1 		"/>
		<polygon class="st19" points="174.1,82.6 171.6,81.2 171.8,79.7 174.3,81.1 		"/>
		<polygon class="st5" points="179.2,85.5 175.1,83.2 175.4,81.7 179.4,84 		"/>
		<polygon class="st19" points="173.9,86.3 168,83 168.3,81.4 174.1,84.8 		"/>
		<polygon class="st19" points="180.4,90 174.9,86.9 175.2,85.4 180.6,88.5 		"/>
		<polygon class="st19" points="183.2,91.6 181.5,90.6 181.7,89.1 183.4,90.1 		"/>
		<polygon class="st19" points="185.9,93.1 184.1,92.1 184.4,90.6 186.1,91.6 		"/>
		<polygon class="st19" points="171,88.4 167.5,86.4 167.7,84.9 171.2,86.9 		"/>
		<polygon class="st5" points="190,69.1 194.8,71.8 195,70.3 190.2,67.6 		"/>
		<polygon class="st19" points="190.4,73.1 194.3,75.3 194.5,73.8 190.7,71.6 		"/>
		<polygon class="st19" points="191,77.2 193.7,78.7 193.9,77.2 191.2,75.7 		"/>
		<polygon class="st19" points="189.2,79.9 193.2,82.2 193.4,80.7 189.4,78.4 		"/>
		<polygon class="st19" points="189.9,84.1 192.6,85.7 192.9,84.1 190.1,82.6 		"/>
		<polygon class="st19" points="188.6,87.1 192.1,89.1 192.3,87.6 188.8,85.6 		"/>
		<polygon class="st19" points="189.6,91.5 191.5,92.6 191.8,91 189.9,90 		"/>
		<polygon class="st19" points="187.3,93.9 191,96 191.2,94.5 187.5,92.4 		"/>
		<polygon class="st19" points="187,97.5 190.5,99.5 190.7,98 187.2,96 		"/>
		<polygon class="st5" points="173.6,89.9 172.1,89 172.3,87.5 173.8,88.3 		"/>
		<polygon class="st19" points="178,92.4 174.6,90.5 174.9,88.9 178.2,90.9 		"/>
		<polygon class="st19" points="146.8,78.5 139.9,74.5 140.1,73 147.1,77 		"/>
		<polygon class="st19" points="150.4,80.5 147.9,79.1 148.1,77.6 150.7,79 		"/>
		<polygon class="st19" points="153.2,82.1 151.5,81.2 151.7,79.6 153.4,80.6 		"/>
		<polygon class="st19" points="143.1,80.2 139.3,78 139.5,76.5 143.4,78.6 		"/>
		<polygon class="st19" points="148.9,83.4 144.2,80.8 144.4,79.2 149.1,81.9 		"/>
		<polygon class="st19" points="151.6,85 149.9,84 150.2,82.5 151.9,83.5 		"/>
		<polygon class="st19" points="154.3,86.5 152.6,85.5 152.8,84 154.5,85 		"/>
		<polygon class="st19" points="141.5,83 138.8,81.4 139,79.9 141.8,81.5 		"/>
		<polygon class="st19" points="143.5,84.2 142.6,83.6 142.8,82.1 143.8,82.6 		"/>
		<polygon class="st19" points="146.3,85.7 144.6,84.8 144.8,83.2 146.5,84.2 		"/>
		<polygon class="st19" points="148.4,90.7 138.2,84.9 138.5,83.4 148.6,89.2 		"/>
		<polygon class="st19" points="152,92.7 149.5,91.3 149.7,89.8 152.2,91.2 		"/>
		<polygon class="st19" points="140.4,89.9 137.7,88.3 137.9,86.8 140.7,88.4 		"/>
		<polygon class="st19" points="146.9,93.6 141.5,90.5 141.7,89 147.1,92.1 		"/>
		<polygon class="st19" points="149.7,95.2 148,94.2 148.2,92.7 149.9,93.7 		"/>
		<polygon class="st19" points="142.8,95 137.1,91.8 137.4,90.3 143,93.5 		"/>
		<polygon class="st19" points="147.9,97.9 143.8,95.6 144.1,94.1 148.2,96.4 		"/>
		<polygon class="st19" points="151.7,100.1 149,98.5 149.2,97 152,98.6 		"/>
		<polygon class="st19" points="138.5,96.3 136.6,95.3 136.8,93.7 138.7,94.8 		"/>
		<polygon class="st19" points="142.1,98.4 139.6,96.9 139.8,95.4 142.3,96.9 		"/>
		<polygon class="st19" points="147.2,101.3 143.2,99 143.4,97.5 147.4,99.8 		"/>
		<polygon class="st19" points="141.9,102 136.1,98.7 136.3,97.2 142.1,100.5 		"/>
		<polygon class="st19" points="148.4,105.7 143,102.6 143.2,101.1 148.7,104.2 		"/>
		<polygon class="st19" points="151.2,107.3 149.5,106.3 149.7,104.8 151.4,105.8 		"/>
		<polygon class="st19" points="153.9,108.8 152.2,107.9 152.4,106.3 154.1,107.3 		"/>
		<polygon class="st19" points="139,104.1 135.5,102.2 135.7,100.6 139.2,102.6 		"/>
		<polygon class="st19" points="158,84.8 162.8,87.6 163,86.1 158.2,83.3 		"/>
		<polygon class="st19" points="158.5,88.9 162.3,91 162.5,89.5 158.7,87.4 		"/>
		<polygon class="st19" points="159,92.9 161.7,94.5 162,93 159.2,91.4 		"/>
		<polygon class="st19" points="157.2,95.7 161.2,97.9 161.4,96.4 157.4,94.2 		"/>
		<polygon class="st19" points="157.9,99.8 160.6,101.4 160.9,99.9 158.1,98.3 		"/>
		<polygon class="st19" points="156.6,102.9 160.1,104.9 160.3,103.3 156.8,101.4 		"/>
		<polygon class="st19" points="157.6,107.2 159.5,108.3 159.8,106.8 157.9,105.7 		"/>
		<polygon class="st19" points="155.3,109.7 159,111.8 159.2,110.2 155.6,108.2 		"/>
		<polygon class="st19" points="155,113.2 158.5,115.2 158.7,113.7 155.2,111.7 		"/>
		<polygon class="st19" points="141.6,105.6 140.1,104.8 140.3,103.2 141.8,104.1 		"/>
		<polygon class="st19" points="146,108.1 142.6,106.2 142.9,104.7 146.2,106.6 		"/>
		<polygon class="st19" points="147.2,119.7 141.5,116.5 141.8,115 147.4,118.2 		"/>
		<polygon class="st19" points="151,121.9 148.8,120.7 149,119.1 151.3,120.4 		"/>
		<polygon class="st19" points="173.9,93.9 167,89.9 167.2,88.4 174.2,92.3 		"/>
		<polygon class="st19" points="177.5,95.9 175,94.5 175.3,93 177.8,94.4 		"/>
		<polygon class="st19" points="180.3,97.5 178.6,96.5 178.8,95 180.5,96 		"/>
		<polygon class="st19" points="170.2,95.5 166.4,93.3 166.7,91.8 170.5,94 		"/>
		<polygon class="st19" points="176,98.8 171.3,96.1 171.5,94.6 176.2,97.3 		"/>
		<polygon class="st19" points="178.7,100.3 177,99.4 177.3,97.9 179,98.8 		"/>
		<polygon class="st19" points="181.4,101.8 179.7,100.9 179.9,99.4 181.6,100.3 		"/>
		<polygon class="st19" points="168.6,98.4 165.9,96.8 166.1,95.3 168.9,96.8 		"/>
		<polygon class="st19" points="170.6,99.5 169.7,99 169.9,97.5 170.9,98 		"/>
		<polygon class="st19" points="173.4,101.1 171.7,100.1 171.9,98.6 173.7,99.6 		"/>
		<polygon class="st19" points="175.5,106 165.3,100.2 165.6,98.7 175.7,104.5 		"/>
		<polygon class="st19" points="179.1,108.1 176.6,106.6 176.8,105.1 179.3,106.6 		"/>
		<polygon class="st19" points="167.5,105.3 164.8,103.7 165,102.2 167.8,103.8 		"/>
		<polygon class="st19" points="174,108.9 168.6,105.9 168.8,104.4 174.2,107.4 		"/>
		<polygon class="st19" points="176.8,110.5 175.1,109.5 175.3,108 177,109 		"/>
		<polygon class="st19" points="169.9,110.4 164.2,107.2 164.5,105.6 170.1,108.8 		"/>
		<polygon class="st19" points="175,113.3 171,111 171.2,109.5 175.3,111.8 		"/>
		<polygon class="st19" points="178.8,115.5 176.1,113.9 176.3,112.4 179.1,113.9 		"/>
		<polygon class="st19" points="165.6,111.7 163.7,110.6 163.9,109.1 165.8,110.2 		"/>
		<polygon class="st19" points="169.2,113.7 166.7,112.3 166.9,110.8 169.4,112.2 		"/>
		<polygon class="st19" points="174.3,116.6 170.3,114.3 170.5,112.8 174.6,115.1 		"/>
		<polygon class="st19" points="169,117.4 163.2,114.1 163.4,112.5 169.2,115.9 		"/>
		<polygon class="st19" points="175.5,121.1 170.1,118 170.3,116.5 175.8,119.6 		"/>
		<polygon class="st19" points="178.3,122.7 176.6,121.7 176.8,120.2 178.5,121.2 		"/>
		<polygon class="st19" points="181,124.2 179.3,123.2 179.5,121.7 181.2,122.7 		"/>
		<polygon class="st19" points="166.1,119.5 162.6,117.5 162.9,116 166.4,118 		"/>
		<polygon class="st19" points="185.1,100.2 189.9,102.9 190.1,101.4 185.3,98.7 		"/>
		<polygon class="st19" points="185.6,104.2 189.4,106.4 189.6,104.9 185.8,102.7 		"/>
		<polygon class="st19" points="186.1,108.3 188.8,109.8 189.1,108.3 186.3,106.8 		"/>
		<polygon class="st19" points="184.3,111 188.3,113.3 188.5,111.8 184.5,109.5 		"/>
		<polygon class="st19" points="185,115.2 187.7,116.8 188,115.2 185.2,113.7 		"/>
		<polygon class="st19" points="183.7,118.2 187.2,120.2 187.4,118.7 183.9,116.7 		"/>
		<polygon class="st19" points="184.8,122.6 186.7,123.7 186.9,122.1 185,121.1 		"/>
		<polygon class="st19" points="182.4,125 186.1,127.1 186.4,125.6 182.7,123.5 		"/>
		<polygon class="st19" points="182.1,128.6 185.6,130.6 185.8,129.1 182.3,127.1 		"/>
		<polygon class="st19" points="168.7,121 167.2,120.1 167.4,118.6 168.9,119.4 		"/>
		<polygon class="st19" points="173.1,123.5 169.7,121.6 170,120 173.3,121.9 		"/>
		<polygon class="st19" points="174.3,135.1 168.6,131.9 168.9,130.4 174.5,133.6 		"/>
		<polygon class="st19" points="178.1,137.3 175.9,136 176.1,134.5 178.4,135.8 		"/>
	</g>
	<g>
		<g>
			
				<linearGradient id="SVGID_12_" gradientUnits="userSpaceOnUse" x1="1208.5347" y1="154.7476" x2="1251.8037" y2="76.8353" gradientTransform="matrix(-1 0 0 1 1432.0824 0)">
				<stop  offset="0" style="stop-color:#5778FF"/>
				<stop  offset="3.979178e-02" style="stop-color:#5C7DFF"/>
				<stop  offset="8.669901e-02" style="stop-color:#6A8AFF"/>
				<stop  offset="0.1372" style="stop-color:#82A0FF"/>
				<stop  offset="0.1899" style="stop-color:#A3BEFF"/>
				<stop  offset="0.2237" style="stop-color:#BCD5FF"/>
			</linearGradient>
			<path class="st20" d="M150.6,81.2l6.5-3.8v0c0.1-0.1,0.2-0.1,0.3,0l81.8,47.2c0.3,0.2,0.5,0.6,0.5,0.9V141c0,0.2-0.1,0.3-0.1,0.4
				l0,0l0,0c0,0,0,0,0,0l-6.6,3.8l-0.1-7.5l-75.5-43.6c-0.3-0.2-0.5-0.6-0.5-0.9v-5.3L150.6,81.2z"/>
			
				<linearGradient id="SVGID_13_" gradientUnits="userSpaceOnUse" x1="1261.6903" y1="155.0239" x2="1232.8904" y2="98.7233" gradientTransform="matrix(-1 0 0 1 1432.0824 0)">
				<stop  offset="0" style="stop-color:#C0D6FF"/>
				<stop  offset="0.2978" style="stop-color:#C5DBFF"/>
				<stop  offset="0.6488" style="stop-color:#D3E9FF"/>
				<stop  offset="1" style="stop-color:#E9FFFF"/>
			</linearGradient>
			<path class="st21" d="M150.9,97.9l81.8,47.2c0.3,0.2,0.5,0,0.5-0.4v-15.4c0-0.4-0.2-0.8-0.5-0.9l-81.8-47.2
				c-0.3-0.2-0.5,0-0.5,0.4V97C150.4,97.4,150.6,97.8,150.9,97.9z"/>
			<path class="st22" d="M162.2,94.8l63.7,37.4c-2,1.7-3.8,3.6-5.5,5.8l-64.2-37C158,98.7,160,96.6,162.2,94.8z"/>
			<path class="st2" d="M153.2,93.3l77.1,44.5c0.2,0.1,0.3,0,0.3-0.2v-3.9c0-0.2-0.1-0.5-0.3-0.6l-77.1-44.5c-0.2-0.1-0.3,0-0.3,0.2
				v3.9C152.9,92.9,153.1,93.2,153.2,93.3z"/>
			<path class="st4" d="M153.2,88.5l1.6,0.9v2.1c0,0.2,0.1,0.5,0.3,0.6l75.5,43.6v1.8c0,0.2-0.1,0.4-0.3,0.2l-77.1-44.5
				c-0.2-0.1-0.3-0.4-0.3-0.6v-3.9C152.9,88.5,153.1,88.4,153.2,88.5z"/>
		</g>
		
			<linearGradient id="SVGID_14_" gradientUnits="userSpaceOnUse" x1="1339.5325" y1="256.2269" x2="1248" y2="94.0399" gradientTransform="matrix(-1 0 0 1 1432.0824 0)">
			<stop  offset="0" style="stop-color:#C0D6FF"/>
			<stop  offset="7.816905e-02" style="stop-color:#C3D9FF"/>
			<stop  offset="0.1341" style="stop-color:#CCE2FF"/>
			<stop  offset="0.1829" style="stop-color:#DCF2FF"/>
			<stop  offset="0.2117" style="stop-color:#E9FFFF"/>
			<stop  offset="0.256" style="stop-color:#D8EEFF"/>
			<stop  offset="0.3145" style="stop-color:#CBE1FF"/>
			<stop  offset="0.3869" style="stop-color:#C2D8FF"/>
			<stop  offset="0.5143" style="stop-color:#C0D6FF"/>
			<stop  offset="0.6239" style="stop-color:#D0E6FF"/>
			<stop  offset="0.755" style="stop-color:#E9FFFF"/>
			<stop  offset="1" style="stop-color:#C0D6FF"/>
		</linearGradient>
		<path class="st23" d="M109.9,260.3l-64.2-37l0,0c8.3-4.8,15.3-15.2,17.4-25.2c0.9-4.1,3.3-7.6,6.9-9.6l48.5-28
			c13.5-7.8,22.3-21.8,23.2-37.4c0.8-13.1,10.7-26.1,18.4-30.5l0,0l64.2,37l0,0c-7.6,4.4-16,16.6-16.9,29.6
			c-1.1,15.6-9.6,29.6-23.1,37.5l-50,28.9c-3.6,2.1-6.1,5.6-6.9,9.6C125.2,245.1,118.2,255.6,109.9,260.3L109.9,260.3z"/>
		<path class="st24" d="M160.2,92.5l64.2,37c-0.5,0.3-1,0.6-1.5,1l0,0l-64.1-37C159.1,93.1,159.6,92.8,160.2,92.5z"/>
	</g>
	<g class="st25">
		<polygon class="st4" points="184.3,136.3 195.5,142.9 195.6,141.6 184.4,135.1 		"/>
		<polygon class="st4" points="178.6,133 182.6,135.3 182.7,134.1 178.7,131.8 		"/>
		<polygon class="st4" points="174.3,130.5 176.9,132.1 177.1,130.8 174.4,129.3 		"/>
		<polygon class="st4" points="189.1,142.2 195.3,145.8 195.4,144.5 189.2,140.9 		"/>
		<polygon class="st4" points="180,136.9 187.4,141.2 187.5,139.9 180.1,135.6 		"/>
		<polygon class="st4" points="175.6,134.3 178.3,135.9 178.4,134.6 175.7,133.1 		"/>
		<polygon class="st4" points="171.4,131.9 174.1,133.5 174.2,132.2 171.6,130.7 		"/>
		<polygon class="st4" points="190.6,146.2 195.1,148.8 195.2,147.5 190.7,144.9 		"/>
		<polygon class="st4" points="187.4,144.3 188.9,145.2 189,143.9 187.5,143 		"/>
		<polygon class="st4" points="182.9,141.7 185.6,143.3 185.7,142 183,140.4 		"/>
		<polygon class="st4" points="178.4,142.2 194.9,151.9 195,150.5 178.5,140.9 		"/>
		<polygon class="st4" points="172.7,138.8 176.7,141.2 176.8,139.9 172.9,137.5 		"/>
		<polygon class="st4" points="190.1,152.2 194.7,154.9 194.8,153.6 190.2,150.9 		"/>
		<polygon class="st4" points="179.7,146 188.4,151.2 188.5,149.9 179.8,144.7 		"/>
		<polygon class="st4" points="175.2,143.4 177.9,145 178.1,143.7 175.3,142.1 		"/>
		<polygon class="st4" points="185.2,152.5 194.5,158 194.6,156.7 185.3,151.2 		"/>
		<polygon class="st4" points="176.9,147.5 183.4,151.5 183.6,150.1 177,146.2 		"/>
		<polygon class="st4" points="170.8,143.9 175.2,146.5 175.3,145.2 170.9,142.6 		"/>
		<polygon class="st4" points="191.1,159.2 194.2,161.1 194.3,159.8 191.2,157.9 		"/>
		<polygon class="st4" points="185.2,155.7 189.3,158.2 189.4,156.8 185.3,154.4 		"/>
		<polygon class="st4" points="176.9,150.7 183.4,154.7 183.5,153.3 177,149.4 		"/>
		<polygon class="st4" points="184.4,158.4 194,164.3 194.1,162.9 184.5,157.1 		"/>
		<polygon class="st4" points="173.7,152.1 182.6,157.4 182.7,156 173.9,150.7 		"/>
		<polygon class="st4" points="169.3,149.4 172,151 172.2,149.7 169.4,148.1 		"/>
		<polygon class="st4" points="165.1,146.8 167.8,148.5 167.9,147.2 165.2,145.5 		"/>
		<polygon class="st4" points="188,163.9 193.8,167.4 193.9,166 188.1,162.5 		"/>
		<polygon class="st4" points="162.2,123.5 154.9,119.3 155.1,118.1 162.4,122.3 		"/>
		<polygon class="st4" points="160.3,125.4 154.5,122.1 154.7,120.9 160.4,124.2 		"/>
		<polygon class="st4" points="158.3,127.3 154.2,124.9 154.3,123.6 158.5,126.1 		"/>
		<polygon class="st4" points="159.9,131.3 153.8,127.7 154,126.4 160.1,130 		"/>
		<polygon class="st4" points="157.6,133 153.4,130.5 153.6,129.3 157.8,131.7 		"/>
		<polygon class="st4" points="158.4,136.6 153,133.4 153.2,132.1 158.6,135.3 		"/>
		<polygon class="st4" points="155.6,138 152.7,136.2 152.8,135 155.8,136.7 		"/>
		<polygon class="st4" points="158,142.6 152.3,139.1 152.4,137.9 158.1,141.3 		"/>
		<polygon class="st4" points="157.3,145.4 151.9,142.1 152.1,140.8 157.5,144.1 		"/>
		<polygon class="st4" points="183.7,161.3 186.2,162.8 186.3,161.5 183.9,160 		"/>
		<polygon class="st4" points="176.5,157 182,160.3 182.1,158.9 176.6,155.6 		"/>
	</g>
	<g class="st25">
		<g>
			<g>
				<polygon class="st4" points="142.9,178.8 126.1,169.2 127.3,168.5 144,178.1 				"/>
				<polygon class="st4" points="152.6,184.4 146.5,180.9 147.7,180.3 153.8,183.7 				"/>
				<polygon class="st4" points="157.4,187.2 155.7,186.2 156.8,185.5 158.6,186.5 				"/>
				<polygon class="st4" points="166.5,192.5 160.5,189 161.7,188.3 167.7,191.8 				"/>
			</g>
			<g>
				<polygon class="st4" points="128.5,173.4 123.7,170.6 124.8,169.9 129.7,172.7 				"/>
				<polygon class="st4" points="150.1,185.9 132.2,175.5 133.4,174.8 151.3,185.2 				"/>
				<polygon class="st4" points="155,188.7 153.2,187.6 154.4,186.9 156.1,188 				"/>
				<polygon class="st4" points="164.1,193.9 158,190.4 159.2,189.7 165.3,193.2 				"/>
				<polygon class="st4" points="123.6,173.4 121.2,172 122.4,171.3 124.8,172.7 				"/>
				<polygon class="st4" points="130.2,177.2 127.3,175.6 128.5,174.9 131.4,176.5 				"/>
				<polygon class="st4" points="135.1,180 133.3,179 134.5,178.3 136.3,179.3 				"/>
				<polygon class="st4" points="144.2,185.3 138.1,181.8 139.3,181.1 145.4,184.6 				"/>
				<polygon class="st4" points="123.6,176.3 118.7,173.4 119.9,172.7 124.8,175.6 				"/>
				<polygon class="st4" points="133.3,181.9 127.3,178.4 128.5,177.7 134.5,181.2 				"/>
				<polygon class="st4" points="138.2,184.7 136.4,183.6 137.6,183 139.4,184 				"/>
				<polygon class="st4" points="147.3,189.9 141.2,186.4 142.4,185.8 148.5,189.2 				"/>
			</g>
		</g>
		<g>
			<g>
				<polygon class="st4" points="132.8,184.6 116.1,175 117.2,174.3 134,183.9 				"/>
				<polygon class="st4" points="142.5,190.2 136.5,186.8 137.7,186.1 143.7,189.6 				"/>
				<polygon class="st4" points="147.3,193 145.6,192 146.8,191.3 148.5,192.4 				"/>
				<polygon class="st4" points="156.5,198.3 150.4,194.8 151.6,194.1 157.7,197.6 				"/>
			</g>
			<g>
				<polygon class="st4" points="118.5,179.2 113.6,176.4 114.8,175.7 119.7,178.5 				"/>
				<polygon class="st4" points="140,191.7 122.2,181.3 123.4,180.7 141.2,191 				"/>
				<polygon class="st4" points="144.9,194.5 143.1,193.4 144.3,192.8 146.1,193.8 				"/>
				<polygon class="st4" points="154,199.7 148,196.2 149.1,195.6 155.2,199 				"/>
				<polygon class="st4" points="113.6,179.2 111.1,177.8 112.3,177.1 114.7,178.5 				"/>
				<polygon class="st4" points="120.1,183 117.2,181.4 118.4,180.7 121.3,182.3 				"/>
				<polygon class="st4" points="125,185.8 123.2,184.8 124.4,184.1 126.2,185.1 				"/>
				<polygon class="st4" points="134.1,191.1 128.1,187.6 129.3,186.9 135.3,190.4 				"/>
				<polygon class="st4" points="113.5,182.1 108.6,179.3 109.8,178.6 114.7,181.4 				"/>
				<polygon class="st4" points="123.2,187.7 117.2,184.2 118.4,183.5 124.4,187 				"/>
				<polygon class="st4" points="128.1,190.5 126.3,189.5 127.5,188.8 129.3,189.8 				"/>
				<polygon class="st4" points="137.2,195.7 131.2,192.3 132.4,191.6 138.4,195.1 				"/>
			</g>
		</g>
		<g>
			<g>
				<polygon class="st4" points="122.7,190.4 106,180.8 107.2,180.1 123.9,189.8 				"/>
				<polygon class="st4" points="132.4,196.1 126.4,192.6 127.6,191.9 133.6,195.4 				"/>
				<polygon class="st4" points="137.3,198.9 135.5,197.8 136.7,197.1 138.5,198.2 				"/>
				<polygon class="st4" points="146.4,204.1 140.4,200.6 141.5,199.9 147.6,203.4 				"/>
			</g>
			<g>
				<polygon class="st4" points="108.4,185 103.5,182.2 104.7,181.5 109.6,184.3 				"/>
				<polygon class="st4" points="130,197.5 112.1,187.2 113.3,186.5 131.2,196.8 				"/>
				<polygon class="st4" points="134.8,200.3 133,199.3 134.2,198.6 136,199.6 				"/>
				<polygon class="st4" points="143.9,205.5 137.9,202.1 139.1,201.4 145.1,204.9 				"/>
				<polygon class="st4" points="103.5,185.1 101,183.6 102.2,183 104.7,184.4 				"/>
				<polygon class="st4" points="110.1,188.9 107.2,187.2 108.4,186.5 111.3,188.2 				"/>
				<polygon class="st4" points="114.9,191.7 113.1,190.6 114.3,189.9 116.1,191 				"/>
				<polygon class="st4" points="124,196.9 118,193.4 119.2,192.7 125.2,196.2 				"/>
				<polygon class="st4" points="103.5,187.9 98.6,185.1 99.8,184.4 104.6,187.2 				"/>
				<polygon class="st4" points="113.2,193.5 107.1,190 108.3,189.3 114.4,192.8 				"/>
				<polygon class="st4" points="118,196.3 116.3,195.3 117.4,194.6 119.2,195.6 				"/>
				<polygon class="st4" points="127.1,201.6 121.1,198.1 122.3,197.4 128.3,200.9 				"/>
			</g>
		</g>
	</g>
</g>
</svg>
