<svg xmlns="http://www.w3.org/2000/svg" xmlns:xlink="http://www.w3.org/1999/xlink" viewBox="0 0 300 300" enable-background="new 0 0 300 300"><style type="text/css">.st0{fill:url(#SVGID_1_);} .st1{fill:url(#SVGID_2_);} .st2{fill:#242993;} .st3{opacity:0.51;} .st4{fill:#4553C7;} .st5{fill:#42FFFF;} .st6{opacity:0.5;fill:#242993;} .st7{fill:url(#SVGID_3_);} .st8{fill:url(#SVGID_5_);} .st9{fill:#2859CB;} .st10{fill:#ADC8FF;} .st11{fill:#91AFFF;} .st12{fill:url(#SVGID_6_);} .st13{opacity:0.11;} .st14{clip-path:url(#SVGID_7_);} .st15{fill:url(#SVGID_8_);} .st16{fill:url(#SVGID_9_);} .st17{opacity:0.42;fill:url(#SVGID_10_);} .st18{opacity:0.42;fill:url(#SVGID_11_);} .st19{opacity:0.5;fill:#42FFFF;} .st20{fill:url(#SVGID_12_);} .st21{fill:url(#SVGID_13_);} .st22{opacity:0.6;fill:#242993;} .st23{opacity:0.96;fill:url(#SVGID_14_);} .st24{opacity:0.8;fill:#4553C7;} .st25{opacity:0.32;}</style><linearGradient id="SVGID_1_" x1="1153.829" x2="1312.239" y1="111.404" y2="111.404" gradientUnits="userSpaceOnUse" gradientTransform="matrix(-1 0 0 1 1432.082 0)"><stop offset="0" stop-color="#C0D6FF"/><stop offset=".298" stop-color="#C5DBFF"/><stop offset=".649" stop-color="#D3E9FF"/><stop offset="1" stop-color="#E9FFFF"/></linearGradient><path d="M119.9 121.3L137 19.5l-1.4-.6 2.1-1.2c.4-.3 1-.3 1.6.1L276.4 97c1.1.7 2 2.3 1.8 3.5l-17.3 102.6c-.1.5-.4.9-.7 1l-2 1.2-.3-1.9h.1l-136.3-78.7c-1.2-.6-2-2.3-1.8-3.4z" class="st0"/><linearGradient id="SVGID_2_" x1="1153.83" x2="1181.03" y1="152.029" y2="152.029" gradientUnits="userSpaceOnUse" gradientTransform="matrix(-1 0 0 1 1432.082 0)"><stop offset="0" stop-color="#5778FF"/><stop offset=".178" stop-color="#5C7DFF"/><stop offset=".388" stop-color="#6A8AFF"/><stop offset=".613" stop-color="#82A0FF"/><stop offset=".849" stop-color="#A3BEFF"/><stop offset="1" stop-color="#BCD5FF"/></linearGradient><path d="M275.7 99.8l2.3-1c.3.6.4 1.2.3 1.7L261 203.1c-.1.5-.4.9-.7 1l-2 1.2-.3-1.9h.1l-6.9-4 24.5-99.6z" class="st1"/><path d="M119.5 126l137.1 79.2c1.1.6 2 .3 2.2-.8l17.3-102.6c.2-1.2-.7-2.8-1.8-3.5L137.2 19c-1.1-.6-2-.3-2.2.8l-17.3 102.6c-.2 1.3.7 2.9 1.8 3.6z" class="st2"/><path d="M139 25.6l132.1 76.3-16.4 96.6-132-76.2z" class="st4"/><path d="M172.6 282.5c-1.2 0-2.4-.3-3.4-.9L23.3 197.3c-1-.6-1.6-1.4-1.6-2.2 0-.7.4-1.3 1.2-1.7l92.1-53.2c1.6-.9 4.2-.8 6.1.2L267 224.8c1 .6 1.6 1.4 1.6 2.2 0 .7-.4 1.3-1.2 1.7l-92.1 53.2c-.7.4-1.7.6-2.7.6zm-54.9-142.2c-.9 0-1.7.2-2.3.5L23.3 194c-.5.3-.8.7-.8 1.1 0 .5.4 1.1 1.2 1.6L169.6 281c1.6.9 4 1 5.4.2l92.1-53.2c.5-.3.8-.7.8-1.1 0-.5-.4-1.1-1.2-1.6L120.8 141c-1-.4-2.1-.7-3.1-.7z" class="st5"/><path d="M34.5 196.2l135.7 78.4c1.5.9 3.7 1 5 .2l81-46.8c1.3-.7 1.1-2-.4-2.9l-135.7-78.4c-1.5-.9-3.7-1-5-.2l-81 46.8c-1.3.7-1.1 2 .4 2.9z" class="st6"/><linearGradient id="SVGID_3_" x1="1175.052" x2="1398.779" y1="197.697" y2="197.697" gradientUnits="userSpaceOnUse" gradientTransform="matrix(-1 0 0 1 1432.082 0)"><stop offset="0" stop-color="#5778FF"/><stop offset=".178" stop-color="#5C7DFF"/><stop offset=".388" stop-color="#6A8AFF"/><stop offset=".613" stop-color="#82A0FF"/><stop offset=".849" stop-color="#A3BEFF"/><stop offset="1" stop-color="#BCD5FF"/></linearGradient><path d="M33.3 174.6l7.5 3.9 75-43.3c1.3-.7 3.4-.6 4.9.2l129.4 74.7c1.2-.7 6.9-3.4 6.9-3.4l-2.7 7.1c-.1.3-.4.6-.8.8l-79 45.6c-1.3.7-3.4.6-4.9-.2L37.1 183.6c-.6-.3-1-.8-1.1-1.2l-2.7-7.8z" class="st7"/><linearGradient id="SVGID_5_" x1="1250.225" x2="1474.071" y1="190.237" y2="190.237" gradientUnits="userSpaceOnUse" gradientTransform="matrix(-1 0 0 1 1432.082 0)"><stop offset="0" stop-color="#C0D6FF"/><stop offset=".298" stop-color="#C5DBFF"/><stop offset=".649" stop-color="#D3E9FF"/><stop offset="1" stop-color="#E9FFFF"/></linearGradient><path d="M34.5 175.8l135.7 78.4c1.5.9 3.7 1 5 .2l81-46.8c1.3-.7 1.1-2-.4-2.9l-135.7-78.4c-1.5-.9-3.7-1-5-.2l-81 46.8c-1.3.7-1.1 2 .4 2.9z" class="st8"/><path d="M211.1 237.2v-1.5c0-.1-.1-.2-.2-.1l-5.3 3c-.1.1-.2.2-.2.4v1.5c0 .1.1.2.2.1l5.3-3c.1-.1.2-.3.2-.4zM203.3 241.7v-1.5c0-.1-.1-.2-.2-.1l-5.3 3c-.1.1-.2.2-.2.4v1.5c0 .1.1.2.2.1l5.3-3c.1-.1.2-.2.2-.4z" class="st9"/><path d="M235.1 203.2l-112.8-65.1c-.8-.4-1.7-.4-2.4 0l-40.2 23.2c-.6.3-.6 1.2 0 1.5l112.7 65.1c.8.4 1.7.4 2.4 0l40.2-23.2c.7-.3.7-1.2.1-1.5z" class="st10"/><path d="M235.1 204.7l-.4.2L122.3 140c-.8-.4-1.7-.4-2.4 0l-39.8 23-.4-.2c-.6-.3-.6-1.2 0-1.5l40.2-23.2c.8-.4 1.7-.4 2.4 0l112.8 65.1c.6.3.6 1.2 0 1.5z" class="st11"/><path d="M116.8 144l98 56.5 4.4-2.5-98-56.5zM106.2 150.1l91.9 53.1 4.3-2.5-91.9-53.1zM99.2 154.2l108.2 62.4 4.4-2.5-108.2-62.5zM92.2 158.2l108.2 62.4 4.4-2.5-108.2-62.4zM85.3 162.2l108.2 62.5 4.3-2.6-108.2-62.4zM220.7 204l4.4 2.5 4.3-2.5-4.3-2.6zM205.4 207.4l9 5.2 4.4-2.5-9.1-5.2z" class="st2"/><linearGradient id="SVGID_6_" x1="1288.133" x2="1345.431" y1="202.944" y2="202.944" gradientUnits="userSpaceOnUse" gradientTransform="matrix(-1 0 0 1 1432.082 0)"><stop offset="0" stop-color="#C0D6FF"/><stop offset=".298" stop-color="#C5DBFF"/><stop offset=".649" stop-color="#D3E9FF"/><stop offset="1" stop-color="#E9FFFF"/></linearGradient><path d="M118 219l-30.4-17.6c-1.2-.7-1.2-1.8 0-2.5l20.8-12c1.2-.7 3.1-.7 4.3 0l30.4 17.6c1.2.7 1.2 1.8 0 2.5l-20.8 12c-1.2.7-3.2.7-4.3 0z" class="st12"/><path d="M143.1 205.5l-30.4-17.6c-1.2-.7-3.1-.7-4.3 0l-20.8 12c-.4.2-.6.5-.7.7-.3-.6-.1-1.3.7-1.8l20.8-12c1.2-.7 3.1-.7 4.3 0l30.4 17.6c.8.5 1.1 1.2.7 1.8-.1-.2-.4-.5-.7-.7z" class="st11"/><g class="st13"><defs><path id="SVGID_4_" d="M139 25.6l132.1 76.3-16.4 96.6-132-76.2z" class="st13"/></defs><clipPath id="SVGID_7_"><use xlink:href="#SVGID_4_" overflow="visible"/></clipPath><g class="st14"><linearGradient id="SVGID_8_" x1="1164.703" x2="1388.549" y1="140.622" y2="140.622" gradientUnits="userSpaceOnUse" gradientTransform="matrix(-1 0 0 1 1432.082 0)"><stop offset="0" stop-color="#C0D6FF"/><stop offset=".298" stop-color="#C5DBFF"/><stop offset=".649" stop-color="#D3E9FF"/><stop offset="1" stop-color="#E9FFFF"/></linearGradient><path d="M120 126.2l135.7 78.4c1.5.9 3.7 1 5 .2l81-46.8c1.3-.7 1.1-2-.4-2.9L205.6 76.7c-1.5-.9-3.7-1-5-.2l-81 46.8c-1.3.7-1.1 2 .4 2.9z" class="st15"/><linearGradient id="SVGID_9_" x1="1149.97" x2="1207.268" y1="124.19" y2="124.19" gradientUnits="userSpaceOnUse" gradientTransform="matrix(-1 0 0 1 1432.082 0)"><stop offset="0" stop-color="#C0D6FF"/><stop offset=".298" stop-color="#C5DBFF"/><stop offset=".649" stop-color="#D3E9FF"/><stop offset="1" stop-color="#E9FFFF"/></linearGradient><path d="M256.1 140.2l-30.4-17.6c-1.2-.7-1.2-1.8 0-2.5l20.8-12c1.2-.7 3.1-.7 4.3 0l30.4 17.6c1.2.7 1.2 1.8 0 2.5l-20.8 12c-1.2.7-3.1.7-4.3 0z" class="st16"/><path d="M281.2 126.7l-30.4-17.6c-1.2-.7-3.1-.7-4.3 0l-20.8 12c-.4.2-.6.5-.7.7-.3-.6-.1-1.3.7-1.8l20.8-12c1.2-.7 3.1-.7 4.3 0l30.4 17.6c.8.5 1.1 1.2.7 1.8-.1-.2-.3-.4-.7-.7z" class="st11"/><path d="M294.6 167.7l-112.8-65.1c-.8-.4-1.7-.4-2.4 0l-40.2 23.2c-.6.3-.6 1.2 0 1.5l112.7 65.1c.8.4 1.7.4 2.4 0l40.2-23.2c.7-.4.7-1.2.1-1.5z" class="st10"/><path d="M294.6 169.2l-.4.2-112.4-64.9c-.8-.4-1.7-.4-2.4 0l-39.8 23-.4-.2c-.6-.3-.6-1.2 0-1.5l40.2-23.2c.8-.4 1.7-.4 2.4 0l112.8 65.1c.6.3.6 1.1 0 1.5z" class="st11"/><path d="M149.7 124.2l98.3 56.7-3.9 2.3-98.3-56.8zM160.1 118.2l93.4 53.9-3.9 2.3-93.4-53.9zM260.4 176.2l8.8 5-3.9 2.2-8.8-5zM252.7 183.7l6.1 3.5-3.9 2.2-6.1-3.5zM166.6 114.5l109 63-3.8 2.2-109.1-63zM173 110.7l109.1 63-3.9 2.3-109.1-63zM179.5 107l109.1 63-3.9 2.2-109.1-63z" class="st2"/></g></g><radialGradient id="SVGID_10_" cx="1240.255" cy="169.435" r="64.172" gradientTransform="matrix(-1 0 0 1 1432.082 0)" gradientUnits="userSpaceOnUse"><stop offset="0" stop-color="#2B3AA5"/><stop offset="1" stop-color="#182484"/></radialGradient><path d="M182.8 197.4l29.3-18-65.8-37.9-31 20.8z" class="st17"/><radialGradient id="SVGID_11_" cx="1226.219" cy="140.567" r="49.12" gradientTransform="matrix(-1 0 0 1 1432.082 0)" gradientUnits="userSpaceOnUse"><stop offset="0" stop-color="#2B3AA5"/><stop offset="1" stop-color="#182484"/></radialGradient><path d="M212.1 179.4l6.7-42.3-61.7-35.4v45.9z" class="st18"/><path d="M216.9 84.8l-7-4 .2-1.5 7 4zM220.5 86.8l-2.6-1.4.3-1.5 2.5 1.4zM223.2 88.4l-1.7-1 .3-1.5 1.7 1zM213.1 86.4l-3.8-2.1.3-1.5 3.8 2.1zM218.9 89.7l-4.7-2.7.3-1.5 4.6 2.7zM221.7 91.3l-1.8-1 .3-1.5 1.7 1zM224.3 92.8l-1.7-1 .2-1.5 1.7 1z" class="st19"/><path d="M211.6 89.3l-2.8-1.6.2-1.5 2.8 1.6zM213.6 90.4l-1-.5.3-1.5.9.5z" class="st5"/><path d="M216.3 92l-1.7-1 .3-1.5 1.7 1zM218.4 97l-10.1-5.8.2-1.5 10.2 5.7zM222 99l-2.5-1.4.2-1.5 2.5 1.4zM210.5 96.2l-2.8-1.6.3-1.5 2.7 1.6zM216.9 99.9l-5.4-3.1.3-1.5 5.4 3.1zM219.7 101.4l-1.7-.9.2-1.5 1.7.9zM212.8 101.3l-5.6-3.2.2-1.5 5.6 3.2z" class="st19"/><path d="M218 104.2l-4.1-2.3.2-1.5 4.1 2.3z" class="st5"/><path d="M221.8 106.4l-2.8-1.6.3-1.5 2.7 1.6zM208.5 102.6l-1.9-1.1.3-1.5 1.9 1.1zM212.1 104.7l-2.5-1.5.2-1.5 2.6 1.4zM217.2 107.6l-4-2.3.2-1.6 4.1 2.4zM211.9 108.3l-5.8-3.3.2-1.5 5.9 3.3zM218.4 112l-5.4-3.1.2-1.5 5.5 3.1z" class="st19"/><path d="M221.2 113.6l-1.7-1 .3-1.5 1.7 1z" class="st5"/><path d="M223.9 115.1l-1.7-1 .2-1.5 1.7 1zM209 110.4l-3.5-2 .3-1.5 3.5 2z" class="st19"/><path d="M228 91.1l4.8 2.8.3-1.5-4.9-2.8z" class="st5"/><path d="M228.5 95.2l3.8 2.1.2-1.5-3.8-2.2zM229 99.2l2.8 1.6.2-1.5-2.8-1.6zM227.2 101.9l4 2.3.2-1.5-4-2.3zM227.9 106.1l2.8 1.6.2-1.5-2.8-1.6zM226.6 109.1l3.5 2 .3-1.5-3.5-2zM227.7 113.5l1.9 1.1.2-1.5-1.9-1.1zM225.3 115.9l3.7 2.1.3-1.5-3.7-2.1zM225 119.5l3.5 2 .2-1.5-3.5-2zM211.6 111.9l-1.5-.9.2-1.5 1.5.9zM216 114.4l-3.3-1.9.2-1.5 3.3 1.9zM244 100.1l-7-3.9.2-1.5 7 3.9zM247.6 102.2l-2.6-1.5.3-1.5 2.5 1.5z" class="st19"/><path d="M250.3 103.8l-1.7-1 .3-1.5 1.7.9z" class="st5"/><path d="M240.3 101.8l-3.9-2.2.3-1.5 3.8 2.2zM246 105l-4.7-2.6.3-1.5 4.6 2.6z" class="st19"/><path d="M248.8 106.6l-1.7-.9.2-1.6 1.7 1z" class="st5"/><path d="M251.4 108.1l-1.7-.9.2-1.6 1.7 1zM238.7 104.6l-2.8-1.5.2-1.5 2.8 1.5zM240.7 105.8l-1-.6.3-1.5.9.6zM243.4 107.4l-1.7-1 .3-1.5 1.7.9zM245.5 112.3l-10.1-5.8.2-1.5 10.2 5.8zM249.1 114.3l-2.5-1.4.2-1.5 2.6 1.4zM237.6 111.5l-2.8-1.5.3-1.5 2.7 1.5zM244 115.2l-5.4-3 .3-1.6 5.4 3.1zM246.8 116.8l-1.7-1 .2-1.5 1.8 1z" class="st19"/><path d="M239.9 116.6l-5.6-3.2.2-1.5 5.7 3.2z" class="st5"/><path d="M245.1 119.6l-4.1-2.4.2-1.5 4.1 2.4zM248.9 121.7l-2.8-1.5.3-1.5 2.7 1.5zM235.6 118l-1.9-1.1.3-1.5 1.9 1.1zM239.2 120l-2.5-1.4.2-1.5 2.6 1.4z" class="st19"/><path d="M244.3 122.9l-4-2.3.2-1.5 4.1 2.3z" class="st5"/><path d="M239 123.7l-5.8-3.4.2-1.5 5.9 3.3zM245.6 127.4l-5.5-3.1.2-1.6 5.5 3.2zM248.3 128.9l-1.7-.9.3-1.5 1.7.9zM251 130.5l-1.7-1 .2-1.5 1.7 1zM236.1 125.8l-3.4-2 .2-1.5 3.5 2z" class="st19"/><path d="M255.1 106.5l4.8 2.7.3-1.5-4.9-2.7z" class="st5"/><path d="M255.6 110.5l3.8 2.2.2-1.5-3.8-2.2zM256.1 114.6l2.8 1.5.2-1.5-2.8-1.6zM254.3 117.3l4 2.3.3-1.5-4.1-2.3zM255 121.5l2.8 1.5.2-1.5-2.7-1.5zM253.7 124.5l3.5 2 .3-1.5-3.5-2zM254.8 128.9l1.9 1 .2-1.5-1.9-1.1zM252.5 131.3l3.6 2.1.3-1.5-3.7-2.1zM252.1 134.9l3.5 1.9.2-1.5-3.5-2z" class="st19"/><path d="M238.7 127.2l-1.5-.8.2-1.5 1.5.8z" class="st5"/><path d="M243.1 129.7l-3.3-1.9.2-1.5 3.3 1.9zM212 115.9l-7-4 .2-1.5 7 4zM215.6 117.9l-2.5-1.4.2-1.5 2.5 1.4zM218.3 119.5l-1.7-1 .3-1.5 1.7 1zM208.3 117.5l-3.8-2.1.2-1.5 3.8 2.1zM214 120.8l-4.7-2.7.3-1.5 4.6 2.7zM216.8 122.4l-1.7-1 .2-1.5 1.7 1zM219.4 123.9l-1.7-1 .2-1.5 1.8 1zM206.7 120.4l-2.8-1.6.3-1.5 2.7 1.6zM208.7 121.5l-1-.5.3-1.5.9.5zM211.5 123.1l-1.8-1 .3-1.5 1.7 1zM213.5 128.1l-10.1-5.8.2-1.5 10.2 5.7zM217.1 130.1l-2.5-1.4.2-1.6 2.6 1.5zM205.6 127.3l-2.8-1.6.3-1.5 2.7 1.6zM212 131l-5.3-3.1.2-1.5 5.4 3.1zM214.8 132.5l-1.7-.9.3-1.5 1.7.9zM207.9 132.4l-5.6-3.2.2-1.5 5.7 3.2zM213.1 135.3L209 133l.2-1.5 4.1 2.3zM216.9 137.5l-2.8-1.6.3-1.5 2.7 1.6zM203.6 133.7l-1.9-1.1.3-1.5 1.9 1.1zM207.2 135.8l-2.5-1.5.3-1.5 2.5 1.4zM212.4 138.7l-4.1-2.3.2-1.6 4.1 2.4zM207 139.4l-5.8-3.3.2-1.5 5.9 3.3zM213.6 143.1l-5.5-3.1.2-1.5 5.5 3.1zM216.3 144.7l-1.7-1 .3-1.5 1.7 1zM219 146.2l-1.7-1 .2-1.5 1.7 1zM204.2 141.5l-3.5-2 .2-1.5 3.5 2zM223.1 122.2l4.8 2.8.3-1.5-4.9-2.8zM223.6 126.3l3.8 2.1.2-1.5-3.8-2.2zM224.1 130.3l2.8 1.6.2-1.5-2.8-1.6zM222.3 133l4 2.3.3-1.5-4-2.3zM223 137.2l2.8 1.6.2-1.5-2.7-1.6zM221.7 140.2l3.5 2 .3-1.5-3.5-2zM222.8 144.6l1.9 1.1.2-1.5-1.9-1.1zM220.5 147l3.7 2.1.2-1.5-3.7-2.1zM220.1 150.6l3.5 2 .2-1.5-3.4-2zM206.7 143l-1.5-.9.3-1.5 1.4.9zM211.1 145.5l-3.3-1.9.2-1.5 3.4 1.9zM212.3 157.1l-5.6-3.2.2-1.5 5.6 3.2zM216.2 159.3l-2.3-1.3.3-1.5 2.2 1.3zM239.1 131.2l-7-3.9.2-1.5 7 3.9zM242.7 133.3l-2.5-1.5.2-1.5 2.5 1.5zM245.5 134.9l-1.8-1 .3-1.5 1.7.9zM235.4 132.9l-3.8-2.2.2-1.5 3.8 2.2zM241.1 136.1l-4.7-2.6.3-1.5 4.6 2.6zM243.9 137.7l-1.7-1 .2-1.5 1.7 1zM246.5 139.2l-1.7-.9.3-1.6 1.7 1zM233.8 135.7l-2.8-1.5.3-1.5 2.7 1.5zM235.8 136.9l-1-.6.3-1.5.9.6zM238.6 138.5l-1.7-1 .2-1.5 1.7.9zM240.6 143.4l-10.1-5.8.2-1.5 10.2 5.8zM244.2 145.4l-2.5-1.4.3-1.5 2.5 1.4zM232.7 142.6l-2.8-1.5.3-1.5 2.7 1.5zM239.2 146.3l-5.4-3.1.2-1.5 5.4 3.1zM241.9 147.9l-1.7-1 .3-1.5 1.7 1zM235 147.7l-5.6-3.2.2-1.5 5.7 3.2zM240.2 150.7l-4.1-2.4.2-1.5 4.1 2.3zM244 152.8l-2.8-1.5.3-1.5 2.7 1.5zM230.8 149.1l-1.9-1.1.2-1.5 1.9 1.1zM234.3 151.1l-2.5-1.4.3-1.5 2.5 1.4zM239.5 154l-4.1-2.3.2-1.5 4.1 2.3zM234.1 154.8l-5.8-3.4.2-1.5 5.9 3.3zM240.7 158.5l-5.5-3.1.2-1.6 5.5 3.2zM243.4 160l-1.7-.9.3-1.5 1.7.9zM246.1 161.6l-1.7-1 .2-1.5 1.8.9zM231.3 156.9l-3.5-2 .2-1.5 3.5 2zM250.2 137.6l4.9 2.7.2-1.5-4.9-2.8zM250.7 141.6l3.8 2.2.3-1.5-3.9-2.2zM251.2 145.7l2.8 1.5.2-1.5-2.7-1.6zM249.4 148.4l4 2.3.3-1.5-4-2.3zM250.1 152.6l2.8 1.5.2-1.5-2.7-1.6zM248.9 155.6l3.4 2 .3-1.5-3.5-2zM249.9 160l1.9 1 .2-1.5-1.9-1.1zM247.6 162.4l3.7 2.1.2-1.5-3.7-2.1zM247.2 166l3.5 1.9.3-1.5-3.5-2zM233.8 158.3l-1.5-.8.3-1.5 1.5.8zM238.2 160.8l-3.3-1.9.2-1.5 3.4 1.9zM239.4 172.5l-5.6-3.3.2-1.5 5.7 3.2zM243.3 174.6l-2.2-1.2.2-1.5 2.2 1.2zM151.7 47.4l-7-4 .3-1.5 7 4zM155.3 49.5l-2.5-1.5.2-1.5 2.5 1.4zM158.1 51l-1.7-.9.2-1.6 1.7 1zM148 49.1l-3.8-2.2.2-1.5 3.8 2.1zM153.7 52.3l-4.6-2.6.2-1.5 4.7 2.6zM156.5 53.9l-1.7-1 .2-1.5 1.8 1zM159.2 55.4l-1.8-1 .3-1.5 1.7 1z" class="st19"/><path d="M146.4 51.9l-2.7-1.6.2-1.5 2.7 1.6zM148.4 53.1l-.9-.6.2-1.5 1 .5z" class="st5"/><path d="M151.2 54.6l-1.7-.9.2-1.6 1.7 1zM153.3 59.6l-10.2-5.8.2-1.5 10.2 5.8zM156.9 61.6l-2.6-1.4.3-1.5 2.5 1.4zM145.3 58.8l-2.7-1.5.2-1.6 2.8 1.6zM151.8 62.5l-5.4-3.1.2-1.5L152 61zM154.6 64.1l-1.7-1 .2-1.5 1.7 1zM147.7 63.9l-5.7-3.2.3-1.5 5.6 3.2z" class="st19"/><path d="M152.8 66.8l-4.1-2.3.3-1.5 4 2.3z" class="st5"/><path d="M156.6 69l-2.7-1.6.2-1.5 2.8 1.6zM143.4 65.2l-1.9-1 .2-1.6 1.9 1.1zM147 67.3l-2.5-1.5.2-1.5 2.5 1.5zM152.1 70.2l-4.1-2.3.3-1.5 4 2.3zM146.8 70.9l-5.9-3.3.3-1.5 5.8 3.3zM153.3 74.6l-5.5-3.1.3-1.5 5.4 3.1z" class="st19"/><path d="M156.1 76.2l-1.7-1 .2-1.5 1.7 1z" class="st5"/><path d="M158.7 77.7l-1.7-.9.3-1.5 1.7.9zM143.9 73l-3.5-1.9.2-1.5 3.5 1.9z" class="st19"/><path d="M162.8 53.7l4.9 2.8.2-1.5-4.8-2.8z" class="st5"/><path d="M163.3 57.8l3.8 2.1.3-1.5-3.8-2.1zM163.8 61.8l2.8 1.6.2-1.5-2.7-1.6zM162.1 64.6l4 2.3.2-1.6-4-2.2zM162.8 68.7l2.7 1.6.3-1.5-2.8-1.6zM161.5 71.8l3.5 2 .2-1.6-3.5-1.9zM162.5 76.1l1.9 1.1.3-1.5-1.9-1.1zM160.2 78.6l3.7 2.1.2-1.5-3.7-2.1zM159.9 82.1l3.4 2 .3-1.5-3.5-2zM146.4 74.5l-1.4-.8.2-1.6 1.5.9zM150.9 77l-3.4-1.9.2-1.5 3.4 1.9zM178.8 62.8l-7-4 .3-1.5 7 4zM182.4 64.8l-2.5-1.4.2-1.5 2.6 1.4z" class="st19"/><path d="M185.2 66.4l-1.7-1 .2-1.5 1.7 1z" class="st5"/><path d="M175.1 64.4l-3.8-2.2.2-1.5 3.8 2.2zM180.8 67.7l-4.6-2.7.2-1.5 4.7 2.7z" class="st19"/><path d="M183.6 69.2l-1.7-.9.2-1.5 1.8.9z" class="st5"/><path d="M186.3 70.8l-1.7-1 .2-1.5 1.7.9zM173.5 67.3l-2.7-1.6.2-1.5 2.8 1.6zM175.5 68.4l-.9-.5.2-1.5 1 .5zM178.3 70l-1.7-1 .2-1.5 1.7 1zM180.4 74.9l-10.2-5.8.3-1.5 10.1 5.8zM184 77l-2.5-1.5.2-1.5 2.5 1.5zM172.4 74.2l-2.7-1.6.2-1.5 2.8 1.6zM178.9 77.8l-5.4-3 .2-1.5 5.4 3zM181.7 79.4l-1.7-.9.2-1.6 1.7 1z" class="st19"/><path d="M174.8 79.3l-5.7-3.2.3-1.6 5.6 3.2z" class="st5"/><path d="M179.9 82.2l-4.1-2.3.3-1.5 4 2.3zM183.7 84.4l-2.7-1.6.2-1.5 2.8 1.5zM170.5 80.6l-1.9-1.1.2-1.5 1.9 1.1zM174.1 82.6l-2.5-1.4.2-1.5 2.5 1.4z" class="st19"/><path d="M179.2 85.5l-4.1-2.3.3-1.5 4 2.3z" class="st5"/><path d="M173.9 86.3L168 83l.3-1.6 5.8 3.4zM180.4 90l-5.5-3.1.3-1.5 5.4 3.1zM183.2 91.6l-1.7-1 .2-1.5 1.7 1zM185.9 93.1l-1.8-1 .3-1.5 1.7 1zM171 88.4l-3.5-2 .2-1.5 3.5 2z" class="st19"/><path d="M190 69.1l4.8 2.7.2-1.5-4.8-2.7z" class="st5"/><path d="M190.4 73.1l3.9 2.2.2-1.5-3.8-2.2zM191 77.2l2.7 1.5.2-1.5-2.7-1.5zM189.2 79.9l4 2.3.2-1.5-4-2.3zM189.9 84.1l2.7 1.6.3-1.6-2.8-1.5zM188.6 87.1l3.5 2 .2-1.5-3.5-2zM189.6 91.5l1.9 1.1.3-1.6-1.9-1zM187.3 93.9L191 96l.2-1.5-3.7-2.1zM187 97.5l3.5 2 .2-1.5-3.5-2z" class="st19"/><path d="M173.6 89.9l-1.5-.9.2-1.5 1.5.8z" class="st5"/><path d="M178 92.4l-3.4-1.9.3-1.6 3.3 2zM146.8 78.5l-6.9-4 .2-1.5 7 4zM150.4 80.5l-2.5-1.4.2-1.5 2.6 1.4zM153.2 82.1l-1.7-.9.2-1.6 1.7 1zM143.1 80.2l-3.8-2.2.2-1.5 3.9 2.1zM148.9 83.4l-4.7-2.6.2-1.6 4.7 2.7zM151.6 85l-1.7-1 .3-1.5 1.7 1zM154.3 86.5l-1.7-1 .2-1.5 1.7 1zM141.5 83l-2.7-1.6.2-1.5 2.8 1.6zM143.5 84.2l-.9-.6.2-1.5 1 .5zM146.3 85.7l-1.7-.9.2-1.6 1.7 1zM148.4 90.7l-10.2-5.8.3-1.5 10.1 5.8zM152 92.7l-2.5-1.4.2-1.5 2.5 1.4zM140.4 89.9l-2.7-1.6.2-1.5 2.8 1.6zM146.9 93.6l-5.4-3.1.2-1.5 5.4 3.1zM149.7 95.2l-1.7-1 .2-1.5 1.7 1zM142.8 95l-5.7-3.2.3-1.5 5.6 3.2zM147.9 97.9l-4.1-2.3.3-1.5 4.1 2.3zM151.7 100.1l-2.7-1.6.2-1.5 2.8 1.6zM138.5 96.3l-1.9-1 .2-1.6 1.9 1.1zM142.1 98.4l-2.5-1.5.2-1.5 2.5 1.5zM147.2 101.3l-4-2.3.2-1.5 4 2.3zM141.9 102l-5.8-3.3.2-1.5 5.8 3.3zM148.4 105.7l-5.4-3.1.2-1.5 5.5 3.1zM151.2 107.3l-1.7-1 .2-1.5 1.7 1zM153.9 108.8l-1.7-.9.2-1.6 1.7 1zM139 104.1l-3.5-1.9.2-1.6 3.5 2zM158 84.8l4.8 2.8.2-1.5-4.8-2.8zM158.5 88.9l3.8 2.1.2-1.5-3.8-2.1zM159 92.9l2.7 1.6.3-1.5-2.8-1.6zM157.2 95.7l4 2.2.2-1.5-4-2.2zM157.9 99.8l2.7 1.6.3-1.5-2.8-1.6zM156.6 102.9l3.5 2 .2-1.6-3.5-1.9zM157.6 107.2l1.9 1.1.3-1.5-1.9-1.1zM155.3 109.7l3.7 2.1.2-1.6-3.6-2zM155 113.2l3.5 2 .2-1.5-3.5-2zM141.6 105.6l-1.5-.8.2-1.6 1.5.9zM146 108.1l-3.4-1.9.3-1.5 3.3 1.9zM147.2 119.7l-5.7-3.2.3-1.5 5.6 3.2zM151 121.9l-2.2-1.2.2-1.6 2.3 1.3zM173.9 93.9l-6.9-4 .2-1.5 7 3.9zM177.5 95.9l-2.5-1.4.3-1.5 2.5 1.4zM180.3 97.5l-1.7-1 .2-1.5 1.7 1zM170.2 95.5l-3.8-2.2.3-1.5 3.8 2.2zM176 98.8l-4.7-2.7.2-1.5 4.7 2.7zM178.7 100.3l-1.7-.9.3-1.5 1.7.9zM181.4 101.8l-1.7-.9.2-1.5 1.7.9zM168.6 98.4l-2.7-1.6.2-1.5 2.8 1.5zM170.6 99.5l-.9-.5.2-1.5 1 .5zM173.4 101.1l-1.7-1 .2-1.5 1.8 1zM175.5 106l-10.2-5.8.3-1.5 10.1 5.8zM179.1 108.1l-2.5-1.5.2-1.5 2.5 1.5zM167.5 105.3l-2.7-1.6.2-1.5 2.8 1.6zM174 108.9l-5.4-3 .2-1.5 5.4 3zM176.8 110.5l-1.7-1 .2-1.5 1.7 1zM169.9 110.4l-5.7-3.2.3-1.6 5.6 3.2zM175 113.3l-4-2.3.2-1.5 4.1 2.3zM178.8 115.5l-2.7-1.6.2-1.5 2.8 1.5zM165.6 111.7l-1.9-1.1.2-1.5 1.9 1.1zM169.2 113.7l-2.5-1.4.2-1.5 2.5 1.4zM174.3 116.6l-4-2.3.2-1.5 4.1 2.3zM169 117.4l-5.8-3.3.2-1.6 5.8 3.4zM175.5 121.1l-5.4-3.1.2-1.5 5.5 3.1zM178.3 122.7l-1.7-1 .2-1.5 1.7 1zM181 124.2l-1.7-1 .2-1.5 1.7 1zM166.1 119.5l-3.5-2 .3-1.5 3.5 2zM185.1 100.2l4.8 2.7.2-1.5-4.8-2.7zM185.6 104.2l3.8 2.2.2-1.5-3.8-2.2zM186.1 108.3l2.7 1.5.3-1.5-2.8-1.5zM184.3 111l4 2.3.2-1.5-4-2.3zM185 115.2l2.7 1.6.3-1.6-2.8-1.5zM183.7 118.2l3.5 2 .2-1.5-3.5-2zM184.8 122.6l1.9 1.1.2-1.6-1.9-1zM182.4 125l3.7 2.1.3-1.5-3.7-2.1zM182.1 128.6l3.5 2 .2-1.5-3.5-2zM168.7 121l-1.5-.9.2-1.5 1.5.8zM173.1 123.5l-3.4-1.9.3-1.6 3.3 1.9zM174.3 135.1l-5.7-3.2.3-1.5 5.6 3.2zM178.1 137.3l-2.2-1.3.2-1.5 2.3 1.3z" class="st19"/><linearGradient id="SVGID_12_" x1="1208.535" x2="1251.804" y1="154.748" y2="76.835" gradientUnits="userSpaceOnUse" gradientTransform="matrix(-1 0 0 1 1432.082 0)"><stop offset="0" stop-color="#5778FF"/><stop offset=".04" stop-color="#5C7DFF"/><stop offset=".087" stop-color="#6A8AFF"/><stop offset=".137" stop-color="#82A0FF"/><stop offset=".19" stop-color="#A3BEFF"/><stop offset=".224" stop-color="#BCD5FF"/></linearGradient><path d="M150.6 81.2l6.5-3.8c.1-.1.2-.1.3 0l81.8 47.2c.3.2.5.6.5.9V141c0 .2-.1.3-.1.4l-6.6 3.8-.1-7.5-75.5-43.6c-.3-.2-.5-.6-.5-.9v-5.3l-6.3-6.7z" class="st20"/><linearGradient id="SVGID_13_" x1="1261.69" x2="1232.89" y1="155.024" y2="98.723" gradientUnits="userSpaceOnUse" gradientTransform="matrix(-1 0 0 1 1432.082 0)"><stop offset="0" stop-color="#C0D6FF"/><stop offset=".298" stop-color="#C5DBFF"/><stop offset=".649" stop-color="#D3E9FF"/><stop offset="1" stop-color="#E9FFFF"/></linearGradient><path d="M150.9 97.9l81.8 47.2c.3.2.5 0 .5-.4v-15.4c0-.4-.2-.8-.5-.9l-81.8-47.2c-.3-.2-.5 0-.5.4V97c0 .4.2.8.5.9z" class="st21"/><path d="M162.2 94.8l63.7 37.4c-2 1.7-3.8 3.6-5.5 5.8l-64.2-37c1.8-2.3 3.8-4.4 6-6.2z" class="st22"/><path d="M153.2 93.3l77.1 44.5c.2.1.3 0 .3-.2v-3.9c0-.2-.1-.5-.3-.6l-77.1-44.5c-.2-.1-.3 0-.3.2v3.9c0 .2.2.5.3.6z" class="st2"/><path d="M153.2 88.5l1.6.9v2.1c0 .2.1.5.3.6l75.5 43.6v1.8c0 .2-.1.4-.3.2l-77.1-44.5c-.2-.1-.3-.4-.3-.6v-3.9c0-.2.2-.3.3-.2z" class="st4"/><linearGradient id="SVGID_14_" x1="1339.533" x2="1248" y1="256.227" y2="94.04" gradientUnits="userSpaceOnUse" gradientTransform="matrix(-1 0 0 1 1432.082 0)"><stop offset="0" stop-color="#C0D6FF"/><stop offset=".078" stop-color="#C3D9FF"/><stop offset=".134" stop-color="#CCE2FF"/><stop offset=".183" stop-color="#DCF2FF"/><stop offset=".212" stop-color="#E9FFFF"/><stop offset=".256" stop-color="#D8EEFF"/><stop offset=".315" stop-color="#CBE1FF"/><stop offset=".387" stop-color="#C2D8FF"/><stop offset=".514" stop-color="#C0D6FF"/><stop offset=".624" stop-color="#D0E6FF"/><stop offset=".755" stop-color="#E9FFFF"/><stop offset="1" stop-color="#C0D6FF"/></linearGradient><path d="M109.9 260.3l-64.2-37c8.3-4.8 15.3-15.2 17.4-25.2.9-4.1 3.3-7.6 6.9-9.6l48.5-28c13.5-7.8 22.3-21.8 23.2-37.4.8-13.1 10.7-26.1 18.4-30.5l64.2 37c-7.6 4.4-16 16.6-16.9 29.6-1.1 15.6-9.6 29.6-23.1 37.5l-50 28.9c-3.6 2.1-6.1 5.6-6.9 9.6-2.2 9.9-9.2 20.4-17.5 25.1z" class="st23"/><path d="M160.2 92.5l64.2 37c-.5.3-1 .6-1.5 1l-64.1-37c.3-.4.8-.7 1.4-1z" class="st24"/><g class="st25"><path d="M184.3 136.3l11.2 6.6.1-1.3-11.2-6.5zM178.6 133l4 2.3.1-1.2-4-2.3zM174.3 130.5l2.6 1.6.2-1.3-2.7-1.5zM189.1 142.2l6.2 3.6.1-1.3-6.2-3.6zM180 136.9l7.4 4.3.1-1.3-7.4-4.3zM175.6 134.3l2.7 1.6.1-1.3-2.7-1.5zM171.4 131.9l2.7 1.6.1-1.3-2.6-1.5zM190.6 146.2l4.5 2.6.1-1.3-4.5-2.6zM187.4 144.3l1.5.9.1-1.3-1.5-.9zM182.9 141.7l2.7 1.6.1-1.3-2.7-1.6zM178.4 142.2l16.5 9.7.1-1.4-16.5-9.6zM172.7 138.8l4 2.4.1-1.3-3.9-2.4zM190.1 152.2l4.6 2.7.1-1.3-4.6-2.7zM179.7 146l8.7 5.2.1-1.3-8.7-5.2zM175.2 143.4l2.7 1.6.2-1.3-2.8-1.6zM185.2 152.5l9.3 5.5.1-1.3-9.3-5.5zM176.9 147.5l6.5 4 .2-1.4-6.6-3.9zM170.8 143.9l4.4 2.6.1-1.3-4.4-2.6zM191.1 159.2l3.1 1.9.1-1.3-3.1-1.9zM185.2 155.7l4.1 2.5.1-1.4-4.1-2.4zM176.9 150.7l6.5 4 .1-1.4-6.5-3.9zM184.4 158.4l9.6 5.9.1-1.4-9.6-5.8zM173.7 152.1l8.9 5.3.1-1.4-8.8-5.3zM169.3 149.4l2.7 1.6.2-1.3-2.8-1.6zM165.1 146.8l2.7 1.7.1-1.3-2.7-1.7zM188 163.9l5.8 3.5.1-1.4-5.8-3.5zM162.2 123.5l-7.3-4.2.2-1.2 7.3 4.2zM160.3 125.4l-5.8-3.3.2-1.2 5.7 3.3zM158.3 127.3l-4.1-2.4.1-1.3 4.2 2.5zM159.9 131.3l-6.1-3.6.2-1.3 6.1 3.6zM157.6 133l-4.2-2.5.2-1.2 4.2 2.4zM158.4 136.6l-5.4-3.2.2-1.3 5.4 3.2zM155.6 138l-2.9-1.8.1-1.2 3 1.7zM158 142.6l-5.7-3.5.1-1.2 5.7 3.4zM157.3 145.4l-5.4-3.3.2-1.3 5.4 3.3zM183.7 161.3l2.5 1.5.1-1.3-2.4-1.5zM176.5 157l5.5 3.3.1-1.4-5.5-3.3z" class="st4"/></g><g class="st25"><path d="M142.9 178.8l-16.8-9.6 1.2-.7 16.7 9.6zM152.6 184.4l-6.1-3.5 1.2-.6 6.1 3.4zM157.4 187.2l-1.7-1 1.1-.7 1.8 1zM166.5 192.5l-6-3.5 1.2-.7 6 3.5zM128.5 173.4l-4.8-2.8 1.1-.7 4.9 2.8zM150.1 185.9l-17.9-10.4 1.2-.7 17.9 10.4zM155 188.7l-1.8-1.1 1.2-.7 1.7 1.1zM164.1 193.9l-6.1-3.5 1.2-.7 6.1 3.5zM123.6 173.4l-2.4-1.4 1.2-.7 2.4 1.4zM130.2 177.2l-2.9-1.6 1.2-.7 2.9 1.6zM135.1 180l-1.8-1 1.2-.7 1.8 1zM144.2 185.3l-6.1-3.5 1.2-.7 6.1 3.5zM123.6 176.3l-4.9-2.9 1.2-.7 4.9 2.9zM133.3 181.9l-6-3.5 1.2-.7 6 3.5zM138.2 184.7l-1.8-1.1 1.2-.6 1.8 1zM147.3 189.9l-6.1-3.5 1.2-.6 6.1 3.4zM132.8 184.6l-16.7-9.6 1.1-.7 16.8 9.6zM142.5 190.2l-6-3.4 1.2-.7 6 3.5zM147.3 193l-1.7-1 1.2-.7 1.7 1.1zM156.5 198.3l-6.1-3.5 1.2-.7 6.1 3.5zM118.5 179.2l-4.9-2.8 1.2-.7 4.9 2.8zM140 191.7l-17.8-10.4 1.2-.6 17.8 10.3zM144.9 194.5l-1.8-1.1 1.2-.6 1.8 1zM154 199.7l-6-3.5 1.1-.6 6.1 3.4zM113.6 179.2l-2.5-1.4 1.2-.7 2.4 1.4zM120.1 183l-2.9-1.6 1.2-.7 2.9 1.6zM125 185.8l-1.8-1 1.2-.7 1.8 1zM134.1 191.1l-6-3.5 1.2-.7 6 3.5zM113.5 182.1l-4.9-2.8 1.2-.7 4.9 2.8zM123.2 187.7l-6-3.5 1.2-.7 6 3.5zM128.1 190.5l-1.8-1 1.2-.7 1.8 1zM137.2 195.7l-6-3.4 1.2-.7 6 3.5zM122.7 190.4l-16.7-9.6 1.2-.7 16.7 9.7zM132.4 196.1l-6-3.5 1.2-.7 6 3.5zM137.3 198.9l-1.8-1.1 1.2-.7 1.8 1.1zM146.4 204.1l-6-3.5 1.1-.7 6.1 3.5zM108.4 185l-4.9-2.8 1.2-.7 4.9 2.8zM130 197.5l-17.9-10.3 1.2-.7 17.9 10.3zM134.8 200.3l-1.8-1 1.2-.7 1.8 1zM143.9 205.5l-6-3.4 1.2-.7 6 3.5zM103.5 185.1l-2.5-1.5 1.2-.6 2.5 1.4zM110.1 188.9l-2.9-1.7 1.2-.7 2.9 1.7zM114.9 191.7l-1.8-1.1 1.2-.7 1.8 1.1zM124 196.9l-6-3.5 1.2-.7 6 3.5zM103.5 187.9l-4.9-2.8 1.2-.7 4.8 2.8zM113.2 193.5l-6.1-3.5 1.2-.7 6.1 3.5zM118 196.3l-1.7-1 1.1-.7 1.8 1zM127.1 201.6l-6-3.5 1.2-.7 6 3.5z" class="st4"/></g></svg>